<?xml version="1.0" standalone="no"?>
<!DOCTYPE svg PUBLIC "-//W3C//DTD SVG 1.1//EN" "http://www.w3.org/Graphics/SVG/1.1/DTD/svg11.dtd" >
<svg xmlns="http://www.w3.org/2000/svg">
<metadata></metadata>
<defs>
<font id="zawgyi-oneregular" horiz-adv-x="0" >
<font-face units-per-em="2048" ascent="1638" descent="-410" />
<missing-glyph horiz-adv-x="640" />
<glyph unicode="&#x643;&#xfd3e;" horiz-adv-x="1786" d="M92 442q0 78 9.5 156t11.5 96h172v-10q-3 -15 -15 -99.5t-12 -140.5q0 -140 102.5 -198t348.5 -58q401 0 597.5 50.5t196.5 140.5q0 46 -106.5 86t-190.5 72q-54 21 -108.5 48t-95.5 59q-42 33 -67.5 74.5t-25.5 94.5q0 130 116 228t294 98q122 0 216.5 -24t162.5 -56 v-213h-10q-70 43 -164 75.5t-207 32.5q-94 0 -168 -40t-74 -103q0 -53 106.5 -95t190.5 -73q51 -19 108.5 -46.5t95.5 -56.5q44 -32 68.5 -69t24.5 -90q0 -187 -242 -284t-720 -97q-319 0 -467 106.5t-148 335.5z" />
<glyph unicode="&#x64b;&#x200f;" horiz-adv-x="1171" d="M221 0v14q0 211 63.5 348t211.5 246l153 113l-37 10q-128 36 -195 112.5t-67 186.5q0 151 100 253.5t246 102.5q77 0 131 -6.5t78 -11.5v-186h-12q-18 5 -73 13.5t-115 8.5q-87 0 -138 -51t-51 -123q0 -76 78 -125t199 -80l155 113v-168l-248 -182q-184 -135 -248.5 -250 t-64.5 -326v-12h-166z" />
<glyph unicode="&#x643;&#xfeda;&#xfee4;" horiz-adv-x="1020" d="M6 1117h203l305 -827l304 827h196l-601 -1529h-201l200 466zM123 1316q7 154 76 232.5t169 78.5q51 0 94 -19.5t86 -57.5q43 -39 77.5 -59.5t63.5 -20.5q47 0 68.5 45t24.5 117h140q-10 -156 -74.5 -234t-171.5 -78q-52 0 -96 19t-86 59q-44 41 -76 62.5t-63 21.5 q-49 0 -68.5 -45t-23.5 -121h-140z" />
<glyph unicode="&#xfeda;&#xfd3e;" horiz-adv-x="2042" arabic-form="final" d="M92 119q0 79 9.5 155t11.5 93h172v-11q-3 -16 -15 -97t-12 -138q0 -139 101 -199.5t350 -60.5q311 0 467.5 54t156.5 171q0 41 -50 82.5t-97 77.5q-83 62 -115.5 112.5t-32.5 102.5q0 102 92 191t230 89q66 0 118.5 -24t94.5 -62q39 -35 79 -90t69 -101q27 -42 66 -100 t69 -90q39 -41 78.5 -63.5t95.5 -22.5h12v-188h-8q-73 0 -129 23t-103 63q-48 41 -85 91t-68 99q-27 43 -63 100.5t-65 90.5q-34 39 -73.5 62.5t-87.5 23.5q-77 0 -116.5 -31t-39.5 -63q0 -30 54.5 -75.5t93.5 -77.5q71 -59 109 -110.5t38 -101.5q0 -205 -193.5 -313.5 t-598.5 -108.5q-316 0 -465.5 107.5t-149.5 339.5z" />
<glyph unicode="&#x643;&#xfe82;" horiz-adv-x="573" arabic-form="initial" d="M-70 0v188h136q102 0 155 73t53 204v252h166v-264q0 -213 -101 -333t-278 -120h-131zM-18 -162h148v-148h-148v148zM250 -162h148v-148h-148v148z" />
<glyph unicode="&#xfeda;&#xfe82;" horiz-adv-x="719" arabic-form="medial" d="M-70 0v188h142q90 0 146 62t56 176v121h168v-121q0 -108 56.5 -173t148.5 -65h72v-188h-117q-62 0 -136.5 33t-107.5 90q-35 -59 -105 -91t-136 -32h-187zM33 -162h148v-148h-148v148zM301 -162h148v-148h-148v148z" />
<glyph unicode="&#x643;&#xfe88;" horiz-adv-x="1247" arabic-form="isolated" d="M-92 1593v101q17 14 62.5 35.5t84.5 21.5q35 0 113.5 -30.5t116.5 -30.5q43 0 88.5 23t58.5 34v-98q-19 -15 -57.5 -34.5t-89.5 -19.5q-39 0 -115.5 31t-114.5 31q-33 0 -79 -25t-68 -39zM53 1481h193l516 -1219q82 34 139 131t57 182v981h166v-993q0 -127 -53 -233.5 t-136 -177.5q-90 -76 -197 -114t-216 -38q-99 0 -185.5 5.5t-100.5 6.5v199h10q30 -8 118 -15.5t160 -7.5q32 0 46.5 4t21.5 9z" />
<glyph unicode="&#xfeda;&#xfe88;" horiz-adv-x="1454" arabic-form="final" d="M-92 1593v101q17 14 62.5 35.5t84.5 21.5q35 0 113.5 -30.5t116.5 -30.5q43 0 88.5 23t58.5 34v-98q-19 -15 -57.5 -34.5t-89.5 -19.5q-39 0 -115.5 31t-114.5 31q-33 0 -79 -25t-68 -39zM53 1481h193l516 -1219q82 34 139 131t57 182v981h166v-993q0 -75 8 -133.5 t35 -119.5q23 -53 64 -87.5t102 -34.5h121v-188h-117q-116 0 -200 61.5t-121 184.5q-89 -117 -220 -181.5t-274 -64.5q-99 0 -185.5 5.5t-100.5 6.5v199h10q30 -8 118 -15.5t160 -7.5q32 0 47.5 5t20.5 8zM1247 0z" />
<glyph unicode="&#x64b;&#x60c;" horiz-adv-x="2048" d="M256 0v1536h1536v-1536h-1536zM384 128h1280v1280h-1280v-1280z" />
<glyph unicode="&#x64b;&#x61b;" horiz-adv-x="2048" d="M256 0v1536h1536v-1536h-1536zM384 128h1280v1280h-1280v-1280z" />
<glyph unicode="&#x64b;&#x61f;" horiz-adv-x="2048" d="M256 0v1536h1536v-1536h-1536zM384 128h1280v1280h-1280v-1280z" />
<glyph unicode="&#x64b;&#x621;" horiz-adv-x="2048" d="M256 0v1536h1536v-1536h-1536zM384 128h1280v1280h-1280v-1280z" />
<glyph unicode="&#x64b;&#x640;" horiz-adv-x="2048" d="M256 0v1536h1536v-1536h-1536zM384 128h1280v1280h-1280v-1280z" />
<glyph unicode="&#x672;" horiz-adv-x="606" d="M15 1625v101q64 57 117 57q19 0 96 -30q-55 30 -55 102t52 117q49 43 122 43q60 0 114 -16v-101h-6q-54 23 -106 23q-88 0 -88 -66q0 -50 55 -79q45 -23 100 -23h74v-94h-233q-31 0 -71 15t-54 15q-43 0 -117 -64zM164 453v1103h166v-1091q0 -55 9 -102t34 -87 q25 -41 62.5 -64.5t103.5 -23.5h67v-188h-63q-185 0 -282 125.5t-97 327.5zM494 0z" />
<glyph unicode="&#x673;" horiz-adv-x="606" d="M15 -322q64 57 117 57q19 0 96 -30q-55 30 -55 102t52 117q49 43 122 43q60 0 114 -16v-101h-6q-54 23 -106 23q-88 0 -88 -66q0 -50 55 -79q45 -23 100 -23h74v-94h-233q-31 0 -71 15t-54 15q-43 0 -117 -64v101zM164 453v1103h166v-1091q0 -55 9 -102t34 -87 q25 -41 62.5 -64.5t103.5 -23.5h67v-188h-63q-185 0 -282 125.5t-97 327.5zM494 0z" />
<glyph unicode="&#x675;" horiz-adv-x="606" d="M164 453v1103h166v-1091q0 -55 9 -102t34 -87q25 -41 62.5 -64.5t103.5 -23.5h67v-188h-63q-185 0 -282 125.5t-97 327.5zM388 1200v94h74q-24 13 -39.5 42t-15.5 60q0 64 47 112t127 48q53 0 78.5 -6t35.5 -10v-101h-6q-14 6 -47.5 14.5t-58.5 8.5q-44 0 -66 -18 t-22 -48q0 -45 46 -73.5t109 -28.5h74v-94h-336zM494 0z" />
<glyph unicode="&#x676;" horiz-adv-x="909" d="M-119 -236q75 0 182 8t195 31q117 32 188 81t107 120q-147 12 -240.5 57t-149.5 110q-54 62 -74.5 132t-20.5 127q0 150 97.5 262.5t219.5 112.5q166 0 270.5 -173t104.5 -444h149v-188h-176q-44 -137 -143.5 -223t-239.5 -133q-127 -43 -252 -55.5t-217 -12.5v188z M-60 862v88q75 5 141 19t131 44q-51 16 -90 57.5t-39 98.5q0 69 46.5 113.5t125.5 44.5q69 0 119.5 -45t50.5 -117q0 -34 -18 -70.5t-35 -50.5l64 -12v-86l-127 28q-91 -52 -180.5 -79t-188.5 -33zM178 1167q0 -34 28.5 -59.5t81.5 -38.5q21 18 34 40.5t13 57.5 q0 29 -23.5 47t-52.5 18q-35 0 -58 -16.5t-23 -48.5zM240 436q0 -29 10 -66t49 -76q36 -37 105.5 -67t183.5 -37q-5 200 -58 313t-133 113q-69 0 -113 -56.5t-44 -123.5zM548 971v94h74q-24 13 -39.5 42t-15.5 60q0 64 47 112t127 48q53 0 78.5 -6t35.5 -10v-101h-6 q-14 6 -47.5 14.5t-58.5 8.5q-44 0 -66 -18t-22 -48q0 -45 46 -73.5t109 -28.5h74v-94h-336zM854 0z" />
<glyph unicode="&#x676;" horiz-adv-x="909" d="M-119 -236q75 0 182 8t195 31q117 32 188 81t107 120q-147 12 -240.5 57t-149.5 110q-54 62 -74.5 132t-20.5 127q0 150 97.5 262.5t219.5 112.5q166 0 270.5 -173t104.5 -444h149v-188h-176q-44 -137 -143.5 -223t-239.5 -133q-127 -43 -252 -55.5t-217 -12.5v188z M240 436q0 -29 10 -66t49 -76q36 -37 105.5 -67t183.5 -37q-5 200 -58 313t-133 113q-69 0 -113 -56.5t-44 -123.5zM488 971v94h74q-24 13 -39.5 42t-15.5 60q0 64 47 112t127 48q53 0 78.5 -6t35.5 -10v-101h-6q-14 6 -47.5 14.5t-58.5 8.5q-44 0 -66 -18t-22 -48 q0 -45 46 -73.5t109 -28.5h74v-94h-336zM854 0z" />
<glyph unicode="&#x678;" horiz-adv-x="2042" d="M92 119q0 79 9.5 155t11.5 93h172v-11q-3 -16 -15 -97t-12 -138q0 -139 101 -199.5t350 -60.5q311 0 467.5 54t156.5 171q0 41 -50 82.5t-97 77.5q-83 62 -115.5 112.5t-32.5 102.5q0 102 92 191t230 89q66 0 118.5 -24t94.5 -62q39 -35 79 -90t69 -101q27 -42 66 -100 t69 -90q39 -41 78.5 -63.5t95.5 -22.5h12v-188h-8q-73 0 -129 23t-103 63q-48 41 -85 91t-68 99q-27 43 -63 100.5t-65 90.5q-34 39 -73.5 62.5t-87.5 23.5q-77 0 -116.5 -31t-39.5 -63q0 -30 54.5 -75.5t93.5 -77.5q71 -59 109 -110.5t38 -101.5q0 -205 -193.5 -313.5 t-598.5 -108.5q-316 0 -465.5 107.5t-149.5 339.5zM1698 817v94h74q-24 13 -39.5 42t-15.5 60q0 64 47 112t127 48q53 0 78.5 -6t35.5 -10v-101h-6q-14 6 -47.5 14.5t-58.5 8.5q-44 0 -66 -18t-22 -48q0 -45 46 -73.5t109 -28.5h74v-94h-336z" />
<glyph unicode="&#x689;" horiz-adv-x="1118" d="M70 0v188h393q60 0 106 16t72 44q24 27 33.5 56t9.5 61q0 10 -4.5 32t-11.5 49l-156 527h195l135 -477q16 -57 37 -123t39 -99q23 -40 56 -63t85 -23h59v-188h-55q-100 0 -175.5 37.5t-121.5 105.5q-64 -71 -138.5 -107t-156.5 -36h-268h-133zM200 -96q0 77 55.5 132.5 t132.5 55.5q78 0 133.5 -55t55.5 -133q0 -79 -56 -134t-133 -55q-78 0 -133 55.5t-55 133.5zM292 -97q0 -38 29 -66t67 -28q39 0 68 28t29 66q0 40 -28 68t-69 28q-40 0 -68 -28t-28 -68z" />
<glyph unicode="&#x68b;" horiz-adv-x="1118" d="M70 0v188h393q60 0 106 16t72 44q24 27 33.5 56t9.5 61q0 10 -4.5 32t-11.5 49l-156 527h195l135 -477q16 -57 37 -123t39 -99q23 -40 56 -63t85 -23h59v-188h-55q-100 0 -175.5 37.5t-121.5 105.5q-64 -71 -138.5 -107t-156.5 -36h-268h-133zM237 -171h148v-148h-148 v148zM324 1115v92h82q21 16 21 24v500h83v-397q104 113 190 113q71 0 116 -47t45 -119q0 -89 -88 -133q-67 -33 -160 -33h-289zM520 1207h48q209 0 209 72q0 32 -22.5 54.5t-55.5 22.5q-72 0 -179 -149z" />
<glyph unicode="&#x68f;" horiz-adv-x="1118" d="M70 0v188h393q60 0 106 16t72 44q24 27 33.5 56t9.5 61q0 10 -4.5 32t-11.5 49l-156 527h195l135 -477q16 -57 37 -123t39 -99q23 -40 56 -63t85 -23h59v-188h-55q-100 0 -175.5 37.5t-121.5 105.5q-64 -71 -138.5 -107t-156.5 -36h-268h-133zM346 1387v148h148v-148 h-148zM494 1178v148h148v-148h-148zM642 1387v148h148v-148h-148z" />
<glyph unicode="&#x690;" horiz-adv-x="1118" d="M70 0v188h393q60 0 106 16t72 44q24 27 33.5 56t9.5 61q0 10 -4.5 32t-11.5 49l-156 527h195l135 -477q16 -57 37 -123t39 -99q23 -40 56 -63t85 -23h59v-188h-55q-100 0 -175.5 37.5t-121.5 105.5q-64 -71 -138.5 -107t-156.5 -36h-268h-133zM360 1206v148h148v-148 h-148zM360 1415v148h148v-148h-148zM628 1206v148h148v-148h-148zM628 1415v148h148v-148h-148z" />
<glyph unicode="&#x692;" horiz-adv-x="854" d="M-109 -236q64 0 173 17.5t194 57.5q114 53 171.5 129.5t57.5 185.5q0 59 -16 117.5t-36 102.5t-40 77.5t-33 52.5v12h193q6 -11 30 -65t42 -97q38 -88 86 -127t110 -39h31v-188h-76q-31 0 -69 9.5t-68 25.5q-37 -144 -130.5 -233.5t-207.5 -139.5q-104 -45 -212 -65.5 t-200 -20.5v188zM189 1101h107l79 -194l79 194h107l-137 -286h-98zM659 186zM741 0z" />
<glyph unicode="&#x693;" horiz-adv-x="854" d="M-109 -236q64 0 173 17.5t194 57.5q114 53 171.5 129.5t57.5 185.5q0 59 -16 117.5t-36 102.5t-40 77.5t-33 52.5v12h193q6 -11 30 -65t42 -97q38 -88 86 -127t110 -39h31v-188h-76q-31 0 -69 9.5t-68 25.5q-37 -144 -130.5 -233.5t-207.5 -139.5q-104 -45 -212 -65.5 t-200 -20.5v188zM420 -235q0 77 55.5 132.5t132.5 55.5q78 0 133.5 -55t55.5 -133q0 -79 -56 -134t-133 -55q-78 0 -133 55.5t-55 133.5zM512 -236q0 -38 29 -66t67 -28q39 0 68 28t29 66q0 40 -28 68t-69 28q-40 0 -68 -28t-28 -68zM659 186zM741 0z" />
<glyph unicode="&#x694;" horiz-adv-x="854" d="M-109 -236q64 0 173 17.5t194 57.5q114 53 171.5 129.5t57.5 185.5q0 59 -16 117.5t-36 102.5t-40 77.5t-33 52.5v12h193q6 -11 30 -65t42 -97q38 -88 86 -127t110 -39h31v-188h-76q-31 0 -69 9.5t-68 25.5q-37 -144 -130.5 -233.5t-207.5 -139.5q-104 -45 -212 -65.5 t-200 -20.5v188zM577 -212h148v-148h-148v148zM659 186zM741 0z" />
<glyph unicode="&#x695;" horiz-adv-x="854" d="M-109 -236q64 0 173 17.5t194 57.5q114 53 171.5 129.5t57.5 185.5q0 59 -16 117.5t-36 102.5t-40 77.5t-33 52.5v12h193q6 -11 30 -65t42 -97q38 -88 86 -127t110 -39h31v-188h-76q-31 0 -69 9.5t-68 25.5q-37 -144 -130.5 -233.5t-207.5 -139.5q-104 -45 -212 -65.5 t-200 -20.5v188zM569 -138h107l79 -194l79 194h107l-137 -286h-98zM659 186zM741 0z" />
<glyph unicode="&#x696;" horiz-adv-x="854" d="M-109 -236q64 0 173 17.5t194 57.5q114 53 171.5 129.5t57.5 185.5q0 59 -16 117.5t-36 102.5t-40 77.5t-33 52.5v12h193q6 -11 30 -65t42 -97q38 -88 86 -127t110 -39h31v-188h-76q-31 0 -69 9.5t-68 25.5q-37 -144 -130.5 -233.5t-207.5 -139.5q-104 -45 -212 -65.5 t-200 -20.5v188zM212 752v148h148v-148h-148zM480 752v148h148v-148h-148zM659 186zM741 0z" />
<glyph unicode="&#x696;" horiz-adv-x="854" d="M-109 -236q64 0 173 17.5t194 57.5q114 53 171.5 129.5t57.5 185.5q0 59 -16 117.5t-36 102.5t-40 77.5t-33 52.5v12h193q6 -11 30 -65t42 -97q38 -88 86 -127t110 -39h31v-188h-76q-31 0 -69 9.5t-68 25.5q-37 -144 -130.5 -233.5t-207.5 -139.5q-104 -45 -212 -65.5 t-200 -20.5v188zM197 0v148h148v-148h-148zM577 -212h148v-148h-148v148zM659 186zM741 0z" />
<glyph unicode="&#x699;" horiz-adv-x="2652" d="M92 92q0 100 12.5 198t14.5 111h182v-16q-11 -37 -27 -127.5t-16 -167.5q0 -155 88.5 -240.5t267.5 -85.5q207 0 314.5 109t107.5 326q0 84 -5 199.5t-7 146.5h178q0 -205 61.5 -284t186.5 -79q110 0 165.5 64.5t55.5 181.5v117h166v-150q0 -104 45 -158.5t115 -54.5 q112 0 161.5 65.5t49.5 211.5v258h166v-260q0 -139 52.5 -204t153.5 -65h74v-188h-119q-63 0 -138.5 36.5t-110.5 92.5q-48 -66 -118.5 -100.5t-172.5 -34.5q-77 0 -151.5 27t-110.5 73q-57 -47 -117 -73.5t-166 -26.5q-75 0 -143 19t-105 46q-15 -202 -180.5 -342.5 t-407.5 -140.5q-116 0 -214 29t-166 91t-105 161t-37 235zM1359 -171h148v-148h-148v148zM1359 801v148h148v-148h-148zM2478 0z" />
<glyph unicode="&#x699;" horiz-adv-x="854" d="M-109 -236q64 0 173 17.5t194 57.5q114 53 171.5 129.5t57.5 185.5q0 59 -16 117.5t-36 102.5t-40 77.5t-33 52.5v12h193q6 -11 30 -65t42 -97q38 -88 86 -127t110 -39h31v-188h-76q-31 0 -69 9.5t-68 25.5q-37 -144 -130.5 -233.5t-207.5 -139.5q-104 -45 -212 -65.5 t-200 -20.5v188zM212 752v148h148v-148h-148zM212 961v148h148v-148h-148zM480 752v148h148v-148h-148zM480 961v148h148v-148h-148zM659 186zM741 0z" />
<glyph unicode="&#x69e;" horiz-adv-x="1552" d="M-70 0v188h97q67 0 93.5 51t26.5 140v10h168v-10q0 -55 11 -99t36 -67q71 118 157.5 226.5t179.5 192.5q91 83 187 133t181 50q166 0 279.5 -112.5t113.5 -294.5q0 -84 -38.5 -158.5t-115.5 -129.5t-192 -87.5t-272 -32.5h-400q-64 0 -117 19.5t-94 62.5q-38 -42 -90 -62 t-118 -20h-93zM305 939v148h148v-148h-148zM453 1148v148h148v-148h-148zM549 188h174q86 0 204 9.5t185 29.5q101 31 141.5 72.5t40.5 103.5q0 92 -65.5 159t-163.5 67q-61 0 -133 -46.5t-148 -117.5q-67 -62 -131 -138.5t-104 -138.5zM601 939v148h148v-148h-148z" />
<glyph unicode="&#x69e;" horiz-adv-x="1571" d="M-70 0v188h97q67 0 93.5 51t26.5 140v10h168v-10q0 -58 11 -104t36 -68q72 120 158 228t179 194q89 82 187 134t181 52q161 0 277 -109.5t116 -297.5q0 -50 -15.5 -102.5t-45.5 -92.5q25 -13 47 -19t53 -6h72v-188h-117q-49 0 -109 21.5t-100 58.5q-51 -33 -159.5 -56.5 t-180.5 -23.5h-463q-64 0 -117 19.5t-94 62.5q-38 -42 -90 -62t-118 -20h-93zM305 939v148h148v-148h-148zM453 1148v148h148v-148h-148zM549 188h174q75 0 190 9.5t185 29.5q86 24 141 65t55 111q0 86 -62 156t-167 70q-61 0 -133 -46.5t-148 -117.5q-67 -62 -131 -138.5 t-104 -138.5zM601 939v148h148v-148h-148zM1552 0z" />
<glyph unicode="&#x69e;" horiz-adv-x="2384" d="M92 57q0 143 12 228.5t15 103.5h182v-16q-11 -45 -27 -140.5t-16 -177.5q0 -147 86.5 -219t228.5 -72q85 0 154 20t117 71q52 54 77 139.5t25 204.5q0 76 -4.5 124t-7.5 66h178v-12q0 -57 18 -107t46 -71q153 261 350.5 438.5t353.5 177.5q168 0 280.5 -114t112.5 -293 q0 -50 -15.5 -102.5t-45.5 -92.5q26 -13 47.5 -19t52.5 -6h72v-188h-117q-47 0 -105.5 19.5t-103.5 60.5q-50 -35 -146.5 -57.5t-166.5 -22.5h-639q-28 -194 -168 -309t-363 -115q-226 0 -354.5 128.5t-128.5 352.5zM1362 188h174q86 0 204.5 9.5t184.5 29.5 q105 32 143.5 75.5t38.5 100.5q0 92 -64 159t-165 67q-61 0 -133 -46.5t-148 -117.5q-67 -62 -131 -138.5t-104 -138.5zM1480 1063v148h148v-148h-148zM1628 1272v148h148v-148h-148zM1776 1063v148h148v-148h-148zM2365 0z" />
<glyph unicode="&#x69f;" horiz-adv-x="1200" d="M92 43q0 65 22.5 126t68.5 111q40 46 94 79t108 57l-37 33q-108 96 -148 162.5t-40 127.5q0 60 39 104.5t98 74.5q54 28 130 43.5t134 15.5q63 0 133 -14t130 -43q61 -30 100 -75t39 -110q0 -72 -31 -129t-75 -97t-97 -70t-96 -48l-33 -14l49 -43q72 -64 152.5 -105 t185.5 -41h182v-188h-186q-63 0 -121 19.5t-115 55.5q-51 32 -107.5 80t-107.5 95l-67 61q-106 -49 -172 -113.5t-66 -154.5q0 -126 107.5 -203.5t293.5 -77.5q114 0 247.5 40t201.5 89h10v-213q-74 -45 -207.5 -73.5t-248.5 -28.5q-252 0 -411 127.5t-159 339.5zM330 694 q0 -24 45 -75t104 -103l45 -39l23 8q134 55 190 101.5t56 105.5q0 43 -53 68.5t-179 25.5q-120 0 -175.5 -26.5t-55.5 -65.5zM331 1196v148h148v-148h-148zM479 1405v148h148v-148h-148zM627 1196v148h148v-148h-148z" />
<glyph unicode="&#x69f;" horiz-adv-x="1442" d="M-70 0v188h242q4 0 15.5 9t24.5 23q15 16 25.5 29t10.5 27v1280h166v-1079q118 142 260 240t260 98q162 0 278.5 -110.5t116.5 -296.5q0 -63 -20.5 -117.5t-40.5 -77.5q25 -13 47 -19t53 -6h74v-188h-119q-52 0 -109.5 20.5t-97.5 59.5q-59 -34 -129 -57t-174 -23h-883z M416 188h174q86 0 204 9.5t185 29.5q100 31 141 73.5t41 102.5q0 86 -62 156t-167 70q-61 0 -133 -46.5t-148 -117.5q-67 -62 -131 -138.5t-104 -138.5zM528 1063v148h148v-148h-148zM676 1272v148h148v-148h-148zM824 1063v148h148v-148h-148zM1380 0z" />
<glyph unicode="&#x6a6;" horiz-adv-x="573" arabic-form="initial" d="M-70 0v188h136q102 0 155 73t53 204v252h166v-264q0 -213 -101 -333t-278 -120h-131z" />
<glyph unicode="&#x6a6;" horiz-adv-x="622" arabic-form="medial" d="M103 0v148h148v-148h-148zM371 0v148h148v-148h-148z" />
<glyph unicode="&#x6a8;" horiz-adv-x="2222" d="M92 502q0 62 21 198h172v-10q-27 -99 -27 -176q0 -326 561 -326h741q81 0 130 21q43 19 43 45q0 54 -160 72l-773 86q-86 10 -146 59q-73 60 -73 160q0 109 217 239l504 301v-197l-422 -250q-108 -64 -108 -108q0 -52 112 -64l764 -83q100 -11 176 -56q94 -57 111 -150 q5 -30 54.5 -52.5t110.5 -22.5h122v-188h-118q-137 0 -238 73q-109 -73 -368 -73h-679q-727 0 -727 502z" />
<glyph unicode="&#x6a8;" horiz-adv-x="1821" d="M92 78q0 100 7.5 147.5t9.5 57.5h163v-11q-3 -18 -8.5 -75t-5.5 -107q0 -69 29.5 -129t96.5 -103q73 -48 184 -71t259 -23q365 0 520 55.5t175 180.5h-58q-81 0 -163.5 16.5t-148.5 55.5t-107 103.5t-41 160.5q0 145 98.5 260t218.5 115q146 0 249 -150.5t118 -372.5h133 v-188h-125q-18 -132 -85 -215.5t-181 -130.5q-112 -45 -262 -61.5t-343 -16.5q-368 0 -550.5 130t-182.5 372zM1053 969v148h148v-148h-148zM1176 342q0 -52 38 -83t90 -46q53 -15 107.5 -20t101.5 -5q-14 156 -65.5 245t-114.5 89q-72 0 -114.5 -56t-42.5 -124zM1201 1178 v148h148v-148h-148zM1349 969v148h148v-148h-148z" />
<glyph unicode="&#x6b9;" horiz-adv-x="573" d="M-70 0v188h136q102 0 155 73t53 204v252h166v-264q0 -213 -101 -333t-278 -120h-131zM277 -171h148v-148h-148v148zM277 968v148h148v-148h-148z" />
<glyph unicode="&#x6b9;" horiz-adv-x="719" d="M-70 0v188h142q90 0 146 62t56 176v121h168v-121q0 -108 56.5 -173t148.5 -65h72v-188h-117q-62 0 -136.5 33t-107.5 90q-35 -59 -105 -91t-136 -32h-187zM277 -171h148v-148h-148v148zM277 813v148h148v-148h-148z" />
<glyph unicode="&#x6b9;" horiz-adv-x="1542" d="M92 292q0 66 27 309h182v-16q-43 -141 -43 -295q0 -165 132 -252q112 -74 286 -74q169 0 286 77q136 89 136 249q0 128 -31 293v18h199q0 -207 39 -300q46 -113 165 -113h95v-188h-140q-47 0 -104 26q-65 30 -85 71q-30 -94 -177 -197q-178 -124 -379 -124 q-276 0 -427 123q-161 131 -161 393zM606 -275h148v-148h-148v148zM606 789v148h148v-148h-148z" />
<glyph unicode="&#x6bc;" horiz-adv-x="573" d="M-70 0v188h136q102 0 155 73t53 204v252h166v-264q0 -213 -101 -333t-278 -120h-131zM0 -80q0 77 55.5 132.5t132.5 55.5q78 0 133.5 -55t55.5 -133q0 -79 -56 -134t-133 -55q-78 0 -133 55.5t-55 133.5zM92 -81q0 -38 29 -66t67 -28q39 0 68 28t29 66q0 40 -28 68 t-69 28q-40 0 -68 -28t-28 -68zM277 968v148h148v-148h-148z" />
<glyph unicode="&#x6bc;" horiz-adv-x="719" d="M-70 0v188h142q90 0 146 62t56 176v121h168v-121q0 -108 56.5 -173t148.5 -65h72v-188h-117q-62 0 -136.5 33t-107.5 90q-35 -59 -105 -91t-136 -32h-187zM0 -90q0 77 55.5 132.5t132.5 55.5q78 0 133.5 -55t55.5 -133q0 -79 -56 -134t-133 -55q-78 0 -133 55.5 t-55 133.5zM92 -91q0 -38 29 -66t67 -28q39 0 68 28t29 66q0 40 -28 68t-69 28q-40 0 -68 -28t-28 -68zM277 813v148h148v-148h-148z" />
<glyph unicode="&#x6bc;" horiz-adv-x="1542" d="M92 471q0 66 27 309h182v-16q-43 -141 -43 -295q0 -165 132 -252q112 -74 286 -74q169 0 286 77q136 89 136 249q0 128 -31 293v18h199q0 -309 26 -417q41 -175 178 -175h72v-188h-117q-72 0 -143 60q-65 55 -92 126q-48 -82 -160 -146q-151 -85 -350 -85 q-276 0 -427 123q-161 131 -161 393zM493 -141q0 78 55 133t133 55q79 0 134 -55t55 -133q0 -79 -55 -134t-134 -55t-133.5 55t-54.5 134zM585 -142q0 -38 29 -66t67 -28q39 0 68 27.5t29 66.5q0 41 -28 68.5t-69 27.5q-40 0 -68 -28t-28 -68zM606 968v148h148v-148h-148z " />
<glyph unicode="&#x6bd;" horiz-adv-x="1542" d="M92 92q0 100 12 191t15 118h182v-16q-11 -36 -27 -128.5t-16 -166.5q0 -154 116 -240t302 -86q181 0 301.5 88t120.5 238q0 114 -14 195.5t-17 97.5v18h199q0 -91 61 -152t143 -61h72v-188h-117q-37 0 -82 13t-81 38q0 -216 -156 -345.5t-426 -129.5q-124 0 -233.5 28.5 t-186.5 88.5q-79 62 -123.5 160t-44.5 239zM489 569v148h148v-148h-148zM637 778v148h148v-148h-148zM785 569v148h148v-148h-148zM1356 0z" />
<glyph unicode="&#x6bf;" horiz-adv-x="1434" d="M80 113q0 118 56 223t179 188q101 68 229 104.5t253 43.5q-122 57 -238 78.5t-278 21.5h-76v186h88q162 0 368 -64.5t386 -176.5h170v-156h-56v-155q0 -56 5.5 -91t25.5 -67q19 -29 50.5 -44.5t88.5 -15.5h103v-188h-99q-163 0 -233 73t-70 242v246q-182 -3 -329 -31.5 t-247 -81.5q-102 -54 -156 -138t-54 -199q0 -158 114.5 -254.5t294.5 -96.5q136 0 245 31.5t190 83.5h10v-201q-88 -45 -185 -71.5t-258 -26.5q-122 0 -227 35.5t-183 104.5t-122.5 169t-44.5 228zM439 132v148h148v-148h-148zM587 71h148v-148h-148v148zM668 1120v148h148 v-148h-148zM735 132v148h148v-148h-148zM1120 717zM1247 0z" />
<glyph unicode="&#x6c4;" horiz-adv-x="909" d="M-140 -132q0 77 55.5 132.5t132.5 55.5q78 0 133.5 -55t55.5 -133q0 -79 -56 -134t-133 -55q-78 0 -133 55.5t-55 133.5zM-119 -236q75 0 182 8t195 31q117 32 188 81t107 120q-147 12 -240.5 57t-149.5 110q-54 62 -74.5 132t-20.5 127q0 150 97.5 262.5t219.5 112.5 q166 0 270.5 -173t104.5 -444h149v-188h-176q-44 -137 -143.5 -223t-239.5 -133q-127 -43 -252 -55.5t-217 -12.5v188zM-48 -133q0 -38 29 -66t67 -28q39 0 68 28t29 66q0 40 -28 68t-69 28q-40 0 -68 -28t-28 -68zM240 436q0 -29 10 -66t49 -76q36 -37 105.5 -67t183.5 -37 q-5 200 -58 313t-133 113q-69 0 -113 -56.5t-44 -123.5zM854 0z" />
<glyph unicode="&#x6ca;" horiz-adv-x="909" d="M-119 -236q75 0 182 8t195 31q117 32 188 81t107 120q-147 12 -240.5 57t-149.5 110q-54 62 -74.5 132t-20.5 127q0 150 97.5 262.5t219.5 112.5q166 0 270.5 -173t104.5 -444h149v-188h-176q-44 -137 -143.5 -223t-239.5 -133q-127 -43 -252 -55.5t-217 -12.5v188z M203 971v148h148v-148h-148zM240 436q0 -29 10 -66t49 -76q36 -37 105.5 -67t183.5 -37q-5 200 -58 313t-133 113q-69 0 -113 -56.5t-44 -123.5zM471 971v148h148v-148h-148zM854 0z" />
<glyph unicode="&#x6cd;" horiz-adv-x="2148" d="M0 139v96l432 132v-11q-27 -144 -27 -235q0 -139 101 -199.5t329 -60.5q291 0 447.5 54t156.5 171q0 49 -147.5 160.5t-147.5 214.5q0 119 104 202q97 78 218 78q117 0 213 -86q62 -56 148 -191q43 -70 135 -190q81 -86 174 -86h12v-188h-8q-131 0 -232 86 q-72 61 -153 190l-63 101q-71 112 -139 153q-39 23 -87 23q-53 0 -98 -20q-58 -27 -58 -74q0 -30 54 -75l94 -78q147 -122 147 -212q0 -205 -193.5 -313.5t-578.5 -108.5q-295 0 -444.5 107.5t-149.5 339.5q0 38 7 91z" />
<glyph unicode="&#x6ce;" horiz-adv-x="2042" d="M92 119q0 79 9.5 155t11.5 93h172v-11q-3 -16 -15 -97t-12 -138q0 -139 101 -199.5t350 -60.5q311 0 467.5 54t156.5 171q0 41 -50 82.5t-97 77.5q-83 62 -115.5 112.5t-32.5 102.5q0 102 92 191t230 89q66 0 118.5 -24t94.5 -62q39 -35 79 -90t69 -101q27 -42 66 -100 t69 -90q39 -41 78.5 -63.5t95.5 -22.5h12v-188h-8q-73 0 -129 23t-103 63q-48 41 -85 91t-68 99q-27 43 -63 100.5t-65 90.5q-34 39 -73.5 62.5t-87.5 23.5q-77 0 -116.5 -31t-39.5 -63q0 -30 54.5 -75.5t93.5 -77.5q71 -59 109 -110.5t38 -101.5q0 -205 -193.5 -313.5 t-598.5 -108.5q-316 0 -465.5 107.5t-149.5 339.5zM329 1003h107l79 -194l79 194h107l-137 -286h-98z" />
<glyph unicode="&#x6eb;" horiz-adv-x="2652" d="M92 92q0 100 12.5 198t14.5 111h182v-16q-11 -37 -27 -127.5t-16 -167.5q0 -155 88.5 -240.5t267.5 -85.5q207 0 314.5 109t107.5 326q0 84 -5 199.5t-7 146.5h178q0 -205 61.5 -284t186.5 -79q110 0 165.5 64.5t55.5 181.5v117h166v-150q0 -104 45 -158.5t115 -54.5 q112 0 161.5 65.5t49.5 211.5v258h166v-260q0 -139 52.5 -204t153.5 -65h74v-188h-119q-63 0 -138.5 36.5t-110.5 92.5q-48 -66 -118.5 -100.5t-172.5 -34.5q-77 0 -151.5 27t-110.5 73q-57 -47 -117 -73.5t-166 -26.5q-75 0 -143 19t-105 46q-15 -202 -180.5 -342.5 t-407.5 -140.5q-116 0 -214 29t-166 91t-105 161t-37 235zM1523 801v148h148v-148h-148zM1671 -171h148v-148h-148v148zM1671 1010v148h148v-148h-148zM1819 801v148h148v-148h-148zM2478 0z" />
<glyph unicode="&#x6fc;" horiz-adv-x="1200" d="M92 43q0 65 22.5 126t68.5 111q40 46 94 79t108 57l-37 33q-108 96 -148 162.5t-40 127.5q0 60 39 104.5t98 74.5q54 28 130 43.5t134 15.5q63 0 133 -14t130 -43q61 -30 100 -75t39 -110q0 -72 -31 -129t-75 -97t-97 -70t-96 -48l-33 -14l49 -43q72 -64 152.5 -105 t185.5 -41h182v-188h-186q-63 0 -121 19.5t-115 55.5q-51 32 -107.5 80t-107.5 95l-67 61q-106 -49 -172 -113.5t-66 -154.5q0 -126 107.5 -203.5t293.5 -77.5q114 0 247.5 40t201.5 89h10v-213q-74 -45 -207.5 -73.5t-248.5 -28.5q-252 0 -411 127.5t-159 339.5zM330 694 q0 -24 45 -75t104 -103l45 -39l23 8q134 55 190 101.5t56 105.5q0 43 -53 68.5t-179 25.5q-120 0 -175.5 -26.5t-55.5 -65.5zM437 -40v148h148v-148h-148zM479 1196v148h148v-148h-148z" />
<glyph unicode="&#x671;" horiz-adv-x="606" arabic-form="final" d="M13 1641v101q50 28 105 28q41 0 57 -1q0 61 30 120q46 90 143 90q69 0 109.5 -44.5t40.5 -117.5q0 -158 -165 -158q-28 0 -94 8t-99 8q-74 0 -127 -34zM164 453v1103h166v-1091q0 -55 9 -102t34 -87q25 -41 62.5 -64.5t103.5 -23.5h67v-188h-63q-185 0 -282 125.5 t-97 327.5zM259 1754q53 -7 65 -7q84 0 84 70q0 67 -60 67q-45 0 -69 -45q-20 -36 -20 -85zM494 0z" />
<glyph unicode="&#x67b;" horiz-adv-x="1919" arabic-form="final" d="M92 502q0 73 8.5 126t12.5 72h172v-10q-4 -15 -15.5 -75.5t-11.5 -100.5q0 -69 29.5 -129t96.5 -103q73 -48 184 -71t259 -23h241h136q140 0 205.5 59t65.5 179q0 27 -5.5 60t-7.5 46v15h170q3 -18 6.5 -65.5t3.5 -63.5q0 -96 52 -163t153 -67h72v-188h-117 q-62 0 -136 33t-107 90q-42 -58 -121 -90.5t-189 -32.5h-424q-368 0 -550.5 130t-182.5 372zM824 -66h148v-148h-148v148zM824 -275h148v-148h-148v148z" />
<glyph unicode="&#x67b;" horiz-adv-x="573" arabic-form="initial" d="M-70 0v188h136q102 0 155 73t53 204v252h166v-264q0 -213 -101 -333t-278 -120h-131zM154 -66h148v-148h-148v148zM154 -275h148v-148h-148v148z" />
<glyph unicode="&#x67b;" horiz-adv-x="719" arabic-form="medial" d="M-70 0v188h142q90 0 146 62t56 176v121h168v-121q0 -108 56.5 -173t148.5 -65h72v-188h-117q-62 0 -136.5 33t-107.5 90q-35 -59 -105 -91t-136 -32h-187zM277 -66h148v-148h-148v148zM277 -275h148v-148h-148v148z" />
<glyph unicode="&#x67e;" horiz-adv-x="1919" arabic-form="final" d="M92 502q0 73 8.5 126t12.5 72h172v-10q-4 -15 -15.5 -75.5t-11.5 -100.5q0 -69 29.5 -129t96.5 -103q73 -48 184 -71t259 -23h241h136q140 0 205.5 59t65.5 179q0 27 -5.5 60t-7.5 46v15h170q3 -18 6.5 -65.5t3.5 -63.5q0 -96 52 -163t153 -67h72v-188h-117 q-62 0 -136 33t-107 90q-42 -58 -121 -90.5t-189 -32.5h-424q-368 0 -550.5 130t-182.5 372zM727 -66h148v-148h-148v148zM875 -275h148v-148h-148v148zM1023 -66h148v-148h-148v148z" />
<glyph unicode="&#x67e;" horiz-adv-x="573" arabic-form="initial" d="M-70 0v188h136q102 0 155 73t53 204v252h166v-264q0 -213 -101 -333t-278 -120h-131zM-23 -66h148v-148h-148v148zM125 -275h148v-148h-148v148zM273 -66h148v-148h-148v148z" />
<glyph unicode="&#x67e;" horiz-adv-x="719" arabic-form="medial" d="M-70 0v188h142q90 0 146 62t56 176v121h168v-121q0 -108 56.5 -173t148.5 -65h72v-188h-117q-62 0 -136.5 33t-107.5 90q-35 -59 -105 -91t-136 -32h-187zM89 -66h148v-148h-148v148zM237 -275h148v-148h-148v148zM385 -66h148v-148h-148v148z" />
<glyph unicode="&#x680;" horiz-adv-x="1919" arabic-form="final" d="M92 502q0 73 8.5 126t12.5 72h172v-10q-4 -15 -15.5 -75.5t-11.5 -100.5q0 -69 29.5 -129t96.5 -103q73 -48 184 -71t259 -23h241h136q140 0 205.5 59t65.5 179q0 27 -5.5 60t-7.5 46v15h170q3 -18 6.5 -65.5t3.5 -63.5q0 -96 52 -163t153 -67h72v-188h-117 q-62 0 -136 33t-107 90q-42 -58 -121 -90.5t-189 -32.5h-424q-368 0 -550.5 130t-182.5 372zM690 -66h148v-148h-148v148zM690 -275h148v-148h-148v148zM958 -66h148v-148h-148v148zM958 -275h148v-148h-148v148z" />
<glyph unicode="&#x680;" horiz-adv-x="573" arabic-form="initial" d="M-70 0v188h136q102 0 155 73t53 204v252h166v-264q0 -213 -101 -333t-278 -120h-131zM20 -66h148v-148h-148v148zM20 -275h148v-148h-148v148zM288 -66h148v-148h-148v148zM288 -275h148v-148h-148v148z" />
<glyph unicode="&#x680;" horiz-adv-x="719" arabic-form="medial" d="M-70 0v188h142q90 0 146 62t56 176v121h168v-121q0 -108 56.5 -173t148.5 -65h72v-188h-117q-62 0 -136.5 33t-107.5 90q-35 -59 -105 -91t-136 -32h-187zM143 -66h148v-148h-148v148zM143 -275h148v-148h-148v148zM411 -66h148v-148h-148v148zM411 -275h148v-148h-148 v148z" />
<glyph unicode="&#x67a;" horiz-adv-x="1919" arabic-form="final" d="M92 502q0 73 8.5 126t12.5 72h172v-10q-4 -15 -15.5 -75.5t-11.5 -100.5q0 -69 29.5 -129t96.5 -103q73 -48 184 -71t259 -23h241h136q140 0 205.5 59t65.5 179q0 27 -5.5 60t-7.5 46v15h170q3 -18 6.5 -65.5t3.5 -63.5q0 -96 52 -163t153 -67h72v-188h-117 q-62 0 -136 33t-107 90q-42 -58 -121 -90.5t-189 -32.5h-424q-368 0 -550.5 130t-182.5 372zM824 815v148h148v-148h-148zM824 1024v148h148v-148h-148z" />
<glyph unicode="&#x67a;" horiz-adv-x="573" arabic-form="initial" d="M-70 0v188h136q102 0 155 73t53 204v252h166v-264q0 -213 -101 -333t-278 -120h-131zM277 970v148h148v-148h-148zM277 1179v148h148v-148h-148z" />
<glyph unicode="&#x67a;" horiz-adv-x="719" arabic-form="medial" d="M-70 0v188h142q90 0 146 62t56 176v121h168v-121q0 -108 56.5 -173t148.5 -65h72v-188h-117q-62 0 -136.5 33t-107.5 90q-35 -59 -105 -91t-136 -32h-187zM277 815v148h148v-148h-148zM277 1024v148h148v-148h-148z" />
<glyph unicode="&#x67f;" horiz-adv-x="1919" arabic-form="final" d="M92 502q0 73 8.5 126t12.5 72h172v-10q-4 -15 -15.5 -75.5t-11.5 -100.5q0 -69 29.5 -129t96.5 -103q73 -48 184 -71t259 -23h241h136q140 0 205.5 59t65.5 179q0 27 -5.5 60t-7.5 46v15h170q3 -18 6.5 -65.5t3.5 -63.5q0 -96 52 -163t153 -67h72v-188h-117 q-62 0 -136 33t-107 90q-42 -58 -121 -90.5t-189 -32.5h-424q-368 0 -550.5 130t-182.5 372zM690 815v148h148v-148h-148zM690 1024v148h148v-148h-148zM958 815v148h148v-148h-148zM958 1024v148h148v-148h-148z" />
<glyph unicode="&#x67f;" horiz-adv-x="573" arabic-form="initial" d="M-70 0v188h136q102 0 155 73t53 204v252h166v-264q0 -213 -101 -333t-278 -120h-131zM143 970v148h148v-148h-148zM143 1179v148h148v-148h-148zM411 970v148h148v-148h-148zM411 1179v148h148v-148h-148z" />
<glyph unicode="&#x67f;" horiz-adv-x="719" arabic-form="medial" d="M-70 0v188h142q90 0 146 62t56 176v121h168v-121q0 -108 56.5 -173t148.5 -65h72v-188h-117q-62 0 -136.5 33t-107.5 90q-35 -59 -105 -91t-136 -32h-187zM143 815v148h148v-148h-148zM143 1024v148h148v-148h-148zM411 815v148h148v-148h-148zM411 1024v148h148v-148 h-148z" />
<glyph unicode="&#x679;" horiz-adv-x="1919" arabic-form="final" d="M92 502q0 73 8.5 126t12.5 72h172v-10q-4 -15 -15.5 -75.5t-11.5 -100.5q0 -69 29.5 -129t96.5 -103q73 -48 184 -71t259 -23h241h136q140 0 205.5 59t65.5 179q0 27 -5.5 60t-7.5 46v15h170q3 -18 6.5 -65.5t3.5 -63.5q0 -96 52 -163t153 -67h72v-188h-117 q-62 0 -136 33t-107 90q-42 -58 -121 -90.5t-189 -32.5h-424q-368 0 -550.5 130t-182.5 372zM656 815v92h82q21 16 21 24v500h83v-397q104 113 190 113q71 0 116 -47t45 -119q0 -89 -88 -133q-67 -33 -160 -33h-289zM852 907h48q209 0 209 72q0 32 -22.5 54.5t-55.5 22.5 q-72 0 -179 -149z" />
<glyph unicode="&#x679;" horiz-adv-x="573" arabic-form="initial" d="M-70 0v188h136q102 0 155 73t53 204v252h166v-264q0 -213 -101 -333t-278 -120h-131zM44 815v92h82q21 16 21 24v500h83v-397q104 113 190 113q71 0 116 -47t45 -119q0 -89 -88 -133q-67 -33 -160 -33h-289zM240 907h48q209 0 209 72q0 32 -22.5 54.5t-55.5 22.5 q-72 0 -179 -149z" />
<glyph unicode="&#x679;" horiz-adv-x="719" arabic-form="medial" d="M-70 0v188h142q90 0 146 62t56 176v121h168v-121q0 -108 56.5 -173t148.5 -65h72v-188h-117q-62 0 -136.5 33t-107.5 90q-35 -59 -105 -91t-136 -32h-187zM84 815v92h82q21 16 21 24v500h83v-397q104 113 190 113q71 0 116 -47t45 -119q0 -89 -88 -133q-67 -33 -160 -33 h-289zM280 907h48q209 0 209 72q0 32 -22.5 54.5t-55.5 22.5q-72 0 -179 -149z" />
<glyph unicode="&#x6a4;" horiz-adv-x="1855" arabic-form="final" d="M92 502q0 92 8 142t9 56h163v-10q-2 -10 -8 -65t-6 -111q0 -71 28.5 -129.5t95.5 -102.5q72 -48 182.5 -71t256.5 -23h160q78 0 126.5 11t61.5 14q-8 5 -30.5 19t-53.5 47q-32 33 -58 83t-26 113q0 152 91 255.5t237 103.5q140 0 236 -103t96 -254q0 -63 -24.5 -115 t-56.5 -85q-31 -33 -53.5 -48t-27.5 -18q17 -6 70 -14.5t119 -8.5h167v-188h-163q-95 0 -188 26.5t-169 63.5q-83 -39 -164.5 -64.5t-193.5 -25.5h-156q-365 0 -547 130t-182 372zM1107 1024v148h148v-148h-148zM1167 475q0 -38 26.5 -72.5t56.5 -59.5q33 -27 54.5 -39.5 t28.5 -16.5q6 3 29 16.5t52 38.5q34 29 57.5 58.5t23.5 74.5q0 64 -46 116t-120 52q-67 0 -114.5 -49.5t-47.5 -118.5zM1255 1233v148h148v-148h-148zM1403 1024v148h148v-148h-148z" />
<glyph unicode="&#x6a4;" horiz-adv-x="840" arabic-form="initial" d="M-70 0v188h246q68 0 140 18t129 53q64 39 98.5 91.5t34.5 116.5q-26 -15 -72 -28t-84 -13q-89 0 -157.5 25t-116.5 72q-46 45 -68.5 101.5t-22.5 118.5q0 143 98.5 259t219.5 116q73 0 141 -39t119 -113q53 -78 84 -193t31 -263q0 -127 -54.5 -225t-138.5 -159 q-84 -63 -185 -94.5t-198 -31.5h-244zM106 1281v148h148v-148h-148zM229 750q0 -59 55 -97.5t146 -38.5q36 0 71.5 10.5t63.5 28.5q0 28 -12 74.5t-37 94.5q-26 50 -58.5 79t-70.5 29q-64 0 -111 -54t-47 -126zM254 1490v148h148v-148h-148zM402 1281v148h148v-148h-148z " />
<glyph unicode="&#x6a4;" horiz-adv-x="1032" arabic-form="medial" d="M-70 0v188h228q78 0 127.5 11.5t60.5 13.5q-7 4 -30 18.5t-54 47.5q-32 33 -58 83t-26 113q0 153 91.5 256t236.5 103q138 0 235 -102t97 -255q0 -63 -24.5 -115t-56.5 -85q-31 -33 -52 -47.5t-29 -18.5q18 -7 75.5 -15t112.5 -8h168v-188h-164q-95 0 -188 26.5 t-168 63.5q-83 -39 -164.5 -64.5t-193.5 -25.5h-224zM271 1022v148h148v-148h-148zM344 475q0 -38 26.5 -72.5t56.5 -59.5q33 -27 54 -39.5t29 -16.5q9 5 30.5 17.5t50.5 37.5q34 29 57.5 58.5t23.5 74.5q0 64 -46 116t-120 52q-69 0 -115.5 -50.5t-46.5 -117.5zM419 1231 v148h148v-148h-148zM567 1022v148h148v-148h-148z" />
<glyph unicode="&#x6a6;" horiz-adv-x="1855" arabic-form="final" d="M92 502q0 92 8 142t9 56h163v-10q-2 -10 -8 -65t-6 -111q0 -71 28.5 -129.5t95.5 -102.5q72 -48 182.5 -71t256.5 -23h160q78 0 126.5 11t61.5 14q-8 5 -30.5 19t-53.5 47q-32 33 -58 83t-26 113q0 152 91 255.5t237 103.5q140 0 236 -103t96 -254q0 -63 -24.5 -115 t-56.5 -85q-31 -33 -53.5 -48t-27.5 -18q17 -6 70 -14.5t119 -8.5h167v-188h-163q-95 0 -188 26.5t-169 63.5q-83 -39 -164.5 -64.5t-193.5 -25.5h-156q-365 0 -547 130t-182 372zM1117 1024v148h148v-148h-148zM1117 1233v148h148v-148h-148zM1167 475q0 -38 26.5 -72.5 t56.5 -59.5q33 -27 54.5 -39.5t28.5 -16.5q6 3 29 16.5t52 38.5q34 29 57.5 58.5t23.5 74.5q0 64 -46 116t-120 52q-67 0 -114.5 -49.5t-47.5 -118.5zM1385 1024v148h148v-148h-148zM1385 1233v148h148v-148h-148z" />
<glyph unicode="&#x6a6;" horiz-adv-x="840" arabic-form="initial" d="M-70 0v188h246q68 0 140 18t129 53q64 39 98.5 91.5t34.5 116.5q-26 -15 -72 -28t-84 -13q-89 0 -157.5 25t-116.5 72q-46 45 -68.5 101.5t-22.5 118.5q0 143 98.5 259t219.5 116q73 0 141 -39t119 -113q53 -78 84 -193t31 -263q0 -127 -54.5 -225t-138.5 -159 q-84 -63 -185 -94.5t-198 -31.5h-244zM104 1281v148h148v-148h-148zM104 1490v148h148v-148h-148zM229 750q0 -59 55 -97.5t146 -38.5q36 0 71.5 10.5t63.5 28.5q0 28 -12 74.5t-37 94.5q-26 50 -58.5 79t-70.5 29q-64 0 -111 -54t-47 -126zM372 1281v148h148v-148h-148z M372 1490v148h148v-148h-148z" />
<glyph unicode="&#x6a6;" horiz-adv-x="1032" arabic-form="medial" d="M-70 0v188h228q78 0 127.5 11.5t60.5 13.5q-7 4 -30 18.5t-54 47.5q-32 33 -58 83t-26 113q0 153 91.5 256t236.5 103q138 0 235 -102t97 -255q0 -63 -24.5 -115t-56.5 -85q-31 -33 -52 -47.5t-29 -18.5q18 -7 75.5 -15t112.5 -8h168v-188h-164q-95 0 -188 26.5 t-168 63.5q-83 -39 -164.5 -64.5t-193.5 -25.5h-224zM308 1024v148h148v-148h-148zM308 1233v148h148v-148h-148zM344 475q0 -38 26.5 -72.5t56.5 -59.5q33 -27 54 -39.5t29 -16.5q9 5 30.5 17.5t50.5 37.5q34 29 57.5 58.5t23.5 74.5q0 64 -46 116t-120 52 q-69 0 -115.5 -50.5t-46.5 -117.5zM576 1024v148h148v-148h-148zM576 1233v148h148v-148h-148z" />
<glyph unicode="&#x684;" horiz-adv-x="1434" arabic-form="final" d="M80 113q0 118 56 223t179 188q101 68 229 104.5t253 43.5q-122 57 -238 78.5t-278 21.5h-76v186h88q162 0 368 -64.5t386 -176.5h170v-156h-56v-155q0 -56 5.5 -91t25.5 -67q19 -29 50.5 -44.5t88.5 -15.5h103v-188h-99q-163 0 -233 73t-70 242v246q-182 -3 -329 -31.5 t-247 -81.5q-102 -54 -156 -138t-54 -199q0 -158 114.5 -254.5t294.5 -96.5q136 0 245 31.5t190 83.5h10v-201q-88 -45 -185 -71.5t-258 -26.5q-122 0 -227 35.5t-183 104.5t-122.5 169t-44.5 228zM610 -20v148h148v-148h-148zM610 189v148h148v-148h-148zM1120 717zM1247 0 z" />
<glyph unicode="&#x684;" horiz-adv-x="1350" arabic-form="initial" d="M-70 0v188h158q139 0 389 85.5t428 177.5q-87 60 -275 119t-388 59h-117v186h127q184 0 403 -70t424 -198l201 102v-188q-247 -148 -633.5 -304.5t-562.5 -156.5h-154zM868 -66h148v-148h-148v148zM868 -275h148v-148h-148v148z" />
<glyph unicode="&#x684;" horiz-adv-x="1393" arabic-form="medial" d="M-70 0v188h158q139 0 389 85.5t428 177.5q-87 60 -275 119t-388 59h-117v186h127q184 0 403 -70t424 -198l201 102v-188q-68 -40 -154 -85.5t-180 -88.5q23 -44 67 -71.5t124 -27.5h256v-188h-252q-140 0 -230.5 52.5t-119.5 164.5q-220 -97 -410.5 -157t-296.5 -60h-154 zM590 -66h148v-148h-148v148zM590 -275h148v-148h-148v148zM1350 0z" />
<glyph unicode="&#x683;" horiz-adv-x="1434" arabic-form="final" d="M80 113q0 118 56 223t179 188q101 68 229 104.5t253 43.5q-122 57 -238 78.5t-278 21.5h-76v186h88q162 0 368 -64.5t386 -176.5h170v-156h-56v-155q0 -56 5.5 -91t25.5 -67q19 -29 50.5 -44.5t88.5 -15.5h103v-188h-99q-163 0 -233 73t-70 242v246q-182 -3 -329 -31.5 t-247 -81.5q-102 -54 -156 -138t-54 -199q0 -158 114.5 -254.5t294.5 -96.5q136 0 245 31.5t190 83.5h10v-201q-88 -45 -185 -71.5t-258 -26.5q-122 0 -227 35.5t-183 104.5t-122.5 169t-44.5 228zM476 66v148h148v-148h-148zM744 66v148h148v-148h-148zM1120 717zM1247 0z " />
<glyph unicode="&#x683;" horiz-adv-x="1350" arabic-form="initial" d="M-70 0v188h158q139 0 389 85.5t428 177.5q-87 60 -275 119t-388 59h-117v186h127q184 0 403 -70t424 -198l201 102v-188q-247 -148 -633.5 -304.5t-562.5 -156.5h-154zM734 -59h148v-148h-148v148zM1002 -59h148v-148h-148v148z" />
<glyph unicode="&#x683;" horiz-adv-x="1393" arabic-form="medial" d="M-70 0v188h158q139 0 389 85.5t428 177.5q-87 60 -275 119t-388 59h-117v186h127q184 0 403 -70t424 -198l201 102v-188q-68 -40 -154 -85.5t-180 -88.5q23 -44 67 -71.5t124 -27.5h256v-188h-252q-140 0 -230.5 52.5t-119.5 164.5q-220 -97 -410.5 -157t-296.5 -60h-154 zM456 -145h148v-148h-148v148zM724 -145h148v-148h-148v148zM1350 0z" />
<glyph unicode="&#x686;" horiz-adv-x="1434" arabic-form="final" d="M80 113q0 118 56 223t179 188q101 68 229 104.5t253 43.5q-122 57 -238 78.5t-278 21.5h-76v186h88q162 0 368 -64.5t386 -176.5h170v-156h-56v-155q0 -56 5.5 -91t25.5 -67q19 -29 50.5 -44.5t88.5 -15.5h103v-188h-99q-163 0 -233 73t-70 242v246q-182 -3 -329 -31.5 t-247 -81.5q-102 -54 -156 -138t-54 -199q0 -158 114.5 -254.5t294.5 -96.5q136 0 245 31.5t190 83.5h10v-201q-88 -45 -185 -71.5t-258 -26.5q-122 0 -227 35.5t-183 104.5t-122.5 169t-44.5 228zM439 132v148h148v-148h-148zM587 71h148v-148h-148v148zM735 132v148h148 v-148h-148zM1120 717zM1247 0z" />
<glyph unicode="&#x686;" horiz-adv-x="1350" arabic-form="initial" d="M-70 0v188h158q139 0 389 85.5t428 177.5q-87 60 -275 119t-388 59h-117v186h127q184 0 403 -70t424 -198l201 102v-188q-247 -148 -633.5 -304.5t-562.5 -156.5h-154zM725 0h148v-148h-148v148zM873 -209h148v-148h-148v148zM1021 0h148v-148h-148v148z" />
<glyph unicode="&#x686;" horiz-adv-x="1393" arabic-form="medial" d="M-70 0v188h158q139 0 389 85.5t428 177.5q-87 60 -275 119t-388 59h-117v186h127q184 0 403 -70t424 -198l201 102v-188q-68 -40 -154 -85.5t-180 -88.5q23 -44 67 -71.5t124 -27.5h256v-188h-252q-140 0 -230.5 52.5t-119.5 164.5q-220 -97 -410.5 -157t-296.5 -60h-154 zM395 -66h148v-148h-148v148zM543 -275h148v-148h-148v148zM691 -66h148v-148h-148v148zM1350 0z" />
<glyph unicode="&#x687;" horiz-adv-x="1434" arabic-form="final" d="M80 113q0 118 56 223t179 188q101 68 229 104.5t253 43.5q-122 57 -238 78.5t-278 21.5h-76v186h88q162 0 368 -64.5t386 -176.5h170v-156h-56v-155q0 -56 5.5 -91t25.5 -67q19 -29 50.5 -44.5t88.5 -15.5h103v-188h-99q-163 0 -233 73t-70 242v246q-182 -3 -329 -31.5 t-247 -81.5q-102 -54 -156 -138t-54 -199q0 -158 114.5 -254.5t294.5 -96.5q136 0 245 31.5t190 83.5h10v-201q-88 -45 -185 -71.5t-258 -26.5q-122 0 -227 35.5t-183 104.5t-122.5 169t-44.5 228zM476 -20v148h148v-148h-148zM476 189v148h148v-148h-148zM744 -20v148h148 v-148h-148zM744 189v148h148v-148h-148zM1120 717zM1247 0z" />
<glyph unicode="&#x687;" horiz-adv-x="1350" arabic-form="initial" d="M-70 0v188h158q139 0 389 85.5t428 177.5q-87 60 -275 119t-388 59h-117v186h127q184 0 403 -70t424 -198l201 102v-188q-247 -148 -633.5 -304.5t-562.5 -156.5h-154zM734 -66h148v-148h-148v148zM734 -275h148v-148h-148v148zM1002 -66h148v-148h-148v148zM1002 -275 h148v-148h-148v148z" />
<glyph unicode="&#x687;" horiz-adv-x="1393" arabic-form="medial" d="M-70 0v188h158q139 0 389 85.5t428 177.5q-87 60 -275 119t-388 59h-117v186h127q184 0 403 -70t424 -198l201 102v-188q-68 -40 -154 -85.5t-180 -88.5q23 -44 67 -71.5t124 -27.5h256v-188h-252q-140 0 -230.5 52.5t-119.5 164.5q-220 -97 -410.5 -157t-296.5 -60h-154 zM456 -66h148v-148h-148v148zM456 -275h148v-148h-148v148zM724 -66h148v-148h-148v148zM724 -275h148v-148h-148v148zM1350 0z" />
<glyph unicode="&#x68d;" horiz-adv-x="1118" arabic-form="final" d="M70 0v188h393q60 0 106 16t72 44q24 27 33.5 56t9.5 61q0 10 -4.5 32t-11.5 49l-156 527h195l135 -477q16 -57 37 -123t39 -99q23 -40 56 -63t85 -23h59v-188h-55q-100 0 -175.5 37.5t-121.5 105.5q-64 -71 -138.5 -107t-156.5 -36h-268h-133zM103 -171h148v-148h-148 v148zM371 -171h148v-148h-148v148z" />
<glyph unicode="&#x68c;" horiz-adv-x="1118" arabic-form="final" d="M70 0v188h393q60 0 106 16t72 44q24 27 33.5 56t9.5 61q0 10 -4.5 32t-11.5 49l-156 527h195l135 -477q16 -57 37 -123t39 -99q23 -40 56 -63t85 -23h59v-188h-55q-100 0 -175.5 37.5t-121.5 105.5q-64 -71 -138.5 -107t-156.5 -36h-268h-133zM360 1206v148h148v-148 h-148zM628 1206v148h148v-148h-148z" />
<glyph unicode="&#x68e;" horiz-adv-x="1118" arabic-form="final" d="M70 0v188h393q60 0 106 16t72 44q24 27 33.5 56t9.5 61q0 10 -4.5 32t-11.5 49l-156 527h195l135 -477q16 -57 37 -123t39 -99q23 -40 56 -63t85 -23h59v-188h-55q-100 0 -175.5 37.5t-121.5 105.5q-64 -71 -138.5 -107t-156.5 -36h-268h-133zM346 1206v148h148v-148 h-148zM494 1415v148h148v-148h-148zM642 1206v148h148v-148h-148z" />
<glyph unicode="&#x688;" horiz-adv-x="1118" arabic-form="final" d="M70 0v188h393q60 0 106 16t72 44q24 27 33.5 56t9.5 61q0 10 -4.5 32t-11.5 49l-156 527h195l135 -477q16 -57 37 -123t39 -99q23 -40 56 -63t85 -23h59v-188h-55q-100 0 -175.5 37.5t-121.5 105.5q-64 -71 -138.5 -107t-156.5 -36h-268h-133zM324 1115v92h82 q21 16 21 24v500h83v-397q104 113 190 113q71 0 116 -47t45 -119q0 -89 -88 -133q-67 -33 -160 -33h-289zM520 1207h48q209 0 209 72q0 32 -22.5 54.5t-55.5 22.5q-72 0 -179 -149z" />
<glyph unicode="&#x698;" horiz-adv-x="854" arabic-form="final" d="M-109 -236q64 0 173 17.5t194 57.5q114 53 171.5 129.5t57.5 185.5q0 59 -16 117.5t-36 102.5t-40 77.5t-33 52.5v12h193q6 -11 30 -65t42 -97q38 -88 86 -127t110 -39h31v-188h-76q-31 0 -69 9.5t-68 25.5q-37 -144 -130.5 -233.5t-207.5 -139.5q-104 -45 -212 -65.5 t-200 -20.5v188zM172 762v148h148v-148h-148zM320 971v148h148v-148h-148zM468 762v148h148v-148h-148zM659 186zM741 0z" />
<glyph unicode="&#x691;" horiz-adv-x="854" arabic-form="final" d="M-109 -236q64 0 173 17.5t194 57.5q114 53 171.5 129.5t57.5 185.5q0 59 -16 117.5t-36 102.5t-40 77.5t-33 52.5v12h193q6 -11 30 -65t42 -97q38 -88 86 -127t110 -39h31v-188h-76q-31 0 -69 9.5t-68 25.5q-37 -144 -130.5 -233.5t-207.5 -139.5q-104 -45 -212 -65.5 t-200 -20.5v188zM204 815v92h82q21 16 21 24v500h83v-397q104 113 190 113q71 0 116 -47t45 -119q0 -89 -88 -133q-67 -33 -160 -33h-289zM400 907h48q209 0 209 72q0 32 -22.5 54.5t-55.5 22.5q-72 0 -179 -149zM659 186zM741 0z" />
<glyph unicode="&#x6a9;" horiz-adv-x="1892" arabic-form="isolated" d="M92 502q0 78 9.5 131.5t11.5 66.5h172v-10q-6 -22 -16.5 -79t-10.5 -97q0 -71 28.5 -129.5t96.5 -102.5q67 -45 170.5 -69.5t265.5 -24.5h459q122 0 172.5 44.5t50.5 109.5q0 45 -41.5 104.5t-161.5 157.5l-274 225q-46 39 -80.5 79.5t-34.5 88.5q0 61 40.5 108.5 t180.5 115.5l642 309v-197l-560 -268q-32 -15 -72 -37.5t-40 -38.5q0 -18 42 -53.5t81 -67.5l266 -219q96 -79 137 -153.5t41 -151.5q0 -69 -23 -134t-68 -109q-51 -50 -125.5 -75.5t-170.5 -25.5h-461q-366 0 -546.5 130t-180.5 372z" />
<glyph unicode="&#x6a9;" horiz-adv-x="1982" arabic-form="final" d="M92 502q0 78 9.5 131.5t11.5 66.5h172v-10q-6 -22 -16.5 -79t-10.5 -97q0 -71 28.5 -129.5t96.5 -102.5q67 -45 170.5 -69.5t265.5 -24.5h461q113 0 168 41.5t55 112.5q0 43 -54.5 105.5t-168.5 156.5l-274 225q-47 39 -81 79.5t-34 88.5q0 64 53 116.5t168 107.5 l641 309v-197l-559 -268q-32 -15 -72.5 -37.5t-40.5 -38.5t37.5 -49t85.5 -72l266 -219q109 -89 154 -158.5t45 -146.5v-6.5v-7.5q0 -65 53.5 -103.5t137.5 -38.5h122v-188h-118q-79 0 -154 28.5t-125 80.5q-51 -56 -126.5 -82.5t-176.5 -26.5h-463q-366 0 -546.5 130 t-180.5 372zM1892 0z" />
<glyph unicode="&#x6a9;" horiz-adv-x="983" arabic-form="initial" d="M-70 0v188h439q111 0 167 40.5t56 113.5q0 45 -41.5 104.5t-161.5 157.5l-274 225q-47 39 -81 79.5t-34 88.5q0 70 56.5 121t164.5 103l641 309v-197l-559 -268q-32 -15 -72.5 -37.5t-40.5 -38.5t37.5 -49t85.5 -72l267 -219q96 -79 137 -153.5t41 -151.5q0 -69 -23 -134 t-68 -109q-51 -50 -125.5 -75.5t-170.5 -25.5h-441z" />
<glyph unicode="&#x6a9;" horiz-adv-x="1090" arabic-form="medial" d="M-70 0v188h459q112 0 167.5 40.5t55.5 113.5q0 43 -54 105.5t-169 156.5l-274 225q-47 39 -81 79.5t-34 88.5q0 73 61.5 125.5t159.5 98.5l641 309v-197l-559 -268q-32 -15 -72.5 -37.5t-40.5 -38.5t37.5 -49t85.5 -72l267 -219q112 -93 155 -161t43 -144v-14 q0 -65 53.5 -103.5t137.5 -38.5h121v-188h-117q-79 0 -154 28.5t-125 80.5q-51 -56 -126.5 -82.5t-176.5 -26.5h-461zM983 0z" />
<glyph unicode="&#x6af;" horiz-adv-x="1982" arabic-form="final" d="M92 502q0 78 9.5 131.5t11.5 66.5h172v-10q-6 -22 -16.5 -79t-10.5 -97q0 -71 28.5 -129.5t96.5 -102.5q67 -45 170.5 -69.5t265.5 -24.5h461q111 0 167 40.5t56 113.5q0 43 -54.5 105.5t-168.5 156.5l-274 225q-47 39 -81 79.5t-34 88.5q0 69 55 120t166 104l641 309 v-197l-559 -268q-32 -15 -72.5 -37.5t-40.5 -38.5t37.5 -49t85.5 -72l266 -219q109 -89 154 -158.5t45 -146.5v-6.5v-7.5q0 -65 53.5 -103.5t137.5 -38.5h122v-188h-118q-79 0 -154 28.5t-125 80.5q-51 -56 -126.5 -82.5t-176.5 -26.5h-463q-366 0 -546.5 130t-180.5 372z M922 1225v100l811 406v-101zM1892 0z" />
<glyph unicode="&#x6af;" horiz-adv-x="983" arabic-form="initial" d="M-70 0v188h438q122 0 172.5 44.5t50.5 109.5q0 45 -42 104.5t-161 157.5l-274 225q-46 38 -80.5 79t-34.5 89q0 61 40.5 109t180.5 115l642 309v-197l-560 -268q-32 -15 -72 -37.5t-40 -38.5q0 -18 42 -53.5t81 -67.5l266 -219q96 -79 137 -153.5t41 -151.5 q0 -69 -23 -134t-68 -109q-51 -50 -125.5 -75.5t-170.5 -25.5h-440zM12 1225v100l811 406v-101z" />
<glyph unicode="&#x6af;" horiz-adv-x="1090" arabic-form="medial" d="M-70 0v188h459q111 0 167 40.5t56 113.5q0 43 -54.5 105.5t-168.5 156.5l-274 225q-47 39 -81 79.5t-34 88.5q0 69 55 120t166 104l641 309v-197l-559 -268q-32 -15 -72.5 -37.5t-40.5 -38.5t37.5 -49t85.5 -72l266 -219q109 -89 154 -158.5t45 -146.5v-6.5v-7.5 q0 -65 53.5 -103.5t137.5 -38.5h121v-188h-117q-79 0 -154 28.5t-125 80.5q-51 -56 -126.5 -82.5t-176.5 -26.5h-461zM31 1225v100l811 406v-101zM983 0z" />
<glyph unicode="&#x6b3;" horiz-adv-x="1982" arabic-form="final" d="M92 502q0 78 9.5 131.5t11.5 66.5h172v-10q-6 -22 -16.5 -79t-10.5 -97q0 -71 28.5 -129.5t96.5 -102.5q67 -45 170.5 -69.5t265.5 -24.5h461q111 0 167 40.5t56 113.5q0 43 -54.5 105.5t-168.5 156.5l-274 225q-47 39 -81 79.5t-34 88.5q0 69 55 120t166 104l641 309 v-197l-559 -268q-32 -15 -72.5 -37.5t-40.5 -38.5t37.5 -49t85.5 -72l266 -219q109 -89 154 -158.5t45 -146.5v-6.5v-7.5q0 -65 53.5 -103.5t137.5 -38.5h122v-188h-118q-79 0 -154 28.5t-125 80.5q-51 -56 -126.5 -82.5t-176.5 -26.5h-463q-366 0 -546.5 130t-180.5 372z M922 1225v100l811 406v-101zM937 -66h148v-148h-148v148zM937 -275h148v-148h-148v148zM1892 0z" />
<glyph unicode="&#x6b3;" horiz-adv-x="983" arabic-form="initial" d="M-70 0v188h438q122 0 172.5 44.5t50.5 109.5q0 45 -42 104.5t-161 157.5l-274 225q-46 38 -80.5 79t-34.5 89q0 61 40.5 109t180.5 115l642 309v-197l-560 -268q-32 -15 -72 -37.5t-40 -38.5q0 -18 42 -53.5t81 -67.5l266 -219q96 -79 137 -153.5t41 -151.5 q0 -69 -23 -134t-68 -109q-51 -50 -125.5 -75.5t-170.5 -25.5h-440zM12 1225v100l811 406v-101zM177 -66h148v-148h-148v148zM177 -275h148v-148h-148v148z" />
<glyph unicode="&#x6b3;" horiz-adv-x="1090" arabic-form="medial" d="M-70 0v188h459q111 0 167 40.5t56 113.5q0 43 -54.5 105.5t-168.5 156.5l-274 225q-47 39 -81 79.5t-34 88.5q0 69 55 120t166 104l641 309v-197l-559 -268q-32 -15 -72.5 -37.5t-40.5 -38.5t37.5 -49t85.5 -72l266 -219q109 -89 154 -158.5t45 -146.5v-6.5v-7.5 q0 -65 53.5 -103.5t137.5 -38.5h121v-188h-117q-79 0 -154 28.5t-125 80.5q-51 -56 -126.5 -82.5t-176.5 -26.5h-461zM31 1225v100l811 406v-101zM177 -66h148v-148h-148v148zM177 -275h148v-148h-148v148zM983 0z" />
<glyph unicode="&#x6b1;" horiz-adv-x="1982" arabic-form="final" d="M92 502q0 78 9.5 131.5t11.5 66.5h172v-10q-6 -22 -16.5 -79t-10.5 -97q0 -71 28.5 -129.5t96.5 -102.5q67 -45 170.5 -69.5t265.5 -24.5h461q111 0 167 40.5t56 113.5q0 43 -54.5 105.5t-168.5 156.5l-274 225q-47 39 -81 79.5t-34 88.5q0 69 55 120t166 104l641 309 v-197l-559 -268q-32 -15 -72.5 -37.5t-40.5 -38.5t37.5 -49t85.5 -72l266 -219q109 -89 154 -158.5t45 -146.5v-6.5v-7.5q0 -65 53.5 -103.5t137.5 -38.5h122v-188h-118q-79 0 -154 28.5t-125 80.5q-51 -56 -126.5 -82.5t-176.5 -26.5h-463q-366 0 -546.5 130t-180.5 372z M903 1583v148h148v-148h-148zM922 1225v100l811 406v-101zM1171 1583v148h148v-148h-148zM1892 0z" />
<glyph unicode="&#x6b1;" horiz-adv-x="983" arabic-form="initial" d="M-70 0v188h438q122 0 172.5 44.5t50.5 109.5q0 45 -42 104.5t-161 157.5l-274 225q-46 38 -80.5 79t-34.5 89q0 61 40.5 109t180.5 115l642 309v-197l-560 -268q-32 -15 -72 -37.5t-40 -38.5q0 -18 42 -53.5t81 -67.5l266 -219q96 -79 137 -153.5t41 -151.5 q0 -69 -23 -134t-68 -109q-51 -50 -125.5 -75.5t-170.5 -25.5h-440zM3 1583v148h148v-148h-148zM12 1225v100l811 406v-101zM271 1583v148h148v-148h-148z" />
<glyph unicode="&#x6b1;" horiz-adv-x="1090" arabic-form="medial" d="M-70 0v188h459q111 0 167 40.5t56 113.5q0 43 -54.5 105.5t-168.5 156.5l-274 225q-47 39 -81 79.5t-34 88.5q0 69 55 120t166 104l641 309v-197l-559 -268q-32 -15 -72.5 -37.5t-40.5 -38.5t37.5 -49t85.5 -72l266 -219q109 -89 154 -158.5t45 -146.5v-6.5v-7.5 q0 -65 53.5 -103.5t137.5 -38.5h121v-188h-117q-79 0 -154 28.5t-125 80.5q-51 -56 -126.5 -82.5t-176.5 -26.5h-461zM3 1583v148h148v-148h-148zM31 1225v100l811 406v-101zM271 1583v148h148v-148h-148zM983 0z" />
<glyph unicode="&#x6ba;" horiz-adv-x="1542" arabic-form="final" d="M92 92q0 100 12 191t15 118h182v-16q-11 -36 -27 -128.5t-16 -166.5q0 -154 116 -240t302 -86q181 0 301.5 88t120.5 238q0 114 -14 195.5t-17 97.5v18h199q0 -91 61 -152t143 -61h72v-188h-117q-37 0 -82 13t-81 38q0 -216 -156 -345.5t-426 -129.5q-124 0 -233.5 28.5 t-186.5 88.5q-79 62 -123.5 160t-44.5 239zM1356 0z" />
<glyph unicode="&#x6bb;" horiz-adv-x="1542" arabic-form="final" d="M92 92q0 100 12 191t15 118h182v-16q-11 -36 -27 -128.5t-16 -166.5q0 -154 116 -240t302 -86q181 0 301.5 88t120.5 238q0 114 -14 195.5t-17 97.5v18h199q0 -91 61 -152t143 -61h72v-188h-117q-37 0 -82 13t-81 38q0 -216 -156 -345.5t-426 -129.5q-124 0 -233.5 28.5 t-186.5 88.5q-79 62 -123.5 160t-44.5 239zM444 569v92h82q21 16 21 24v500h83v-397q104 113 190 113q71 0 116 -47t45 -119q0 -89 -88 -133q-67 -33 -160 -33h-289zM640 661h48q209 0 209 72q0 32 -22.5 54.5t-55.5 22.5q-72 0 -179 -149zM1356 0z" />
<glyph unicode="&#x6c0;" horiz-adv-x="965" arabic-form="isolated" d="M88 1117v94h74q-24 13 -39.5 42t-15.5 60q0 64 47 112t127 48q53 0 78.5 -6t35.5 -10v-101h-6q-14 6 -47.5 14.5t-58.5 8.5q-44 0 -66 -18t-22 -48q0 -45 46 -73.5t109 -28.5h74v-94h-336zM92 401q0 118 58 204t202 173l68 41l-135 152h233l238 -269q53 -59 84.5 -132.5 t31.5 -166.5q0 -195 -109.5 -305t-289.5 -110q-161 0 -271 117.5t-110 295.5zM258 403q0 -89 64.5 -158t150.5 -69q40 0 85 14t75 40q34 30 54 69t20 104q0 57 -54.5 139t-113.5 148l-21 23l-67 -41q-85 -51 -139 -114.5t-54 -154.5z" />
<glyph unicode="&#x6c0;" horiz-adv-x="1176" arabic-form="final" d="M82 588q0 101 47 175t132 124q83 49 206 76t264 34l168 9v-541q0 -55 9 -102t34 -87q25 -41 62.5 -64.5t103.5 -23.5h68v-188h-64q-90 0 -160.5 34t-119.5 88q-50 55 -75.5 123.5t-25.5 135.5q-52 -49 -135.5 -83t-183.5 -34q-146 0 -238 90t-92 234zM138 1167v94h74 q-24 13 -39.5 42t-15.5 60q0 64 47 112t127 48q53 0 78.5 -6t35.5 -10v-101h-6q-14 6 -47.5 14.5t-58.5 8.5q-44 0 -66 -18t-22 -48q0 -45 46 -73.5t109 -28.5h74v-94h-336zM276 590q0 -64 42.5 -109t117.5 -45q77 0 162.5 38t132.5 79v295q-103 -5 -184 -20t-141 -42 q-61 -28 -95.5 -77t-34.5 -119z" />
<glyph unicode="&#x6c1;" horiz-adv-x="965" arabic-form="isolated" d="M92 401q0 118 58 204t202 173l68 41l-135 152h233l238 -269q53 -59 84.5 -132.5t31.5 -166.5q0 -195 -109.5 -305t-289.5 -110q-161 0 -271 117.5t-110 295.5zM258 403q0 -89 64.5 -158t150.5 -69q40 0 85 14t75 40q34 30 54 69t20 104q0 57 -54.5 139t-113.5 148l-21 23 l-67 -41q-85 -51 -139 -114.5t-54 -154.5z" />
<glyph unicode="&#x6c1;" horiz-adv-x="573" arabic-form="initial" d="M-70 0v188h136q208 0 208 277v252h166v-264q0 -198 -89 -318q-99 -135 -290 -135h-131zM147 -106q0 39 32 70q36 36 93 36v-49q-72 0 -72 -57h72v-125h-125v125z" />
<glyph unicode="&#x6c1;" horiz-adv-x="988" arabic-form="medial" d="M-70 0v188h142q94 0 133 41q26 27 52 115l110 373h151q-51 -154 -66 -206q-33 -116 -44 -211q-7 -62 10 -236q34 122 123 211q77 77 173 77q81 0 165.5 -82t108.5 -82v-188q-68 0 -152.5 94t-129.5 94q-82 0 -136 -60q-66 -73 -113 -258h-145q-8 48 -25 231 q-10 -13 -27 -27q-55 -45 -74 -55q-39 -19 -106 -19h-150zM321 -255q0 46 40 72q36 24 85 24v-49q-72 0 -72 -47h72v-125h-125v125z" />
<glyph unicode="&#x6be;" horiz-adv-x="1376" arabic-form="isolated" d="M-70 0v188h295q-16 37 -31.5 95.5t-15.5 107.5q0 187 93 289t243 102q149 0 242.5 -100.5t93.5 -290.5q0 -53 -9.5 -106t-29.5 -97h127q76 0 129 42t53 112q0 93 -43.5 169t-148.5 196q-111 126 -182 167t-179 41h-153v189h151q113 0 229 -69.5t255 -229.5 q119 -137 178 -240.5t59 -220.5q0 -170 -93.5 -257t-252.5 -87h-1010zM344 391q0 -96 46 -149.5t124 -53.5q79 0 124.5 52.5t45.5 150.5q0 96 -46 149.5t-124 53.5q-79 0 -124.5 -52.5t-45.5 -150.5z" />
<glyph unicode="&#x6be;" horiz-adv-x="1126" arabic-form="medial" d="M-70 0v188h185h14.5t27.5 2q14 1 30 2t24 3v225q0 178 89.5 286.5t231.5 108.5q117 0 197 -87.5t80 -227.5q0 -134 -115 -256.5t-323 -198.5v-201q146 170 330 257t362 87h63v-188h-71q-171 0 -353 -112.5t-337 -311.5h-154v430q-19 -3 -46 -4.5t-44 -1.5h-191zM371 231 q37 12 83.5 33t90.5 56q46 36 75 77t29 99q0 53 -29 92t-79 39q-77 0 -123.5 -57.5t-46.5 -153.5v-185z" />
<glyph unicode="&#x6d2;" horiz-adv-x="1872" arabic-form="final" d="M19 -175q0 138 211 218q298 96 647.5 120.5t589.5 24.5h405v-188h-418q-281 0 -529 -10.5t-520 -56.5q-180 -43 -180 -95q0 -59 173 -69h1474v-188h-1392q-461 20 -461 244z" />
<glyph unicode="&#x6d3;" horiz-adv-x="1872" arabic-form="final" d="M19 -175q0 138 211 218q298 96 647.5 120.5t589.5 24.5h405v-188h-418q-281 0 -529 -10.5t-520 -56.5q-180 -43 -180 -95q0 -59 173 -69h1474v-188h-1392q-461 20 -461 244zM1068 617v94h74q-24 13 -39.5 42t-15.5 60q0 64 47 112t127 48q53 0 78.5 -6t35.5 -10v-101h-6 q-14 6 -47.5 14.5t-58.5 8.5q-44 0 -66 -18t-22 -48q0 -45 46 -73.5t109 -28.5h74v-94h-336z" />
<glyph unicode="&#x6ad;" horiz-adv-x="1638" arabic-form="final" d="M92 309q0 39 3.5 76t4.5 45h168v-10q-2 -15 -6 -39t-4 -70q0 -69 56.5 -96t154.5 -27h518q59 0 101 24.5t65 63.5q22 36 32.5 84t10.5 105v1091h166v-1097q0 -120 61 -195.5t144 -75.5h71v-188h-116q-61 0 -139.5 38t-112.5 93q-50 -64 -119.5 -97.5t-167.5 -33.5h-514 q-74 0 -144 12t-121 45q-52 34 -82 95t-30 157zM489 1400v148h148v-148h-148zM561 549v94q116 0 193 21t77 61q0 18 -19.5 30t-55.5 21l-76 19q-53 12 -85 45t-32 88q0 70 69.5 113.5t201.5 43.5v-90q-93 0 -138 -17.5t-45 -47.5q0 -18 20 -31.5t56 -21.5l84 -21 q45 -10 79 -37t34 -84q0 -85 -101 -135.5t-262 -50.5zM637 1609v148h148v-148h-148zM785 1400v148h148v-148h-148zM1485 0z" />
<glyph unicode="&#x6ad;" horiz-adv-x="983" arabic-form="initial" d="M-70 0v188h439q111 0 167 40.5t56 113.5q0 45 -41.5 104.5t-161.5 157.5l-274 225q-47 39 -81 79.5t-34 88.5q0 70 56.5 121t164.5 103l641 309v-197l-559 -268q-32 -15 -72.5 -37.5t-40.5 -38.5t37.5 -49t85.5 -72l267 -219q96 -79 137 -153.5t41 -151.5q0 -69 -23 -134 t-68 -109q-51 -50 -125.5 -75.5t-170.5 -25.5h-441zM89 1400v148h148v-148h-148zM237 1609v148h148v-148h-148zM385 1400v148h148v-148h-148z" />
<glyph unicode="&#x6ad;" horiz-adv-x="1090" arabic-form="medial" d="M-70 0v188h459q112 0 167.5 40.5t55.5 113.5q0 43 -54 105.5t-169 156.5l-274 225q-47 39 -81 79.5t-34 88.5q0 73 61.5 125.5t159.5 98.5l641 309v-197l-559 -268q-32 -15 -72.5 -37.5t-40.5 -38.5t37.5 -49t85.5 -72l267 -219q112 -93 155 -161t43 -144v-14 q0 -65 53.5 -103.5t137.5 -38.5h121v-188h-117q-79 0 -154 28.5t-125 80.5q-51 -56 -126.5 -82.5t-176.5 -26.5h-461zM89 1400v148h148v-148h-148zM237 1609v148h148v-148h-148zM385 1400v148h148v-148h-148zM983 0z" />
<glyph unicode="&#x6c7;" horiz-adv-x="909" arabic-form="final" d="M-119 -236q75 0 182 8t195 31q117 32 188 81t107 120q-147 12 -240.5 57t-149.5 110q-54 62 -74.5 132t-20.5 127q0 150 97.5 262.5t219.5 112.5q166 0 270.5 -173t104.5 -444h149v-188h-176q-44 -137 -143.5 -223t-239.5 -133q-127 -43 -252 -55.5t-217 -12.5v188z M140 971v88q75 5 141 19t131 44q-51 16 -90 57.5t-39 98.5q0 69 46.5 113.5t125.5 44.5q69 0 119.5 -45t50.5 -117q0 -34 -18 -70.5t-35 -50.5l64 -12v-86l-127 28q-91 -52 -180.5 -79t-188.5 -33zM240 436q0 -29 10 -66t49 -76q36 -37 105.5 -67t183.5 -37q-5 200 -58 313 t-133 113q-69 0 -113 -56.5t-44 -123.5zM378 1276q0 -34 28.5 -59.5t81.5 -38.5q21 18 34 40.5t13 57.5q0 29 -23.5 47t-52.5 18q-35 0 -58 -16.5t-23 -48.5zM854 0z" />
<glyph unicode="&#x6c6;" horiz-adv-x="909" arabic-form="final" d="M-119 -236q75 0 182 8t195 31q117 32 188 81t107 120q-147 12 -240.5 57t-149.5 110q-54 62 -74.5 132t-20.5 127q0 150 97.5 262.5t219.5 112.5q166 0 270.5 -173t104.5 -444h149v-188h-176q-44 -137 -143.5 -223t-239.5 -133q-127 -43 -252 -55.5t-217 -12.5v188z M189 1257h107l79 -194l79 194h107l-137 -286h-98zM240 436q0 -29 10 -66t49 -76q36 -37 105.5 -67t183.5 -37q-5 200 -58 313t-133 113q-69 0 -113 -56.5t-44 -123.5zM854 0z" />
<glyph unicode="&#x6c8;" horiz-adv-x="909" arabic-form="final" d="M-119 -236q75 0 182 8t195 31q117 32 188 81t107 120q-147 12 -240.5 57t-149.5 110q-54 62 -74.5 132t-20.5 127q0 150 97.5 262.5t219.5 112.5q166 0 270.5 -173t104.5 -444h149v-188h-176q-44 -137 -143.5 -223t-239.5 -133q-127 -43 -252 -55.5t-217 -12.5v188z M194 971v616h92v-616h-92zM240 436q0 -29 10 -66t49 -76q36 -37 105.5 -67t183.5 -37q-5 200 -58 313t-133 113q-69 0 -113 -56.5t-44 -123.5zM854 0z" />
<glyph unicode="&#x6cb;" horiz-adv-x="909" arabic-form="final" d="M-119 -236q75 0 182 8t195 31q117 32 188 81t107 120q-147 12 -240.5 57t-149.5 110q-54 62 -74.5 132t-20.5 127q0 150 97.5 262.5t219.5 112.5q166 0 270.5 -173t104.5 -444h149v-188h-176q-44 -137 -143.5 -223t-239.5 -133q-127 -43 -252 -55.5t-217 -12.5v188z M189 971v148h148v-148h-148zM240 436q0 -29 10 -66t49 -76q36 -37 105.5 -67t183.5 -37q-5 200 -58 313t-133 113q-69 0 -113 -56.5t-44 -123.5zM337 1180v148h148v-148h-148zM485 971v148h148v-148h-148zM854 0z" />
<glyph unicode="&#x6c5;" horiz-adv-x="909" arabic-form="final" d="M-119 -236q232 0 377 39q119 32 196 87h-454v110h551q-269 33 -388 171q-95 110 -95 259q0 138 88 252q95 123 229 123q196 0 298 -224q77 -171 77 -393h149v-188h-176q-82 -254 -383 -356q-202 -68 -469 -68v188zM240 436q0 -82 59 -142q91 -92 289 -104q-4 142 -36 253 q-51 173 -155 173q-68 0 -114 -57q-43 -53 -43 -123zM854 0z" />
<glyph unicode="&#x6c9;" horiz-adv-x="909" arabic-form="final" d="M-119 -236q75 0 182 8t195 31q117 32 188 81t107 120q-147 12 -240.5 57t-149.5 110q-54 62 -74.5 132t-20.5 127q0 150 97.5 262.5t219.5 112.5q166 0 270.5 -173t104.5 -444h149v-188h-176q-44 -137 -143.5 -223t-239.5 -133q-127 -43 -252 -55.5t-217 -12.5v188z M150 971l207 316h98l207 -316h-107l-149 219l-149 -219h-107zM240 436q0 -29 10 -66t49 -76q36 -37 105.5 -67t183.5 -37q-5 200 -58 313t-133 113q-69 0 -113 -56.5t-44 -123.5zM854 0z" />
<glyph unicode="&#x6d0;" horiz-adv-x="2042" arabic-form="final" d="M92 431q0 16 14 170h173v-10q-21 -118 -21 -158q0 -273 451 -273q624 0 624 136q0 46 -147.5 121.5t-147.5 183.5q0 120 103 203q97 77 219 77q203 0 361 -297q53 -123 107 -245q80 -151 202 -151h12v-188h-8q-132 0 -224 88q-68 65 -130 199l-94 210q-104 196 -226 196 q-53 0 -98 -20q-58 -27 -58 -74q0 -30 69 -72q39 -20 79 -41q147 -82 147 -182q0 -216 -314 -291q-169 -41 -478 -41q-267 0 -423 94q-192 116 -192 365zM671 -66h148v-148h-148v148zM671 -275h148v-148h-148v148z" />
<glyph unicode="&#x6cc;" horiz-adv-x="1786" arabic-form="isolated" d="M92 442q0 78 9.5 156t11.5 96h172v-10q-3 -15 -15 -99.5t-12 -140.5q0 -140 102.5 -198t348.5 -58q401 0 597.5 50.5t196.5 140.5q0 46 -106.5 86t-190.5 72q-54 21 -108.5 48t-95.5 59q-42 33 -67.5 74.5t-25.5 94.5q0 130 116 228t294 98q122 0 216.5 -24t162.5 -56 v-213h-10q-70 43 -164 75.5t-207 32.5q-94 0 -168 -40t-74 -103q0 -53 106.5 -95t190.5 -73q51 -19 108.5 -46.5t95.5 -56.5q44 -32 68.5 -69t24.5 -90q0 -187 -242 -284t-720 -97q-319 0 -467 106.5t-148 335.5z" />
<glyph unicode="&#x6cc;" horiz-adv-x="2042" arabic-form="final" d="M92 119q0 79 9.5 155t11.5 93h172v-11q-3 -16 -15 -97t-12 -138q0 -139 101 -199.5t350 -60.5q311 0 467.5 54t156.5 171q0 41 -50 82.5t-97 77.5q-83 62 -115.5 112.5t-32.5 102.5q0 102 92 191t230 89q66 0 118.5 -24t94.5 -62q39 -35 79 -90t69 -101q27 -42 66 -100 t69 -90q39 -41 78.5 -63.5t95.5 -22.5h12v-188h-8q-73 0 -129 23t-103 63q-48 41 -85 91t-68 99q-27 43 -63 100.5t-65 90.5q-34 39 -73.5 62.5t-87.5 23.5q-77 0 -116.5 -31t-39.5 -63q0 -30 54.5 -75.5t93.5 -77.5q71 -59 109 -110.5t38 -101.5q0 -205 -193.5 -313.5 t-598.5 -108.5q-316 0 -465.5 107.5t-149.5 339.5z" />
<glyph unicode="&#x6cc;" horiz-adv-x="573" arabic-form="initial" d="M-70 0v188h136q102 0 155 73t53 204v252h166v-264q0 -213 -101 -333t-278 -120h-131zM19 -170h148v-148h-148v148zM287 -170h148v-148h-148v148z" />
<glyph unicode="&#xfc5e;" horiz-adv-x="613" arabic-form="isolated" d="M-35 1923v96q6 0 45 3t64 3q32 0 55 -18.5t23 -50.5q0 -46 -7 -128l-8 -83q42 6 99 18.5t116 40.5q-51 16 -90 57.5t-39 98.5q0 69 46.5 113.5t125.5 44.5q68 0 119 -45.5t51 -116.5q0 -34 -18 -70.5t-35 -50.5l63 -12v-86l-126 28q-93 -53 -198 -81t-202 -35l4 36 q3 36 6 78q2 33 5.5 78t3.5 55q0 13 -5 22t-24 9q-18 0 -42 -1.5t-32 -2.5zM-1 1484q0 27 1.5 57.5t2.5 43.5h96v-7q-1 -11 -3.5 -39t-2.5 -53q0 -36 18.5 -56t53.5 -20q43 0 68.5 38t25.5 114v70h94v-60q0 -57 22.5 -85.5t57.5 -28.5q41 0 63.5 27.5t22.5 84.5 q0 34 -2.5 58t-3.5 36v7h94q1 -10 3.5 -31t2.5 -72q0 -98 -49.5 -151.5t-130.5 -53.5q-41 0 -73.5 17.5t-45.5 42.5q-9 -38 -49.5 -72.5t-99.5 -34.5q-76 0 -121 44t-45 124zM317 1958q0 -34 28.5 -59t82.5 -39q21 18 34 40.5t13 57.5q0 29 -23.5 47t-52.5 18 q-35 0 -58.5 -16.5t-23.5 -48.5z" />
<glyph unicode="&#xfc5f;" horiz-adv-x="618" arabic-form="isolated" d="M2 1931q0 27 1.5 57.5t2.5 43.5h96v-7q-1 -11 -3.5 -39t-2.5 -53q0 -36 18.5 -56t53.5 -20q43 0 68.5 38t25.5 114v70h94v-60q0 -57 22.5 -85.5t57.5 -28.5q41 0 63.5 27.5t22.5 84.5q0 34 -2.5 58t-3.5 36v7h94q1 -10 3.5 -31t2.5 -72q0 -98 -49.5 -151.5t-130.5 -53.5 q-41 0 -73.5 17.5t-45.5 42.5q-9 -38 -49.5 -72.5t-99.5 -34.5q-76 0 -121 44t-45 124zM25 1353v100l573 97v-100zM25 1555v100l573 97v-100z" />
<glyph unicode="&#xfc60;" horiz-adv-x="614" arabic-form="isolated" d="M0 1739q0 27 1.5 57.5t2.5 43.5h96v-7q-1 -11 -3.5 -39t-2.5 -53q0 -36 18.5 -56t53.5 -20q43 0 68.5 38t25.5 114v70h94v-60q0 -57 22.5 -85.5t57.5 -28.5q41 0 63.5 27.5t22.5 84.5q0 34 -2.5 58t-3.5 36v7h94q1 -10 3.5 -31t2.5 -72q0 -98 -49.5 -151.5t-130.5 -53.5 q-41 0 -73.5 17.5t-45.5 42.5q-9 -38 -49.5 -72.5t-99.5 -34.5q-76 0 -121 44t-45 124zM20 1917v100l574 97v-97z" />
<glyph unicode="&#xfc61;" horiz-adv-x="614" arabic-form="isolated" d="M0 1474q0 27 1.5 57.5t2.5 43.5h96v-7q-1 -11 -3.5 -39t-2.5 -53q0 -36 18.5 -56t53.5 -20q43 0 68.5 38t25.5 114v70h94v-60q0 -57 22.5 -85.5t57.5 -28.5q41 0 63.5 27.5t22.5 84.5q0 34 -2.5 58t-3.5 36v7h94q1 -10 3.5 -31t2.5 -72q0 -98 -49.5 -151.5t-130.5 -53.5 q-41 0 -73.5 17.5t-45.5 42.5q-9 -38 -49.5 -72.5t-99.5 -34.5q-76 0 -121 44t-45 124zM61 1653v88q76 5 141.5 18.5t131.5 44.5q-51 16 -90 57t-39 99q0 69 46 113.5t126 44.5q68 0 119 -45.5t51 -116.5q0 -34 -18.5 -70.5t-34.5 -50.5l63 -12v-86l-127 28 q-91 -52 -180.5 -79t-188.5 -33zM299 1958q0 -34 28.5 -59t82.5 -39q20 17 33.5 40t13.5 58q0 29 -23.5 47t-52.5 18q-35 0 -58.5 -16.5t-23.5 -48.5z" />
<glyph unicode="&#xfc62;" horiz-adv-x="614" arabic-form="isolated" d="M0 1929q0 27 1.5 57.5t2.5 43.5h96v-7q-1 -11 -3.5 -39t-2.5 -53q0 -36 18.5 -56t53.5 -20q43 0 68.5 38t25.5 114v70h94v-60q0 -57 22.5 -85.5t57.5 -28.5q41 0 63.5 27.5t22.5 84.5q0 34 -2.5 58t-3.5 36v7h94q1 -10 3.5 -31t2.5 -72q0 -98 -49.5 -151.5t-130.5 -53.5 q-41 0 -73.5 17.5t-45.5 42.5q-9 -38 -49.5 -72.5t-99.5 -34.5q-76 0 -121 44t-45 124zM29 1575v100l573 97v-99z" />
<glyph unicode="&#xfdf2;" horiz-adv-x="1987" arabic-form="isolated" d="M82 588q0 188 146 281t442 108l168 8v-520q0 -123 38 -200t117 -77t128.5 62t49.5 176v858h168v-858q0 -109 50 -173.5t135 -64.5q83 0 123.5 63.5t40.5 197.5v837h165v-833q0 -224 -82 -338.5t-245 -114.5q-86 0 -163 41t-108 102q-34 -63 -108.5 -103t-153.5 -40 q-136 0 -229.5 106.5t-93.5 262.5q-45 -44 -108 -74.5t-150 -30.5q-146 0 -238 90t-92 234zM276 590q0 -64 42.5 -109t117.5 -45q69 0 130 35.5t104 73.5v282q-199 -10 -296.5 -69t-97.5 -168zM930 1568q0 27 1.5 57.5t2.5 43.5h96v-7q-1 -11 -3.5 -39t-2.5 -53 q0 -36 18.5 -56t53.5 -20q43 0 68.5 38t25.5 114v70h94v-60q0 -57 22.5 -85.5t57.5 -28.5q41 0 63.5 27.5t22.5 84.5q0 34 -2.5 58t-3.5 36v7h94q1 -10 3.5 -31t2.5 -72q0 -98 -49.5 -151.5t-130.5 -53.5q-41 0 -73.5 17.5t-45.5 42.5q-9 -38 -49.5 -72.5t-99.5 -34.5 q-76 0 -121 44t-45 124zM1190 1834v206h94v-206h-94z" />
<glyph unicode="&#x621;" horiz-adv-x="782" arabic-form="isolated" d="M106 477q0 139 89.5 217t216.5 78q84 0 135.5 -7t73.5 -11v-187h-13q-24 7 -85 15t-103 8q-64 0 -106 -31t-42 -82q0 -63 66 -110.5t182 -61.5l176 55v-186l-544 -168v187l155 47q-80 15 -140.5 83.5t-60.5 153.5z" />
<glyph unicode="&#x622;" horiz-adv-x="494" arabic-form="isolated" d="M-14 1646v101q17 14 62.5 35.5t84.5 21.5q35 0 113.5 -30.5t116.5 -30.5q43 0 88.5 23t58.5 34v-98q-19 -15 -57.5 -34.5t-89.5 -19.5q-39 0 -115.5 31t-114.5 31q-33 0 -79 -25t-68 -39zM164 0v1556h166v-1556h-166z" />
<glyph unicode="&#x622;" horiz-adv-x="606" arabic-form="final" d="M-4 1675v101q17 14 62.5 35.5t84.5 21.5q35 0 113.5 -30.5t116.5 -30.5q43 0 88.5 23t58.5 34v-98q-19 -15 -57.5 -34.5t-89.5 -19.5q-39 0 -115.5 31t-114.5 31q-33 0 -79 -25t-68 -39zM164 453v1103h166v-1091q0 -55 9 -102t34 -87q25 -41 62.5 -64.5t103.5 -23.5h67 v-188h-63q-185 0 -282 125.5t-97 327.5zM494 0z" />
<glyph unicode="&#x623;" horiz-adv-x="606" arabic-form="final" d="M119 1678v94h74q-24 13 -39.5 42t-15.5 60q0 64 47 112t127 48q53 0 78.5 -6t35.5 -10v-101h-6q-14 6 -47.5 14.5t-58.5 8.5q-44 0 -66 -18t-22 -48q0 -45 46 -73.5t109 -28.5h74v-94h-336zM164 453v1103h166v-1091q0 -55 9 -102t34 -87q25 -41 62.5 -64.5t103.5 -23.5 h67v-188h-63q-185 0 -282 125.5t-97 327.5zM494 0z" />
<glyph unicode="&#x624;" horiz-adv-x="909" arabic-form="final" d="M-119 -236q75 0 182 8t195 31q117 32 188 81t107 120q-147 12 -240.5 57t-149.5 110q-54 62 -74.5 132t-20.5 127q0 150 97.5 262.5t219.5 112.5q166 0 270.5 -173t104.5 -444h149v-188h-176q-44 -137 -143.5 -223t-239.5 -133q-127 -43 -252 -55.5t-217 -12.5v188z M229 971v94h74q-24 13 -39.5 42t-15.5 60q0 64 47 112t127 48q53 0 78.5 -6t35.5 -10v-101h-6q-14 6 -47.5 14.5t-58.5 8.5q-44 0 -66 -18t-22 -48q0 -45 46 -73.5t109 -28.5h74v-94h-336zM240 436q0 -29 10 -66t49 -76q36 -37 105.5 -67t183.5 -37q-5 200 -58 313t-133 113 q-69 0 -113 -56.5t-44 -123.5zM854 0z" />
<glyph unicode="&#x625;" horiz-adv-x="606" arabic-form="final" d="M164 453v1103h166v-1091q0 -55 9 -102t34 -87q25 -41 62.5 -64.5t103.5 -23.5h67v-188h-63q-185 0 -282 125.5t-97 327.5zM178 -329h74q-24 13 -39.5 42t-15.5 60q0 64 47 112t127 48q53 0 78.5 -6t35.5 -10v-101h-6q-14 6 -47.5 14.5t-58.5 8.5q-44 0 -66 -18t-22 -48 q0 -45 46 -73.5t109 -28.5h74v-94h-336v94zM494 0z" />
<glyph unicode="&#x626;" horiz-adv-x="2042" arabic-form="final" d="M92 119q0 79 9.5 155t11.5 93h172v-11q-3 -16 -15 -97t-12 -138q0 -139 101 -199.5t350 -60.5q311 0 467.5 54t156.5 171q0 41 -50 82.5t-97 77.5q-83 62 -115.5 112.5t-32.5 102.5q0 102 92 191t230 89q66 0 118.5 -24t94.5 -62q39 -35 79 -90t69 -101q27 -42 66 -100 t69 -90q39 -41 78.5 -63.5t95.5 -22.5h12v-188h-8q-73 0 -129 23t-103 63q-48 41 -85 91t-68 99q-27 43 -63 100.5t-65 90.5q-34 39 -73.5 62.5t-87.5 23.5q-77 0 -116.5 -31t-39.5 -63q0 -30 54.5 -75.5t93.5 -77.5q71 -59 109 -110.5t38 -101.5q0 -205 -193.5 -313.5 t-598.5 -108.5q-316 0 -465.5 107.5t-149.5 339.5zM444 717v94h74q-24 13 -39.5 42t-15.5 60q0 64 47 112t127 48q53 0 78.5 -6t35.5 -10v-101h-6q-14 6 -47.5 14.5t-58.5 8.5q-44 0 -66 -18t-22 -48q0 -45 46 -73.5t109 -28.5h74v-94h-336z" />
<glyph unicode="&#x626;" horiz-adv-x="573" arabic-form="initial" d="M-70 0v188h136q102 0 155 73t53 204v252h166v-264q0 -213 -101 -333t-278 -120h-131zM156 969v94h74q-24 13 -39.5 42t-15.5 60q0 64 47 112t127 48q53 0 78.5 -6t35.5 -10v-101h-6q-14 6 -47.5 14.5t-58.5 8.5q-44 0 -66 -18t-22 -48q0 -45 46 -73.5t109 -28.5h74v-94 h-336z" />
<glyph unicode="&#x626;" horiz-adv-x="719" arabic-form="medial" d="M-70 0v188h142q90 0 146 62t56 176v121h168v-121q0 -108 56.5 -173t148.5 -65h72v-188h-117q-62 0 -136.5 33t-107.5 90q-35 -59 -105 -91t-136 -32h-187zM182 717v94h74q-24 13 -39.5 42t-15.5 60q0 64 47 112t127 48q53 0 78.5 -6t35.5 -10v-101h-6q-14 6 -47.5 14.5 t-58.5 8.5q-44 0 -66 -18t-22 -48q0 -45 46 -73.5t109 -28.5h74v-94h-336z" />
<glyph unicode="&#x627;" horiz-adv-x="606" arabic-form="final" d="M164 453v1103h166v-1091q0 -55 9 -102t34 -87q25 -41 62.5 -64.5t103.5 -23.5h67v-188h-63q-185 0 -282 125.5t-97 327.5zM494 0z" />
<glyph unicode="&#x628;" horiz-adv-x="1919" arabic-form="final" d="M92 502q0 73 8.5 126t12.5 72h172v-10q-4 -15 -15.5 -75.5t-11.5 -100.5q0 -69 29.5 -129t96.5 -103q73 -48 184 -71t259 -23h241h136q140 0 205.5 59t65.5 179q0 27 -5.5 60t-7.5 46v15h170q3 -18 6.5 -65.5t3.5 -63.5q0 -96 52 -163t153 -67h72v-188h-117 q-62 0 -136 33t-107 90q-42 -58 -121 -90.5t-189 -32.5h-424q-368 0 -550.5 130t-182.5 372zM879 -171h148v-148h-148v148z" />
<glyph unicode="&#x628;" horiz-adv-x="573" arabic-form="initial" d="M-70 0v188h136q102 0 155 73t53 204v252h166v-264q0 -213 -101 -333t-278 -120h-131zM154 -171h148v-148h-148v148z" />
<glyph unicode="&#x628;" horiz-adv-x="719" arabic-form="medial" d="M-70 0v188h142q90 0 146 62t56 176v121h168v-121q0 -108 56.5 -173t148.5 -65h72v-188h-117q-62 0 -136.5 33t-107.5 90q-35 -59 -105 -91t-136 -32h-187zM248 -171h148v-148h-148v148z" />
<glyph unicode="&#x629;" horiz-adv-x="1176" arabic-form="final" d="M82 588q0 101 47 175t132 124q83 49 206 76t264 34l168 9v-541q0 -55 9 -102t34 -87q25 -41 62.5 -64.5t103.5 -23.5h68v-188h-64q-90 0 -160.5 34t-119.5 88q-50 55 -75.5 123.5t-25.5 135.5q-52 -49 -135.5 -83t-183.5 -34q-146 0 -238 90t-92 234zM276 590 q0 -64 42.5 -109t117.5 -45q77 0 162.5 38t132.5 79v295q-103 -5 -184 -20t-141 -42q-61 -28 -95.5 -77t-34.5 -119zM289 1184v148h148v-148h-148zM557 1184v148h148v-148h-148z" />
<glyph unicode="&#x62a;" horiz-adv-x="1919" arabic-form="final" d="M92 502q0 73 8.5 126t12.5 72h172v-10q-4 -15 -15.5 -75.5t-11.5 -100.5q0 -69 29.5 -129t96.5 -103q73 -48 184 -71t259 -23h241h136q140 0 205.5 59t65.5 179q0 27 -5.5 60t-7.5 46v15h170q3 -18 6.5 -65.5t3.5 -63.5q0 -96 52 -163t153 -67h72v-188h-117 q-62 0 -136 33t-107 90q-42 -58 -121 -90.5t-189 -32.5h-424q-368 0 -550.5 130t-182.5 372zM690 815v148h148v-148h-148zM958 815v148h148v-148h-148z" />
<glyph unicode="&#x62a;" horiz-adv-x="573" arabic-form="initial" d="M-70 0v188h136q102 0 155 73t53 204v252h166v-264q0 -213 -101 -333t-278 -120h-131zM4 970v148h148v-148h-148zM272 970v148h148v-148h-148z" />
<glyph unicode="&#x62a;" horiz-adv-x="719" arabic-form="medial" d="M-70 0v188h142q90 0 146 62t56 176v121h168v-121q0 -108 56.5 -173t148.5 -65h72v-188h-117q-62 0 -136.5 33t-107.5 90q-35 -59 -105 -91t-136 -32h-187zM111 815v148h148v-148h-148zM379 815v148h148v-148h-148z" />
<glyph unicode="&#x62b;" horiz-adv-x="1919" arabic-form="final" d="M92 502q0 73 8.5 126t12.5 72h172v-10q-4 -15 -15.5 -75.5t-11.5 -100.5q0 -69 29.5 -129t96.5 -103q73 -48 184 -71t259 -23h241h136q140 0 205.5 59t65.5 179q0 27 -5.5 60t-7.5 46v15h170q3 -18 6.5 -65.5t3.5 -63.5q0 -96 52 -163t153 -67h72v-188h-117 q-62 0 -136 33t-107 90q-42 -58 -121 -90.5t-189 -32.5h-424q-368 0 -550.5 130t-182.5 372zM692 815v148h148v-148h-148zM840 1024v148h148v-148h-148zM988 815v148h148v-148h-148z" />
<glyph unicode="&#x62b;" horiz-adv-x="573" arabic-form="initial" d="M-70 0v188h136q102 0 155 73t53 204v252h166v-264q0 -213 -101 -333t-278 -120h-131zM4 970v148h148v-148h-148zM152 1179v148h148v-148h-148zM300 970v148h148v-148h-148z" />
<glyph unicode="&#x62b;" horiz-adv-x="719" arabic-form="medial" d="M-70 0v188h142q90 0 146 62t56 176v121h168v-121q0 -108 56.5 -173t148.5 -65h72v-188h-117q-62 0 -136.5 33t-107.5 90q-35 -59 -105 -91t-136 -32h-187zM89 770v148h148v-148h-148zM237 979v148h148v-148h-148zM385 770v148h148v-148h-148z" />
<glyph unicode="&#x62c;" horiz-adv-x="1434" arabic-form="final" d="M80 113q0 118 56 223t179 188q101 68 229 104.5t253 43.5q-122 57 -238 78.5t-278 21.5h-76v186h88q162 0 368 -64.5t386 -176.5h170v-156h-56v-155q0 -56 5.5 -91t25.5 -67q19 -29 50.5 -44.5t88.5 -15.5h103v-188h-99q-163 0 -233 73t-70 242v246q-182 -3 -329 -31.5 t-247 -81.5q-102 -54 -156 -138t-54 -199q0 -158 114.5 -254.5t294.5 -96.5q136 0 245 31.5t190 83.5h10v-201q-88 -45 -185 -71.5t-258 -26.5q-122 0 -227 35.5t-183 104.5t-122.5 169t-44.5 228zM526 12v148h148v-148h-148zM1120 717zM1247 0z" />
<glyph unicode="&#x62c;" horiz-adv-x="1350" arabic-form="initial" d="M-70 0v188h158q139 0 389 85.5t428 177.5q-87 60 -275 119t-388 59h-117v186h127q184 0 403 -70t424 -198l201 102v-188q-247 -148 -633.5 -304.5t-562.5 -156.5h-154zM868 -59h148v-148h-148v148z" />
<glyph unicode="&#x62c;" horiz-adv-x="1393" arabic-form="medial" d="M-70 0v188h158q139 0 389 85.5t428 177.5q-87 60 -275 119t-388 59h-117v186h127q184 0 403 -70t424 -198l201 102v-188q-68 -40 -154 -85.5t-180 -88.5q23 -44 67 -71.5t124 -27.5h256v-188h-252q-140 0 -230.5 52.5t-119.5 164.5q-220 -97 -410.5 -157t-296.5 -60h-154 zM590 -145h148v-148h-148v148zM1350 0z" />
<glyph unicode="&#x62d;" horiz-adv-x="1434" arabic-form="final" d="M80 113q0 118 56 223t179 188q101 68 229 104.5t253 43.5q-122 57 -238 78.5t-278 21.5h-76v186h88q162 0 368 -64.5t386 -176.5h170v-156h-56v-155q0 -56 5.5 -91t25.5 -67q19 -29 50.5 -44.5t88.5 -15.5h103v-188h-99q-163 0 -233 73t-70 242v246q-182 -3 -329 -31.5 t-247 -81.5q-102 -54 -156 -138t-54 -199q0 -158 114.5 -254.5t294.5 -96.5q136 0 245 31.5t190 83.5h10v-201q-88 -45 -185 -71.5t-258 -26.5q-122 0 -227 35.5t-183 104.5t-122.5 169t-44.5 228zM1120 717zM1247 0z" />
<glyph unicode="&#x62d;" horiz-adv-x="1350" arabic-form="initial" d="M-70 0v188h158q139 0 389 85.5t428 177.5q-87 60 -275 119t-388 59h-117v186h127q184 0 403 -70t424 -198l201 102v-188q-247 -148 -633.5 -304.5t-562.5 -156.5h-154z" />
<glyph unicode="&#x62d;" horiz-adv-x="1393" arabic-form="medial" d="M-70 0v188h158q139 0 389 85.5t428 177.5q-87 60 -275 119t-388 59h-117v186h127q184 0 403 -70t424 -198l201 102v-188q-68 -40 -154 -85.5t-180 -88.5q23 -44 67 -71.5t124 -27.5h256v-188h-252q-140 0 -230.5 52.5t-119.5 164.5q-220 -97 -410.5 -157t-296.5 -60h-154 zM1350 0z" />
<glyph unicode="&#x62e;" horiz-adv-x="1434" arabic-form="final" d="M80 113q0 118 56 223t179 188q101 68 229 104.5t253 43.5q-122 57 -238 78.5t-278 21.5h-76v186h88q162 0 368 -64.5t386 -176.5h170v-156h-56v-155q0 -56 5.5 -91t25.5 -67q19 -29 50.5 -44.5t88.5 -15.5h103v-188h-99q-163 0 -233 73t-70 242v246q-182 -3 -329 -31.5 t-247 -81.5q-102 -54 -156 -138t-54 -199q0 -158 114.5 -254.5t294.5 -96.5q136 0 245 31.5t190 83.5h10v-201q-88 -45 -185 -71.5t-258 -26.5q-122 0 -227 35.5t-183 104.5t-122.5 169t-44.5 228zM668 1120v148h148v-148h-148zM1120 717zM1247 0z" />
<glyph unicode="&#x62e;" horiz-adv-x="1350" arabic-form="initial" d="M-70 0v188h158q139 0 389 85.5t428 177.5q-87 60 -275 119t-388 59h-117v186h127q184 0 403 -70t424 -198l201 102v-188q-247 -148 -633.5 -304.5t-562.5 -156.5h-154zM508 989v148h148v-148h-148z" />
<glyph unicode="&#x62e;" horiz-adv-x="1393" arabic-form="medial" d="M-70 0v188h158q139 0 389 85.5t428 177.5q-87 60 -275 119t-388 59h-117v186h127q184 0 403 -70t424 -198l201 102v-188q-68 -40 -154 -85.5t-180 -88.5q23 -44 67 -71.5t124 -27.5h256v-188h-252q-140 0 -230.5 52.5t-119.5 164.5q-220 -97 -410.5 -157t-296.5 -60h-154 zM508 989v148h148v-148h-148zM1350 0z" />
<glyph unicode="&#x62f;" horiz-adv-x="1118" arabic-form="final" d="M70 0v188h393q60 0 106 16t72 44q24 27 33.5 56t9.5 61q0 10 -4.5 32t-11.5 49l-156 527h195l135 -477q16 -57 37 -123t39 -99q23 -40 56 -63t85 -23h59v-188h-55q-100 0 -175.5 37.5t-121.5 105.5q-64 -71 -138.5 -107t-156.5 -36h-268h-133z" />
<glyph unicode="&#x630;" horiz-adv-x="1118" arabic-form="final" d="M70 0v188h393q60 0 106 16t72 44q24 27 33.5 56t9.5 61q0 10 -4.5 32t-11.5 49l-156 527h195l135 -477q16 -57 37 -123t39 -99q23 -40 56 -63t85 -23h59v-188h-55q-100 0 -175.5 37.5t-121.5 105.5q-64 -71 -138.5 -107t-156.5 -36h-268h-133zM494 1206v148h148v-148 h-148z" />
<glyph unicode="&#x631;" horiz-adv-x="854" arabic-form="final" d="M-109 -236q64 0 173 17.5t194 57.5q114 53 171.5 129.5t57.5 185.5q0 59 -16 117.5t-36 102.5t-40 77.5t-33 52.5v12h193q6 -11 30 -65t42 -97q38 -88 86 -127t110 -39h31v-188h-76q-31 0 -69 9.5t-68 25.5q-37 -144 -130.5 -233.5t-207.5 -139.5q-104 -45 -212 -65.5 t-200 -20.5v188zM659 186zM741 0z" />
<glyph unicode="&#x632;" horiz-adv-x="854" arabic-form="final" d="M-109 -236q64 0 173 17.5t194 57.5q114 53 171.5 129.5t57.5 185.5q0 59 -16 117.5t-36 102.5t-40 77.5t-33 52.5v12h193q6 -11 30 -65t42 -97q38 -88 86 -127t110 -39h31v-188h-76q-31 0 -69 9.5t-68 25.5q-37 -144 -130.5 -233.5t-207.5 -139.5q-104 -45 -212 -65.5 t-200 -20.5v188zM346 752v148h148v-148h-148zM659 186zM741 0z" />
<glyph unicode="&#x633;" horiz-adv-x="2652" arabic-form="final" d="M92 92q0 100 12.5 198t14.5 111h182v-16q-11 -37 -27 -127.5t-16 -167.5q0 -155 88.5 -240.5t267.5 -85.5q207 0 314.5 109t107.5 326q0 84 -5 199.5t-7 146.5h178q0 -205 61.5 -284t186.5 -79q110 0 165.5 64.5t55.5 181.5v117h166v-150q0 -104 45 -158.5t115 -54.5 q112 0 161.5 65.5t49.5 211.5v258h166v-260q0 -139 52.5 -204t153.5 -65h74v-188h-119q-63 0 -138.5 36.5t-110.5 92.5q-48 -66 -118.5 -100.5t-172.5 -34.5q-77 0 -151.5 27t-110.5 73q-57 -47 -117 -73.5t-166 -26.5q-75 0 -143 19t-105 46q-15 -202 -180.5 -342.5 t-407.5 -140.5q-116 0 -214 29t-166 91t-105 161t-37 235zM2478 0z" />
<glyph unicode="&#x633;" horiz-adv-x="2007" arabic-form="initial" d="M-70 0v188h461q67 0 102 21t48 55t13.5 73.5t0.5 100.5v107h166q0 -190 58.5 -276.5t193.5 -86.5q110 0 165.5 64.5t55.5 181.5v117h166v-150q0 -101 44.5 -157t115.5 -56q109 0 160 65t51 212v258h165v-271q0 -216 -99.5 -334t-278.5 -118q-77 0 -151.5 27t-111.5 73 q-56 -47 -116 -73.5t-166 -26.5q-121 0 -207 40t-133 109q-58 -64 -128 -103.5t-167 -39.5h-408z" />
<glyph unicode="&#x633;" horiz-adv-x="2173" arabic-form="medial" d="M-70 0v188h400q67 0 111.5 21t68.5 55q26 37 35.5 80.5t9.5 93.5v107h166q0 -189 58 -276t194 -87q110 0 165.5 64.5t55.5 181.5v117h166v-150q0 -103 44.5 -158t115.5 -55q113 0 161 66t48 211v258h167v-291q0 -109 55.5 -173.5t149.5 -64.5h72v-188h-117 q-63 0 -138 36.5t-110 92.5q-51 -71 -123.5 -103t-166.5 -32q-77 0 -151.5 27t-111.5 73q-56 -47 -116 -73.5t-166 -26.5q-121 0 -207 40t-133 109q-67 -74 -136.5 -108.5t-158.5 -34.5h-408zM2007 0z" />
<glyph unicode="&#x634;" horiz-adv-x="2652" arabic-form="final" d="M92 92q0 100 12.5 198t14.5 111h182v-16q-11 -37 -27 -127.5t-16 -167.5q0 -155 88.5 -240.5t267.5 -85.5q207 0 314.5 109t107.5 326q0 84 -5 199.5t-7 146.5h178q0 -205 61.5 -284t186.5 -79q110 0 165.5 64.5t55.5 181.5v117h166v-150q0 -104 45 -158.5t115 -54.5 q112 0 161.5 65.5t49.5 211.5v258h166v-260q0 -139 52.5 -204t153.5 -65h74v-188h-119q-63 0 -138.5 36.5t-110.5 92.5q-48 -66 -118.5 -100.5t-172.5 -34.5q-77 0 -151.5 27t-110.5 73q-57 -47 -117 -73.5t-166 -26.5q-75 0 -143 19t-105 46q-15 -202 -180.5 -342.5 t-407.5 -140.5q-116 0 -214 29t-166 91t-105 161t-37 235zM1211 801v148h148v-148h-148zM1359 1010v148h148v-148h-148zM1507 801v148h148v-148h-148zM2478 0z" />
<glyph unicode="&#x634;" horiz-adv-x="2007" arabic-form="initial" d="M-70 0v188h461q67 0 102 21t48 55t13.5 73.5t0.5 100.5v107h166q0 -190 58.5 -276.5t193.5 -86.5q110 0 165.5 64.5t55.5 181.5v117h166v-150q0 -101 44.5 -157t115.5 -56q109 0 160 65t51 212v258h165v-271q0 -216 -99.5 -334t-278.5 -118q-77 0 -151.5 27t-111.5 73 q-56 -47 -116 -73.5t-166 -26.5q-121 0 -207 40t-133 109q-58 -64 -128 -103.5t-167 -39.5h-408zM1058 840v148h148v-148h-148zM1206 1049v148h148v-148h-148zM1354 840v148h148v-148h-148z" />
<glyph unicode="&#x634;" horiz-adv-x="2173" arabic-form="medial" d="M-70 0v188h400q67 0 111.5 21t68.5 55q26 37 35.5 80.5t9.5 93.5v107h166q0 -189 58 -276t194 -87q110 0 165.5 64.5t55.5 181.5v117h166v-150q0 -103 44.5 -158t115.5 -55q113 0 161 66t48 211v258h167v-291q0 -109 55.5 -173.5t149.5 -64.5h72v-188h-117 q-63 0 -138 36.5t-110 92.5q-51 -71 -123.5 -103t-166.5 -32q-77 0 -151.5 27t-111.5 73q-56 -47 -116 -73.5t-166 -26.5q-121 0 -207 40t-133 109q-67 -74 -136.5 -108.5t-158.5 -34.5h-408zM1048 840v148h148v-148h-148zM1196 1049v148h148v-148h-148zM1344 840v148h148 v-148h-148zM2007 0z" />
<glyph unicode="&#x635;" horiz-adv-x="2384" arabic-form="final" d="M92 57q0 143 12 228.5t15 103.5h182v-16q-11 -45 -27 -140.5t-16 -177.5q0 -147 86.5 -219t228.5 -72q85 0 154 20t117 71q52 54 77 139.5t25 204.5q0 76 -4.5 124t-7.5 66h178v-12q0 -57 18 -107t46 -71q153 261 350.5 438.5t353.5 177.5q168 0 280.5 -114t112.5 -293 q0 -50 -15.5 -102.5t-45.5 -92.5q26 -13 47.5 -19t52.5 -6h72v-188h-117q-47 0 -105.5 19.5t-103.5 60.5q-50 -35 -146.5 -57.5t-166.5 -22.5h-639q-28 -194 -168 -309t-363 -115q-226 0 -354.5 128.5t-128.5 352.5zM1362 188h174q86 0 204.5 9.5t184.5 29.5 q105 32 143.5 75.5t38.5 100.5q0 92 -64 159t-165 67q-61 0 -133 -46.5t-148 -117.5q-67 -62 -131 -138.5t-104 -138.5zM2365 0z" />
<glyph unicode="&#x635;" horiz-adv-x="1552" arabic-form="initial" d="M-70 0v188h97q67 0 93.5 51t26.5 140v10h168v-10q0 -55 11 -99t36 -67q71 118 157.5 226.5t179.5 192.5q91 83 187 133t181 50q166 0 279.5 -112.5t113.5 -294.5q0 -84 -38.5 -158.5t-115.5 -129.5t-192 -87.5t-272 -32.5h-400q-64 0 -117 19.5t-94 62.5q-38 -42 -90 -62 t-118 -20h-93zM549 188h174q86 0 204 9.5t185 29.5q101 31 141.5 72.5t40.5 103.5q0 92 -65.5 159t-163.5 67q-61 0 -133 -46.5t-148 -117.5q-67 -62 -131 -138.5t-104 -138.5z" />
<glyph unicode="&#x635;" horiz-adv-x="1571" arabic-form="medial" d="M-70 0v188h97q67 0 93.5 51t26.5 140v10h168v-10q0 -58 11 -104t36 -68q72 120 158 228t179 194q89 82 187 134t181 52q161 0 277 -109.5t116 -297.5q0 -50 -15.5 -102.5t-45.5 -92.5q25 -13 47 -19t53 -6h72v-188h-117q-49 0 -109 21.5t-100 58.5q-51 -33 -159.5 -56.5 t-180.5 -23.5h-463q-64 0 -117 19.5t-94 62.5q-38 -42 -90 -62t-118 -20h-93zM549 188h174q75 0 190 9.5t185 29.5q86 24 141 65t55 111q0 86 -62 156t-167 70q-61 0 -133 -46.5t-148 -117.5q-67 -62 -131 -138.5t-104 -138.5zM1552 0z" />
<glyph unicode="&#x636;" horiz-adv-x="2384" arabic-form="final" d="M92 57q0 143 12 228.5t15 103.5h182v-16q-11 -45 -27 -140.5t-16 -177.5q0 -147 86.5 -219t228.5 -72q85 0 154 20t117 71q52 54 77 139.5t25 204.5q0 76 -4.5 124t-7.5 66h178v-12q0 -57 18 -107t46 -71q153 261 350.5 438.5t353.5 177.5q168 0 280.5 -114t112.5 -293 q0 -50 -15.5 -102.5t-45.5 -92.5q26 -13 47.5 -19t52.5 -6h72v-188h-117q-47 0 -105.5 19.5t-103.5 60.5q-50 -35 -146.5 -57.5t-166.5 -22.5h-639q-28 -194 -168 -309t-363 -115q-226 0 -354.5 128.5t-128.5 352.5zM1362 188h174q86 0 204.5 9.5t184.5 29.5 q105 32 143.5 75.5t38.5 100.5q0 92 -64 159t-165 67q-61 0 -133 -46.5t-148 -117.5q-67 -62 -131 -138.5t-104 -138.5zM1794 1024v148h148v-148h-148zM2365 0z" />
<glyph unicode="&#x636;" horiz-adv-x="1552" arabic-form="initial" d="M-70 0v188h97q67 0 93.5 51t26.5 140v10h168v-10q0 -55 11 -99t36 -67q71 118 157.5 226.5t179.5 192.5q91 83 187 133t181 50q166 0 279.5 -112.5t113.5 -294.5q0 -84 -38.5 -158.5t-115.5 -129.5t-192 -87.5t-272 -32.5h-400q-64 0 -117 19.5t-94 62.5q-38 -42 -90 -62 t-118 -20h-93zM453 939v148h148v-148h-148zM549 188h174q86 0 204 9.5t185 29.5q101 31 141.5 72.5t40.5 103.5q0 92 -65.5 159t-163.5 67q-61 0 -133 -46.5t-148 -117.5q-67 -62 -131 -138.5t-104 -138.5z" />
<glyph unicode="&#x636;" horiz-adv-x="1571" arabic-form="medial" d="M-70 0v188h97q67 0 93.5 51t26.5 140v10h168v-10q0 -58 11 -104t36 -68q72 120 158 228t179 194q89 82 187 134t181 52q161 0 277 -109.5t116 -297.5q0 -50 -15.5 -102.5t-45.5 -92.5q25 -13 47 -19t53 -6h72v-188h-117q-49 0 -109 21.5t-100 58.5q-51 -33 -159.5 -56.5 t-180.5 -23.5h-463q-64 0 -117 19.5t-94 62.5q-38 -42 -90 -62t-118 -20h-93zM453 939v148h148v-148h-148zM549 188h174q75 0 190 9.5t185 29.5q86 24 141 65t55 111q0 86 -62 156t-167 70q-61 0 -133 -46.5t-148 -117.5q-67 -62 -131 -138.5t-104 -138.5zM1552 0z" />
<glyph unicode="&#x637;" horiz-adv-x="1442" arabic-form="final" d="M-70 0v188h242q4 0 15.5 9t24.5 23q15 16 25.5 29t10.5 27v1280h166v-1079q118 142 260 240t260 98q162 0 278.5 -110.5t116.5 -296.5q0 -63 -20.5 -117.5t-40.5 -77.5q25 -13 47 -19t53 -6h74v-188h-119q-52 0 -109.5 20.5t-97.5 59.5q-59 -34 -129 -57t-174 -23h-883z M416 188h174q86 0 204 9.5t185 29.5q100 31 141 73.5t41 102.5q0 86 -62 156t-167 70q-61 0 -133 -46.5t-148 -117.5q-67 -62 -131 -138.5t-104 -138.5zM1380 0z" />
<glyph unicode="&#x637;" horiz-adv-x="1380" arabic-form="initial" d="M-70 0v188h237q9 0 20.5 9t24.5 23q15 16 25.5 29t10.5 27v1280h166v-1079q118 142 260 240t260 98q166 0 280.5 -111.5t114.5 -295.5q0 -84 -39 -158.5t-116 -129.5t-192.5 -87.5t-272.5 -32.5h-779zM416 188h174q86 0 204.5 9.5t185.5 29.5q83 24 133 65t50 111 q0 97 -69 161.5t-162 64.5q-61 0 -133 -46.5t-148 -117.5q-67 -62 -131 -138.5t-104 -138.5z" />
<glyph unicode="&#x637;" horiz-adv-x="1442" arabic-form="medial" d="M-70 0v188h242q4 0 15.5 9t24.5 23q15 16 25.5 29t10.5 27v1280h166v-1079q118 142 260 240t260 98q162 0 278.5 -110.5t116.5 -296.5q0 -63 -20.5 -117.5t-40.5 -77.5q25 -13 47 -19t53 -6h74v-188h-119q-52 0 -109.5 20.5t-97.5 59.5q-59 -34 -129 -57t-174 -23h-883z M416 188h174q86 0 204 9.5t185 29.5q100 31 141 73.5t41 102.5q0 86 -62 156t-167 70q-61 0 -133 -46.5t-148 -117.5q-67 -62 -131 -138.5t-104 -138.5zM1380 0z" />
<glyph unicode="&#x638;" horiz-adv-x="1442" arabic-form="final" d="M-70 0v188h242q4 0 15.5 9t24.5 23q15 16 25.5 29t10.5 27v1280h166v-1079q118 142 260 240t260 98q162 0 278.5 -110.5t116.5 -296.5q0 -63 -20.5 -117.5t-40.5 -77.5q25 -13 47 -19t53 -6h74v-188h-119q-52 0 -109.5 20.5t-97.5 59.5q-59 -34 -129 -57t-174 -23h-883z M416 188h174q86 0 204 9.5t185 29.5q100 31 141 73.5t41 102.5q0 86 -62 156t-167 70q-61 0 -133 -46.5t-148 -117.5q-67 -62 -131 -138.5t-104 -138.5zM676 1063v148h148v-148h-148zM1380 0z" />
<glyph unicode="&#x638;" horiz-adv-x="1380" arabic-form="initial" d="M-70 0v188h237q9 0 20.5 9t24.5 23q15 16 25.5 29t10.5 27v1280h166v-1079q118 142 260 240t260 98q166 0 280.5 -111.5t114.5 -295.5q0 -84 -39 -158.5t-116 -129.5t-192.5 -87.5t-272.5 -32.5h-779zM416 188h174q86 0 204.5 9.5t185.5 29.5q83 24 133 65t50 111 q0 97 -69 161.5t-162 64.5q-61 0 -133 -46.5t-148 -117.5q-67 -62 -131 -138.5t-104 -138.5zM676 1063v148h148v-148h-148z" />
<glyph unicode="&#x638;" horiz-adv-x="1442" arabic-form="medial" d="M-70 0v188h242q4 0 15.5 9t24.5 23q15 16 25.5 29t10.5 27v1280h166v-1079q118 142 260 240t260 98q162 0 278.5 -110.5t116.5 -296.5q0 -63 -20.5 -117.5t-40.5 -77.5q25 -13 47 -19t53 -6h74v-188h-119q-52 0 -109.5 20.5t-97.5 59.5q-59 -34 -129 -57t-174 -23h-883z M416 188h174q86 0 204 9.5t185 29.5q100 31 141 73.5t41 102.5q0 86 -62 156t-167 70q-61 0 -133 -46.5t-148 -117.5q-67 -62 -131 -138.5t-104 -138.5zM676 1063v148h148v-148h-148zM1380 0z" />
<glyph unicode="&#x639;" horiz-adv-x="1200" arabic-form="final" d="M92 43q0 65 22.5 126t68.5 111q40 46 94 79t108 57l-37 33q-108 96 -148 162.5t-40 127.5q0 60 39 104.5t98 74.5q54 28 130 43.5t134 15.5q63 0 133 -14t130 -43q61 -30 100 -75t39 -110q0 -72 -31 -129t-75 -97t-97 -70t-96 -48l-33 -14l49 -43q72 -64 152.5 -105 t185.5 -41h182v-188h-186q-63 0 -121 19.5t-115 55.5q-51 32 -107.5 80t-107.5 95l-67 61q-106 -49 -172 -113.5t-66 -154.5q0 -126 107.5 -203.5t293.5 -77.5q114 0 247.5 40t201.5 89h10v-213q-74 -45 -207.5 -73.5t-248.5 -28.5q-252 0 -411 127.5t-159 339.5zM330 694 q0 -24 45 -75t104 -103l45 -39l23 8q134 55 190 101.5t56 105.5q0 43 -53 68.5t-179 25.5q-120 0 -175.5 -26.5t-55.5 -65.5z" />
<glyph unicode="&#x639;" horiz-adv-x="1214" arabic-form="initial" d="M-70 0v188h473q-85 40 -149 129.5t-64 198.5q0 188 127.5 305t319.5 117q120 0 227.5 -23t173.5 -59v-213h-10q-66 48 -165 80.5t-218 32.5q-131 0 -210 -69t-79 -175q0 -90 72.5 -167t189.5 -114q91 13 260 56t259 69v-194q-289 -78 -479.5 -120t-331.5 -42h-396z" />
<glyph unicode="&#x639;" horiz-adv-x="989" arabic-form="medial" d="M-70 0v188h238q64 0 109.5 13t78.5 32q-13 9 -53.5 40.5t-93.5 83.5q-56 53 -102 116.5t-46 114.5q0 66 44.5 112.5t109.5 76.5q71 32 146.5 44.5t132.5 12.5q64 0 138.5 -13t140.5 -41q67 -29 111 -74t44 -114q0 -54 -49 -119t-100 -113q-61 -57 -99.5 -86t-50.5 -38 q15 -9 70 -28.5t120 -19.5h170v-188h-166q-96 0 -178.5 39t-150.5 92q-69 -54 -150 -92.5t-180 -38.5h-234zM227 545q0 -23 43.5 -63t90.5 -73q53 -39 87 -60.5t46 -29.5q13 7 49 30t85 59q54 40 94 76t40 59q0 32 -27.5 51.5t-68.5 30.5q-42 11 -91.5 14.5t-80.5 3.5 q-124 0 -195.5 -27t-71.5 -71z" />
<glyph unicode="&#x63a;" horiz-adv-x="1200" arabic-form="final" d="M92 43q0 65 22.5 126t68.5 111q40 46 94 79t108 57l-37 33q-108 96 -148 162.5t-40 127.5q0 60 39 104.5t98 74.5q54 28 130 43.5t134 15.5q63 0 133 -14t130 -43q61 -30 100 -75t39 -110q0 -72 -31 -129t-75 -97t-97 -70t-96 -48l-33 -14l49 -43q72 -64 152.5 -105 t185.5 -41h182v-188h-186q-63 0 -121 19.5t-115 55.5q-51 32 -107.5 80t-107.5 95l-67 61q-106 -49 -172 -113.5t-66 -154.5q0 -126 107.5 -203.5t293.5 -77.5q114 0 247.5 40t201.5 89h10v-213q-74 -45 -207.5 -73.5t-248.5 -28.5q-252 0 -411 127.5t-159 339.5zM330 694 q0 -24 45 -75t104 -103l45 -39l23 8q134 55 190 101.5t56 105.5q0 43 -53 68.5t-179 25.5q-120 0 -175.5 -26.5t-55.5 -65.5zM479 1196v148h148v-148h-148z" />
<glyph unicode="&#x63a;" horiz-adv-x="1214" arabic-form="initial" d="M-70 0v188h473q-85 40 -149 129.5t-64 198.5q0 188 127.5 305t319.5 117q120 0 227.5 -23t173.5 -59v-213h-10q-66 48 -165 80.5t-218 32.5q-131 0 -210 -69t-79 -175q0 -90 72.5 -167t189.5 -114q91 13 260 56t259 69v-194q-289 -78 -479.5 -120t-331.5 -42h-396z M590 1112v148h148v-148h-148z" />
<glyph unicode="&#x63a;" horiz-adv-x="989" arabic-form="medial" d="M-70 0v188h238q64 0 109.5 13t78.5 32q-13 9 -53.5 40.5t-93.5 83.5q-56 53 -102 116.5t-46 114.5q0 66 44.5 112.5t109.5 76.5q71 32 146.5 44.5t132.5 12.5q64 0 138.5 -13t140.5 -41q67 -29 111 -74t44 -114q0 -54 -49 -119t-100 -113q-61 -57 -99.5 -86t-50.5 -38 q15 -9 70 -28.5t120 -19.5h170v-188h-166q-96 0 -178.5 39t-150.5 92q-69 -54 -150 -92.5t-180 -38.5h-234zM227 545q0 -23 43.5 -63t90.5 -73q53 -39 87 -60.5t46 -29.5q13 7 49 30t85 59q54 40 94 76t40 59q0 32 -27.5 51.5t-68.5 30.5q-42 11 -91.5 14.5t-80.5 3.5 q-124 0 -195.5 -27t-71.5 -71zM421 1023v148h148v-148h-148z" />
<glyph unicode="&#x641;" horiz-adv-x="1855" arabic-form="final" d="M92 502q0 92 8 142t9 56h163v-10q-2 -10 -8 -65t-6 -111q0 -71 28.5 -129.5t95.5 -102.5q72 -48 182.5 -71t256.5 -23h160q78 0 126.5 11t61.5 14q-8 5 -30.5 19t-53.5 47q-32 33 -58 83t-26 113q0 152 91 255.5t237 103.5q140 0 236 -103t96 -254q0 -63 -24.5 -115 t-56.5 -85q-31 -33 -53.5 -48t-27.5 -18q17 -6 70 -14.5t119 -8.5h167v-188h-163q-95 0 -188 26.5t-169 63.5q-83 -39 -164.5 -64.5t-193.5 -25.5h-156q-365 0 -547 130t-182 372zM1167 475q0 -38 26.5 -72.5t56.5 -59.5q33 -27 54.5 -39.5t28.5 -16.5q6 3 29 16.5t52 38.5 q34 29 57.5 58.5t23.5 74.5q0 64 -46 116t-120 52q-67 0 -114.5 -49.5t-47.5 -118.5zM1251 1024v148h148v-148h-148z" />
<glyph unicode="&#x641;" horiz-adv-x="840" arabic-form="initial" d="M-70 0v188h246q68 0 140 18t129 53q64 39 98.5 91.5t34.5 116.5q-26 -15 -72 -28t-84 -13q-89 0 -157.5 25t-116.5 72q-46 45 -68.5 101.5t-22.5 118.5q0 143 98.5 259t219.5 116q73 0 141 -39t119 -113q53 -78 84 -193t31 -263q0 -127 -54.5 -225t-138.5 -159 q-84 -63 -185 -94.5t-198 -31.5h-244zM229 750q0 -59 55 -97.5t146 -38.5q36 0 71.5 10.5t63.5 28.5q0 28 -12 74.5t-37 94.5q-26 50 -58.5 79t-70.5 29q-64 0 -111 -54t-47 -126zM238 1281v148h148v-148h-148z" />
<glyph unicode="&#x641;" horiz-adv-x="1032" arabic-form="medial" d="M-70 0v188h228q78 0 127.5 11.5t60.5 13.5q-7 4 -30 18.5t-54 47.5q-32 33 -58 83t-26 113q0 153 91.5 256t236.5 103q138 0 235 -102t97 -255q0 -63 -24.5 -115t-56.5 -85q-31 -33 -52 -47.5t-29 -18.5q18 -7 75.5 -15t112.5 -8h168v-188h-164q-95 0 -188 26.5 t-168 63.5q-83 -39 -164.5 -64.5t-193.5 -25.5h-224zM344 475q0 -38 26.5 -72.5t56.5 -59.5q33 -27 54 -39.5t29 -16.5q9 5 30.5 17.5t50.5 37.5q34 29 57.5 58.5t23.5 74.5q0 64 -46 116t-120 52q-69 0 -115.5 -50.5t-46.5 -117.5zM442 1024v148h148v-148h-148z" />
<glyph unicode="&#x642;" horiz-adv-x="1821" arabic-form="final" d="M92 78q0 100 7.5 147.5t9.5 57.5h163v-11q-3 -18 -8.5 -75t-5.5 -107q0 -69 29.5 -129t96.5 -103q73 -48 184 -71t259 -23q365 0 520 55.5t175 180.5h-58q-81 0 -163.5 16.5t-148.5 55.5t-107 103.5t-41 160.5q0 145 98.5 260t218.5 115q146 0 249 -150.5t118 -372.5h133 v-188h-125q-18 -132 -85 -215.5t-181 -130.5q-112 -45 -262 -61.5t-343 -16.5q-368 0 -550.5 130t-182.5 372zM1067 969v148h148v-148h-148zM1176 342q0 -52 38 -83t90 -46q53 -15 107.5 -20t101.5 -5q-14 156 -65.5 245t-114.5 89q-72 0 -114.5 -56t-42.5 -124zM1335 969 v148h148v-148h-148z" />
<glyph unicode="&#x642;" horiz-adv-x="840" arabic-form="initial" d="M-70 0v188h246q68 0 140 18t129 53q64 39 98.5 91.5t34.5 116.5q-26 -15 -72 -28t-84 -13q-89 0 -157.5 25t-116.5 72q-46 45 -68.5 101.5t-22.5 118.5q0 143 98.5 259t219.5 116q73 0 141 -39t119 -113q53 -78 84 -193t31 -263q0 -127 -54.5 -225t-138.5 -159 q-84 -63 -185 -94.5t-198 -31.5h-244zM145 1281v148h148v-148h-148zM229 750q0 -59 55 -97.5t146 -38.5q36 0 71.5 10.5t63.5 28.5q0 28 -12 74.5t-37 94.5q-26 50 -58.5 79t-70.5 29q-64 0 -111 -54t-47 -126zM413 1281v148h148v-148h-148z" />
<glyph unicode="&#x642;" horiz-adv-x="1032" arabic-form="medial" d="M-70 0v188h228q78 0 127.5 11.5t60.5 13.5q-7 4 -30 18.5t-54 47.5q-32 33 -58 83t-26 113q0 153 91.5 256t236.5 103q138 0 235 -102t97 -255q0 -63 -24.5 -115t-56.5 -85q-31 -33 -52 -47.5t-29 -18.5q18 -7 75.5 -15t112.5 -8h168v-188h-164q-95 0 -188 26.5 t-168 63.5q-83 -39 -164.5 -64.5t-193.5 -25.5h-224zM297 1024v148h148v-148h-148zM344 475q0 -38 26.5 -72.5t56.5 -59.5q33 -27 54 -39.5t29 -16.5q9 5 30.5 17.5t50.5 37.5q34 29 57.5 58.5t23.5 74.5q0 64 -46 116t-120 52q-69 0 -115.5 -50.5t-46.5 -117.5zM565 1024 v148h148v-148h-148z" />
<glyph unicode="&#x643;" horiz-adv-x="1638" arabic-form="final" d="M92 309q0 39 3.5 76t4.5 45h168v-10q-2 -15 -6 -39t-4 -70q0 -69 56.5 -96t154.5 -27h518q59 0 101 24.5t65 63.5q22 36 32.5 84t10.5 105v1091h166v-1097q0 -120 61 -195.5t144 -75.5h71v-188h-116q-61 0 -139.5 38t-112.5 93q-50 -64 -119.5 -97.5t-167.5 -33.5h-514 q-74 0 -144 12t-121 45q-52 34 -82 95t-30 157zM561 549v94q116 0 193 21t77 61q0 18 -19.5 30t-55.5 21l-76 19q-53 12 -85 45t-32 88q0 70 69.5 113.5t201.5 43.5v-90q-93 0 -138 -17.5t-45 -47.5q0 -18 20 -31.5t56 -21.5l84 -21q45 -10 79 -37t34 -84q0 -85 -101 -135.5 t-262 -50.5zM1485 0z" />
<glyph unicode="&#x643;" horiz-adv-x="983" arabic-form="initial" d="M-70 0v188h439q111 0 167 40.5t56 113.5q0 45 -41.5 104.5t-161.5 157.5l-274 225q-47 39 -81 79.5t-34 88.5q0 70 56.5 121t164.5 103l641 309v-197l-559 -268q-32 -15 -72.5 -37.5t-40.5 -38.5t37.5 -49t85.5 -72l267 -219q96 -79 137 -153.5t41 -151.5q0 -69 -23 -134 t-68 -109q-51 -50 -125.5 -75.5t-170.5 -25.5h-441z" />
<glyph unicode="&#x643;" horiz-adv-x="1090" arabic-form="medial" d="M-70 0v188h459q112 0 167.5 40.5t55.5 113.5q0 43 -54 105.5t-169 156.5l-274 225q-47 39 -81 79.5t-34 88.5q0 73 61.5 125.5t159.5 98.5l641 309v-197l-559 -268q-32 -15 -72.5 -37.5t-40.5 -38.5t37.5 -49t85.5 -72l267 -219q112 -93 155 -161t43 -144v-14 q0 -65 53.5 -103.5t137.5 -38.5h121v-188h-117q-79 0 -154 28.5t-125 80.5q-51 -56 -126.5 -82.5t-176.5 -26.5h-461zM983 0z" />
<glyph unicode="&#x644;" horiz-adv-x="1481" arabic-form="final" d="M92 12q0 78 9.5 158t11.5 94h172v-10q-5 -24 -16 -106.5t-11 -133.5q0 -72 13.5 -116.5t47.5 -73.5q39 -32 108 -46t175 -14q205 0 319.5 65t114.5 181v1546h166v-1130q0 -112 57.5 -175t149.5 -63h72v-188h-117q-37 0 -81.5 13.5t-80.5 35.5v-51q0 -204 -154 -313 t-448 -109q-277 0 -392.5 97.5t-115.5 338.5zM1325 0z" />
<glyph unicode="&#x644;" horiz-adv-x="575" arabic-form="initial" d="M-70 0v188h138q59 0 101 24.5t64 63.5q22 36 32.5 84t10.5 105v1091h166v-1103q0 -217 -101.5 -335t-277.5 -118h-133z" />
<glyph unicode="&#x644;" horiz-adv-x="719" arabic-form="medial" d="M-70 0v188h142q90 0 146 62t56 176v1128h168v-1128q0 -109 55.5 -173.5t149.5 -64.5h72v-188h-117q-62 0 -136.5 33t-107.5 90q-35 -59 -105 -91t-136 -32h-187zM575 0z" />
<glyph unicode="&#x645;" horiz-adv-x="1407" arabic-form="final" d="M-160 -217q152 36 245 125t159 235q39 89 74 204t78 204q49 105 124 163t182 58t203 -57t150 -160q27 -51 68 -126.5t71 -119.5q38 -55 78.5 -88t83.5 -33h51v-188h-51q-46 0 -89 19t-76 48q-36 32 -61 64.5t-47 67.5q-26 -84 -106.5 -149.5t-198.5 -65.5 q-67 0 -123.5 20t-100.5 51q-43 31 -71.5 65.5t-44.5 67.5q-94 -257 -241 -406t-357 -206v207zM551 414q0 -103 60.5 -174.5t156.5 -71.5q81 0 126.5 47t45.5 113q0 36 -11.5 80.5t-38.5 85.5q-27 38 -66 63t-97 25q-81 0 -128.5 -48t-47.5 -120zM1106 338zM1210 0z" />
<glyph unicode="&#x645;" horiz-adv-x="1044" arabic-form="initial" d="M-70 0v188h84q99 0 150 62t57 174q8 152 94 250t226 98q78 0 149.5 -30t128.5 -87q58 -58 90.5 -138.5t32.5 -178.5q0 -153 -92.5 -253.5t-233.5 -100.5q-88 0 -172 40.5t-139 116.5q-51 -71 -119.5 -106t-175.5 -35h-80zM387 399q0 -40 14 -79t42 -74q29 -35 67.5 -56.5 t93.5 -21.5q81 0 126.5 47t45.5 113q0 36 -11.5 80.5t-38.5 85.5q-27 38 -66 63t-97 25q-52 0 -84.5 -16t-55.5 -44q-18 -22 -27 -55.5t-9 -67.5z" />
<glyph unicode="&#x645;" horiz-adv-x="1243" arabic-form="medial" d="M-70 0v188h80q94 0 146.5 54.5t64.5 179.5q7 75 27 134t60 111q38 48 97.5 76.5t140.5 28.5q121 0 215.5 -67.5t155.5 -202.5q63 -139 140.5 -226.5t138.5 -87.5h47v-188h-43q-75 0 -144.5 44.5t-136.5 152.5q-15 -37 -41 -77t-61 -67q-39 -32 -84 -50.5t-113 -18.5 q-102 0 -184.5 46.5t-130.5 110.5q-39 -62 -114 -101.5t-253 -39.5h-8zM387 412q0 -98 62.5 -171t156.5 -73q76 0 123 46t47 112q0 104 -59 180t-150 76q-85 0 -132.5 -46.5t-47.5 -123.5zM942 338zM1044 0z" />
<glyph unicode="&#x646;" horiz-adv-x="1542" arabic-form="final" d="M92 92q0 100 12 191t15 118h182v-16q-11 -36 -27 -128.5t-16 -166.5q0 -154 116 -240t302 -86q181 0 301.5 88t120.5 238q0 114 -14 195.5t-17 97.5v18h199q0 -91 61 -152t143 -61h72v-188h-117q-37 0 -82 13t-81 38q0 -216 -156 -345.5t-426 -129.5q-124 0 -233.5 28.5 t-186.5 88.5q-79 62 -123.5 160t-44.5 239zM606 569v148h148v-148h-148zM1356 0z" />
<glyph unicode="&#x646;" horiz-adv-x="573" arabic-form="initial" d="M-70 0v188h136q102 0 155 73t53 204v252h166v-264q0 -213 -101 -333t-278 -120h-131zM184 968v148h148v-148h-148z" />
<glyph unicode="&#x646;" horiz-adv-x="719" arabic-form="medial" d="M-70 0v188h142q90 0 146 62t56 176v121h168v-121q0 -108 56.5 -173t148.5 -65h72v-188h-117q-62 0 -136.5 33t-107.5 90q-35 -59 -105 -91t-136 -32h-187zM244 813v148h148v-148h-148z" />
<glyph unicode="&#x647;" horiz-adv-x="965" arabic-form="isolated" d="M92 401q0 118 58 204t202 173l68 41l-135 152h233l238 -269q53 -59 84.5 -132.5t31.5 -166.5q0 -195 -109.5 -305t-289.5 -110q-161 0 -271 117.5t-110 295.5zM258 403q0 -89 64.5 -158t150.5 -69q40 0 85 14t75 40q34 30 54 69t20 104q0 57 -54.5 139t-113.5 148l-21 23 l-67 -41q-85 -51 -139 -114.5t-54 -154.5z" />
<glyph unicode="&#x647;" horiz-adv-x="1176" arabic-form="final" d="M82 588q0 101 47 175t132 124q83 49 206 76t264 34l168 9v-541q0 -55 9 -102t34 -87q25 -41 62.5 -64.5t103.5 -23.5h68v-188h-64q-90 0 -160.5 34t-119.5 88q-50 55 -75.5 123.5t-25.5 135.5q-52 -49 -135.5 -83t-183.5 -34q-146 0 -238 90t-92 234zM276 590 q0 -64 42.5 -109t117.5 -45q77 0 162.5 38t132.5 79v295q-103 -5 -184 -20t-141 -42q-61 -28 -95.5 -77t-34.5 -119z" />
<glyph unicode="&#x648;" horiz-adv-x="909" arabic-form="final" d="M-119 -236q75 0 182 8t195 31q117 32 188 81t107 120q-147 12 -240.5 57t-149.5 110q-54 62 -74.5 132t-20.5 127q0 150 97.5 262.5t219.5 112.5q166 0 270.5 -173t104.5 -444h149v-188h-176q-44 -137 -143.5 -223t-239.5 -133q-127 -43 -252 -55.5t-217 -12.5v188z M240 436q0 -29 10 -66t49 -76q36 -37 105.5 -67t183.5 -37q-5 200 -58 313t-133 113q-69 0 -113 -56.5t-44 -123.5zM854 0z" />
<glyph unicode="&#x64a;" horiz-adv-x="2042" arabic-form="final" d="M92 291q0 50 6.5 104.5t7.5 65.5h173v-10q-1 -5 -11 -62t-10 -96q0 -131 115 -202t336 -71q322 0 473 36t151 100q0 37 -47 65.5t-100 55.5q-68 35 -108 78.5t-40 105.5q0 103 91.5 191.5t230.5 88.5q66 0 118.5 -24t94.5 -62q39 -35 79 -90t69 -101q27 -42 66 -100 t69 -90q39 -41 78.5 -63.5t95.5 -22.5h12v-188h-8q-73 0 -129 23t-103 63q-48 41 -85 91t-68 99q-27 43 -63 100.5t-65 90.5q-34 39 -73.5 62.5t-87.5 23.5q-77 0 -116.5 -31t-39.5 -63q0 -30 53.5 -60t94.5 -53q72 -40 109.5 -83.5t37.5 -98.5q0 -165 -183.5 -248.5 t-608.5 -83.5q-293 0 -454 115t-161 344zM510 -276h147v-148h-147v148zM778 -276h148v-148h-148v148z" />
<glyph unicode="&#xfef7;" horiz-adv-x="1247" arabic-form="isolated" d="M37 1596v94h74q-24 13 -39.5 42t-15.5 60q0 64 47 112t127 48q53 0 78.5 -6t35.5 -10v-101h-6q-14 6 -47.5 14.5t-58.5 8.5q-44 0 -66 -18t-22 -48q0 -45 46 -73.5t109 -28.5h74v-94h-336zM53 1481h193l516 -1219q82 34 139 131t57 182v981h166v-993q0 -127 -53 -233.5 t-136 -177.5q-90 -76 -197 -114t-216 -38q-99 0 -185.5 5.5t-100.5 6.5v199h10q30 -8 118 -15.5t160 -7.5q32 0 46.5 4t21.5 9z" />
<glyph unicode="&#xfef8;" horiz-adv-x="1454" arabic-form="final" d="M33 1596v94h74q-24 13 -39.5 42t-15.5 60q0 64 47 112t127 48q53 0 78.5 -6t35.5 -10v-101h-6q-14 6 -47.5 14.5t-58.5 8.5q-44 0 -66 -18t-22 -48q0 -45 46 -73.5t109 -28.5h74v-94h-336zM53 1481h193l516 -1219q82 34 139 131t57 182v981h166v-993q0 -75 8 -133.5 t35 -119.5q23 -53 64 -87.5t102 -34.5h121v-188h-117q-116 0 -200 61.5t-121 184.5q-89 -117 -220 -181.5t-274 -64.5q-99 0 -185.5 5.5t-100.5 6.5v199h10q30 -8 118 -15.5t160 -7.5q32 0 47.5 5t20.5 8zM1247 0z" />
<glyph unicode="&#xfef9;" horiz-adv-x="1247" arabic-form="isolated" d="M53 1481h193l516 -1219q82 34 139 131t57 182v981h166v-993q0 -127 -53 -233.5t-136 -177.5q-90 -76 -197 -114t-216 -38q-99 0 -185.5 5.5t-100.5 6.5v199h10q30 -8 118 -15.5t160 -7.5q32 0 46.5 4t21.5 9zM319 -329h74q-24 13 -39.5 42t-15.5 60q0 64 47 112t127 48 q53 0 78.5 -6t35.5 -10v-101h-6q-14 6 -47.5 14.5t-58.5 8.5q-44 0 -66 -18t-22 -48q0 -45 46 -73.5t109 -28.5h74v-94h-336v94z" />
<glyph unicode="&#xfefa;" horiz-adv-x="1454" arabic-form="final" d="M53 1481h193l516 -1219q82 34 139 131t57 182v981h166v-993q0 -75 8 -133.5t35 -119.5q23 -53 64 -87.5t102 -34.5h121v-188h-117q-116 0 -200 61.5t-121 184.5q-89 -117 -220 -181.5t-274 -64.5q-99 0 -185.5 5.5t-100.5 6.5v199h10q30 -8 118 -15.5t160 -7.5 q32 0 47.5 5t20.5 8zM313 -329h74q-24 13 -39.5 42t-15.5 60q0 64 47 112t127 48q53 0 78.5 -6t35.5 -10v-101h-6q-14 6 -47.5 14.5t-58.5 8.5q-44 0 -66 -18t-22 -48q0 -45 46 -73.5t109 -28.5h74v-94h-336v94zM1247 0z" />
<glyph unicode="&#xfefb;" horiz-adv-x="1247" arabic-form="isolated" d="M53 1481h193l516 -1219q82 34 139 131t57 182v981h166v-993q0 -127 -53 -233.5t-136 -177.5q-90 -76 -197 -114t-216 -38q-99 0 -185.5 5.5t-100.5 6.5v199h10q30 -8 118 -15.5t160 -7.5q32 0 46.5 4t21.5 9z" />
<glyph unicode="&#xfefc;" horiz-adv-x="1454" arabic-form="final" d="M53 1481h193l516 -1219q82 34 139 131t57 182v981h166v-993q0 -75 8 -133.5t35 -119.5q23 -53 64 -87.5t102 -34.5h121v-188h-117q-116 0 -200 61.5t-121 184.5q-89 -117 -220 -181.5t-274 -64.5q-99 0 -185.5 5.5t-100.5 6.5v199h10q30 -8 118 -15.5t160 -7.5 q32 0 47.5 5t20.5 8zM1247 0z" />
<glyph unicode="&#xd;" horiz-adv-x="640" />
<glyph unicode=" "  horiz-adv-x="640" />
<glyph unicode="&#x09;" horiz-adv-x="640" />
<glyph unicode="&#xa0;" horiz-adv-x="640" />
<glyph unicode="!" horiz-adv-x="680" d="M228 1489h224l-28 -1079h-166zM238 0v211h204v-211h-204z" />
<glyph unicode="&#x22;" horiz-adv-x="822" d="M114 1556h218l-43 -579h-132zM490 1556h218l-43 -579h-132z" />
<glyph unicode="#" horiz-adv-x="1490" d="M142 421v135h293l92 376h-268v135h303l105 422h129l-105 -422h270l105 422h129l-105 -422h258v-135h-293l-92 -376h268v-135h-303l-105 -421h-129l105 421h-270l-105 -421h-129l105 421h-258zM561 554h274l94 380h-274z" />
<glyph unicode="$" horiz-adv-x="1118" d="M106 85v202h15q79 -59 178 -96t215 -47v432q-25 6 -61 14.5t-61 16.5q-150 41 -214.5 124t-64.5 204q0 142 111 247t290 122v272h114v-270q91 -3 188.5 -25.5t159.5 -49.5v-198h-15q-70 48 -153.5 84t-179.5 44v-430q33 -7 61.5 -14.5t49.5 -12.5q136 -32 210.5 -111 t74.5 -213q0 -147 -112.5 -252.5t-283.5 -126.5v-362h-114v357q-108 1 -217.5 25t-190.5 64zM302 961q0 -89 44.5 -137.5t167.5 -77.5v414q-90 -8 -151 -58.5t-61 -140.5zM628 146q102 12 154.5 61.5t52.5 146.5q0 94 -48 139t-159 68v-415z" />
<glyph unicode="%" horiz-adv-x="2000" d="M102 1075q0 224 91 333t262 109q174 0 263 -110t89 -331q0 -225 -90.5 -333.5t-261.5 -108.5q-174 0 -263.5 110t-89.5 331zM280 1075q0 -150 34 -229t141 -79q103 0 138.5 79t35.5 230q0 152 -35.5 230t-138.5 78t-139 -79t-36 -230zM528 0l780 1489h165l-780 -1489 h-165zM1192 412q0 224 91 333t262 109q174 0 263 -110t89 -331q0 -225 -90.5 -333.5t-261.5 -108.5q-174 0 -263.5 110t-89.5 331zM1370 412q0 -150 34 -229t141 -79q103 0 138.5 79t35.5 230q0 152 -35.5 230t-138.5 78t-139 -79t-36 -230z" />
<glyph unicode="&#x26;" horiz-adv-x="1380" d="M67 409q0 86 24 153t64 121q39 52 90 91.5t98 68.5q-101 68 -151 143t-50 189q0 71 28.5 131.5t74.5 106.5q48 47 124.5 77t167.5 30q166 0 271 -87.5t105 -221.5q0 -49 -12.5 -101.5t-45.5 -101.5t-86.5 -92t-142.5 -75l352 -362q14 82 17 178.5t3 251.5h195v-96 q0 -96 -24.5 -216.5t-80.5 -228.5l357 -368h-256l-204 213q-102 -130 -209.5 -187t-243.5 -57q-202 0 -333.5 121.5t-131.5 318.5zM272 457q0 -142 84.5 -233.5t228.5 -91.5q96 0 173 40.5t140 128.5l-460 471q-25 -16 -50 -38t-55 -66q-24 -35 -42.5 -91.5t-18.5 -119.5z M338 1184q0 -40 7.5 -68.5t31.5 -66.5q21 -31 58.5 -66t96.5 -71q56 19 92.5 51t56.5 70q18 35 27 74t9 84q0 97 -56.5 150t-131.5 53q-89 0 -140 -60t-51 -150z" />
<glyph unicode="'" horiz-adv-x="432" d="M105 1556h222l-43 -579h-136z" />
<glyph unicode="(" horiz-adv-x="784" d="M108 572q0 308 98.5 542.5t274.5 441.5h229v-10q-81 -73 -154.5 -168.5t-136.5 -222.5q-60 -123 -97.5 -271t-37.5 -312q0 -171 36.5 -313t98.5 -270q60 -123 137 -222.5t154 -168.5v-10h-229q-174 207 -273.5 438t-99.5 546z" />
<glyph unicode=")" horiz-adv-x="784" d="M74 -402q77 69 155 169.5t136 221.5q62 129 98.5 272.5t36.5 310.5q0 165 -37 312t-98 271t-138 223t-153 168v10h229q174 -207 273.5 -440t99.5 -544q0 -309 -99 -543t-274 -441h-229v10z" />
<glyph unicode="*" horiz-adv-x="1118" d="M112 886l354 207l-354 207l66 110l326 -219l-7 365h125l-8 -365l328 218l65 -110l-354 -205l354 -207l-65 -110l-327 217l7 -364h-125l6 364l-325 -218z" />
<glyph unicode="+" horiz-adv-x="1490" d="M157 572v160h505v505h166v-505h505v-160h-505v-505h-166v505h-505z" />
<glyph unicode="," horiz-adv-x="620" d="M74 -370l176 655h250l-280 -655h-146z" />
<glyph unicode="-" horiz-adv-x="744" d="M90 561v181h564v-181h-564z" />
<glyph unicode="." horiz-adv-x="620" d="M190 0v285h239v-285h-239z" />
<glyph unicode="/" horiz-adv-x="783" d="M-24 -324l580 1880h172l-583 -1880h-169z" />
<glyph unicode="0" horiz-adv-x="1118" d="M83 743q0 403 116.5 589.5t359.5 186.5q246 0 361 -193t115 -581q0 -401 -116.5 -588.5t-359.5 -187.5q-246 0 -361 191t-115 583zM286 743q0 -156 9.5 -261t41.5 -188q29 -77 82.5 -118.5t139.5 -41.5q83 0 136.5 39.5t83.5 117.5q29 74 41 187t12 267q0 153 -12 266 t-42 188q-30 76 -82.5 115.5t-136.5 39.5q-83 0 -136.5 -39.5t-84.5 -117.5q-30 -76 -41 -192t-11 -262z" />
<glyph unicode="1" horiz-adv-x="1118" d="M226 0v152h270v998h-270v136q153 0 225.5 43.5t81.5 164.5h155v-1342h264v-152h-726z" />
<glyph unicode="2" horiz-adv-x="1118" d="M109 0v209q99 94 187 180t172 179q170 187 232 299.5t62 232.5q0 62 -19.5 109t-53.5 78q-35 30 -81 45t-101 15q-53 0 -107.5 -13.5t-104.5 -33.5q-42 -17 -81 -41t-63 -41h-11v212q62 31 172.5 60.5t209.5 29.5q208 0 326 -110.5t118 -299.5q0 -87 -20.5 -161 t-56.5 -137q-37 -65 -89 -129t-110 -126q-94 -102 -209.5 -212t-184.5 -174h732v-171h-919z" />
<glyph unicode="3" horiz-adv-x="1118" d="M97 61v211h14q63 -46 169 -88t212 -42q61 0 122.5 19.5t102.5 63.5q40 44 61 97t21 134t-23.5 133t-65.5 82t-99.5 41.5t-124.5 11.5h-85v166h66q135 0 219.5 64t84.5 186q0 56 -22 96.5t-56 64.5q-38 26 -84 36t-98 10q-54 0 -108 -13t-106 -34q-48 -20 -83.5 -42 t-63.5 -41h-12v211q65 35 176.5 63.5t212.5 28.5t176.5 -20.5t136.5 -63.5q66 -48 99.5 -116t33.5 -159q0 -123 -81 -216t-194 -118v-14q47 -9 100.5 -31t99.5 -65t75 -110.5t29 -164.5q0 -101 -34.5 -185.5t-97.5 -149.5q-65 -68 -157 -103t-209 -35q-112 0 -222 27 t-185 65z" />
<glyph unicode="4" horiz-adv-x="1118" d="M40 512v210l666 767h184v-817h177v-160h-177v-512h-192v512h-658zM196 672h502v582z" />
<glyph unicode="5" horiz-adv-x="1118" d="M124 54v211h14q23 -17 66 -38.5t95 -40.5q59 -21 108 -32.5t110 -11.5q60 0 117 21.5t98 69.5q37 44 56.5 103t19.5 139q0 79 -21.5 130t-62.5 84q-43 38 -105.5 53.5t-139.5 15.5q-81 0 -163 -12.5t-131 -23.5v767h817v-175h-624v-396q36 4 71 6t64 2q114 0 193 -19 t152 -74q74 -56 113.5 -140t39.5 -219q0 -108 -34.5 -200t-96.5 -159q-63 -68 -156.5 -107t-209.5 -39q-107 0 -210.5 23.5t-179.5 61.5z" />
<glyph unicode="6" horiz-adv-x="1118" d="M85 654q0 194 40 350.5t123 272.5q81 113 209 176.5t296 63.5q50 0 93 -5t76 -16v-191h-9q-27 15 -78 27.5t-109 12.5q-186 0 -300.5 -125.5t-135.5 -372.5q71 50 146 77t164 27q87 0 152.5 -17.5t136.5 -70.5q82 -62 122 -157t40 -223q0 -115 -38 -212t-102 -162 q-67 -69 -150 -104.5t-183 -35.5q-101 0 -183.5 34t-145.5 101q-77 81 -120.5 216.5t-43.5 333.5zM286 611q0 -155 30.5 -250t75.5 -144q43 -47 88.5 -66t98.5 -19q120 0 194.5 86t74.5 257q0 92 -24 154t-78 106q-39 32 -88.5 42t-101.5 10q-70 0 -136 -21t-130 -61 q-2 -22 -3 -42.5t-1 -51.5z" />
<glyph unicode="7" horiz-adv-x="1118" d="M99 1314v175h945v-223l-644 -1266h-213l682 1314h-770z" />
<glyph unicode="8" horiz-adv-x="1118" d="M74 411q0 121 64.5 222.5t187.5 161.5v6q-110 64 -163 140t-53 190q0 168 127 280t322 112q203 0 325.5 -106.5t122.5 -272.5q0 -100 -58.5 -198t-168.5 -153v-6q130 -61 197 -148t67 -224q0 -191 -138.5 -320t-346.5 -129q-111 0 -202 33t-155 95q-63 60 -95.5 142.5 t-32.5 174.5zM275 426q0 -135 81.5 -223t204.5 -88q126 0 202 75.5t76 205.5q0 92 -36 146t-139 110q-34 19 -90.5 41t-127.5 52q-83 -55 -127 -135.5t-44 -183.5zM310 1154q0 -74 35.5 -125t106.5 -92q31 -17 94.5 -47t115.5 -47q87 67 118 137.5t31 161.5q0 100 -67 167 t-186 67q-109 0 -178.5 -60t-69.5 -162z" />
<glyph unicode="9" horiz-adv-x="1118" d="M67 1005q0 115 37.5 210t102.5 164q62 66 151.5 103t181.5 37q103 0 186.5 -34.5t144.5 -99.5q77 -82 119.5 -215t42.5 -336q0 -185 -41.5 -350.5t-122.5 -274.5q-86 -116 -206.5 -177t-297.5 -61q-40 0 -85 4.5t-84 16.5v191h10q25 -14 78 -27t108 -13q196 0 308 129 t127 369q-80 -54 -152.5 -79t-157.5 -25q-83 0 -151 18t-137 70q-80 61 -121 154.5t-41 225.5zM270 1013q0 -94 24 -155t78 -105q38 -31 86 -41.5t103 -10.5q64 0 138 22.5t129 59.5q1 15 2.5 39.5t1.5 54.5q0 152 -28 247.5t-77 147.5q-44 48 -89 66t-99 18 q-123 0 -196 -88t-73 -255z" />
<glyph unicode=":" horiz-adv-x="724" d="M243 0v285h239v-285h-239zM243 832v285h239v-285h-239z" />
<glyph unicode=";" horiz-adv-x="724" d="M122 -370l176 655h250l-280 -655h-146zM243 832v285h239v-285h-239z" />
<glyph unicode="&#x3c;" horiz-adv-x="1490" d="M201 592v120l1074 513v-178l-833 -395l833 -395v-178z" />
<glyph unicode="=" horiz-adv-x="1490" d="M192 362v160h1106v-160h-1106zM192 782v160h1106v-160h-1106z" />
<glyph unicode="&#x3e;" horiz-adv-x="1490" d="M215 79v178l833 395l-833 395v178l1074 -513v-120z" />
<glyph unicode="?" horiz-adv-x="970" d="M109 1245v204q67 27 169 48.5t193 21.5q205 0 323 -104.5t118 -275.5q0 -98 -32.5 -174.5t-86.5 -134.5t-122.5 -107t-144.5 -95v-228h-179v305q56 34 130.5 81.5t116.5 88.5q54 51 84 111.5t30 137.5q0 113 -71 168.5t-185 55.5q-100 0 -188.5 -33.5t-143.5 -69.5h-11z M338 0v211h204v-211h-204z" />
<glyph unicode="@" horiz-adv-x="1862" d="M132 647q0 367 239.5 619t583.5 252q368 0 576 -237.5t208 -617.5q0 -139 -38 -268.5t-109 -237.5h-421l-25 116q-67 -57 -123.5 -90.5t-153.5 -33.5q-154 0 -252 123.5t-98 358.5t120.5 366t275.5 131q72 0 124 -18t105 -48v48h159v-842h227q38 71 54.5 184t16.5 205 q0 327 -166.5 526.5t-478.5 199.5q-296 0 -488.5 -215.5t-192.5 -522.5q0 -330 187 -534.5t489 -204.5q81 0 170.5 11t169.5 35v-142q-84 -20 -170.5 -28t-170.5 -8q-354 0 -586 243t-232 630zM690 634q0 -160 52 -245t166 -85q61 0 120.5 29t113.5 75v518q-56 29 -103 41.5 t-98 12.5q-113 0 -182 -84.5t-69 -261.5z" />
<glyph unicode="A" horiz-adv-x="1228" d="M-10 0l502 1489h244l502 -1489h-209l-135 416h-569l-135 -416h-200zM380 585h459l-230 702z" />
<glyph unicode="B" horiz-adv-x="1207" d="M151 0v1489h395q159 0 238.5 -10.5t152.5 -49.5q80 -43 117 -112.5t37 -163.5q0 -105 -55.5 -188t-153.5 -130v-8q133 -36 206 -131.5t73 -238.5q0 -111 -42 -196t-113 -140q-84 -66 -180 -93.5t-248 -27.5h-427zM349 169h161q130 0 205 12t132 51q56 39 82 88.5 t26 128.5q0 84 -24 138.5t-97 92.5q-47 25 -102.5 32t-157.5 7h-225v-550zM349 884h225q93 0 137 9.5t91 39.5q45 29 64 76t19 116q0 54 -18 93.5t-58 62.5q-48 27 -107 33t-163 6h-190v-436z" />
<glyph unicode="C" horiz-adv-x="1230" d="M66 743q0 187 47.5 326t138.5 242q89 100 211 152.5t273 52.5q75 0 140.5 -11t121.5 -28q48 -15 98.5 -37.5t99.5 -49.5v-239h-16q-26 24 -67 58t-100 67q-57 31 -124 51t-155 20q-95 0 -180 -39t-149 -115q-63 -76 -98 -191t-35 -259q0 -153 37 -263.5t101 -186.5 q62 -74 146 -111.5t178 -37.5q86 0 159 21t130 53q55 31 95 63.5t63 55.5h15v-236q-49 -23 -92.5 -44t-105.5 -41q-65 -21 -120.5 -32t-144.5 -11q-146 0 -268.5 49t-211.5 146t-138 242t-49 333z" />
<glyph unicode="D" horiz-adv-x="1389" d="M151 0v1489h339q210 0 329.5 -31.5t203.5 -86.5q144 -95 223 -252.5t79 -375.5q0 -204 -82.5 -368t-221.5 -256q-113 -71 -229.5 -95t-297.5 -24h-343zM349 170h151q132 0 231 21t181 78q103 70 155 186.5t52 290.5q0 172 -57 293.5t-169 189.5q-79 48 -169 69t-224 21 h-151v-1149z" />
<glyph unicode="E" horiz-adv-x="1149" d="M151 0v1489h931v-176h-733v-408h683v-176h-683v-553h733v-176h-931z" />
<glyph unicode="F" horiz-adv-x="1068" d="M151 0v1489h891v-176h-693v-420h664v-176h-664v-717h-198z" />
<glyph unicode="G" horiz-adv-x="1367" d="M66 746q0 180 50.5 322.5t144.5 243.5q91 98 224 151t291 53q75 0 144 -11t132 -30q50 -15 111.5 -41.5t99.5 -45.5v-239h-17q-37 33 -76.5 62.5t-111.5 63.5q-60 30 -138 50t-168 20q-215 0 -347.5 -162t-132.5 -431q0 -150 35 -262t101 -190q64 -77 154.5 -117.5 t203.5 -40.5q84 0 167 12t140 36v385h-344v174h540v-650q-38 -17 -101.5 -43t-118.5 -41q-73 -22 -132 -33t-143 -11q-158 0 -289 48t-225 146q-94 99 -144 245t-50 336z" />
<glyph unicode="H" horiz-adv-x="1383" d="M151 0v1489h198v-584h685v584h198v-1489h-198v729h-685v-729h-198z" />
<glyph unicode="I" horiz-adv-x="764" d="M93 0v152h190v1185h-190v152h578v-152h-190v-1185h190v-152h-578z" />
<glyph unicode="J" horiz-adv-x="853" d="M9 8v189h11q41 -14 101.5 -31t123.5 -17q92 0 146.5 21t80.5 60q27 40 34.5 98t7.5 134v869h-315v158h513v-1102q0 -196 -119.5 -302t-320.5 -106q-48 0 -128.5 8.5t-134.5 20.5z" />
<glyph unicode="K" horiz-adv-x="1204" d="M151 0v1489h198v-685l610 685h241l-616 -665l652 -824h-257l-543 693l-87 -98v-595h-198z" />
<glyph unicode="L" horiz-adv-x="1019" d="M151 0v1489h198v-1313h665v-176h-863z" />
<glyph unicode="M" horiz-adv-x="1578" d="M151 0v1489h270l372 -829l359 829h275v-1489h-198v1283l-388 -873h-120l-385 873v-1283h-185z" />
<glyph unicode="N" horiz-adv-x="1367" d="M151 0v1489h281l599 -1179v1179h185v-1489h-222l-658 1284v-1284h-185z" />
<glyph unicode="O" horiz-adv-x="1449" d="M66 744q0 188 46.5 330t132.5 244q86 99 207.5 150.5t271.5 51.5q152 0 274 -53t206 -149q85 -98 132 -243t47 -331q0 -181 -46 -327t-133 -245q-91 -104 -212.5 -153.5t-267.5 -49.5q-151 0 -272 51t-208 152q-86 99 -132 244t-46 328zM272 744q0 -293 123 -448.5 t330 -155.5t329.5 155.5t122.5 448.5q0 148 -32 262t-90 189q-59 77 -142.5 115.5t-187.5 38.5q-108 0 -188.5 -37.5t-142.5 -116.5q-59 -76 -90.5 -191t-31.5 -260z" />
<glyph unicode="P" horiz-adv-x="1129" d="M151 0v1489h374q132 0 225 -22t164 -71q83 -57 130 -144.5t47 -211.5q0 -97 -34.5 -183.5t-95.5 -147.5q-77 -76 -181 -115t-263 -39h-168v-555h-198zM349 724h135q120 0 194 19.5t123 69.5q44 45 64 98t20 124q0 77 -26.5 134t-80.5 93q-47 31 -109.5 44t-155.5 13h-164 v-595z" />
<glyph unicode="Q" horiz-adv-x="1449" d="M66 744q0 188 46.5 330t132.5 244q86 99 207.5 150.5t271.5 51.5q152 0 274 -53t206 -149q85 -98 132 -243t47 -331q0 -289 -113 -477t-309 -255q5 -56 19.5 -100.5t37.5 -70.5q27 -31 65.5 -45.5t105.5 -14.5q40 0 94 12.5t78 22.5h27v-180q-54 -14 -113.5 -21 t-118.5 -7q-167 0 -271.5 94t-114.5 268h-25h-21q-151 0 -272.5 51.5t-207.5 150.5t-132 244t-46 328zM272 744q0 -293 123 -449t330 -156t329.5 156t122.5 449q0 148 -32 262t-90 189q-59 77 -142.5 115.5t-187.5 38.5q-108 0 -188.5 -37.5t-142.5 -116.5 q-59 -76 -90.5 -191t-31.5 -260z" />
<glyph unicode="R" horiz-adv-x="1271" d="M151 0v1489h384q128 0 214.5 -14t164.5 -65q78 -50 123.5 -129t45.5 -196q0 -164 -83 -274t-226 -163l530 -648h-257l-472 592h-226v-592h-198zM349 757h174q85 0 153 15t116 62q43 42 63.5 100t20.5 136q0 65 -23 115.5t-71 82.5q-42 28 -98 39.5t-139 11.5h-196v-562z " />
<glyph unicode="S" horiz-adv-x="1141" d="M77 89v248h14q98 -92 222 -142.5t239 -50.5q164 0 248 68.5t84 180.5q0 89 -44 145t-140 83q-69 20 -126 33t-143 35q-77 20 -138 51t-108 81q-46 49 -71.5 115.5t-25.5 153.5q0 181 141 303.5t360 122.5q125 0 236.5 -25t206.5 -71v-237h-15q-71 65 -182 113.5 t-233 48.5q-138 0 -223 -64.5t-85 -169.5q0 -95 50 -151t145 -82q63 -17 154 -38.5t151 -39.5q154 -47 225 -142t71 -234q0 -87 -35.5 -172t-99.5 -144q-72 -65 -162.5 -100t-226.5 -35q-162 0 -275.5 33.5t-213.5 82.5z" />
<glyph unicode="T" horiz-adv-x="1196" d="M-1 1313v176h1198v-176h-500v-1313h-198v1313h-500z" />
<glyph unicode="U" horiz-adv-x="1343" d="M133 560v929h198v-929q0 -103 13 -173.5t51 -126.5q40 -60 108.5 -91t167.5 -31q93 0 165 31t112 91q37 57 50.5 126t13.5 169v934h198v-929q0 -155 -31.5 -266t-110.5 -188q-71 -69 -165.5 -103t-231.5 -34q-131 0 -229 34.5t-167 102.5q-78 78 -110 186.5t-32 267.5z " />
<glyph unicode="V" horiz-adv-x="1222" d="M-8 1489h212l412 -1236l412 1236h202l-512 -1489h-214z" />
<glyph unicode="W" horiz-adv-x="1847" d="M26 1489h203l300 -1238l298 1238h201l301 -1250l298 1250h194l-374 -1489h-223l-303 1236l-296 -1236h-218z" />
<glyph unicode="X" horiz-adv-x="1189" d="M8 0l473 745l-459 744h226l356 -585l361 585h215l-466 -734l467 -755h-227l-363 596l-369 -596h-214z" />
<glyph unicode="Y" horiz-adv-x="1180" d="M-11 1489h220l384 -657l390 657h210l-503 -830v-659h-198v638z" />
<glyph unicode="Z" horiz-adv-x="1145" d="M60 0v184l797 1129h-761v176h984v-179l-806 -1134h826v-176h-1040z" />
<glyph unicode="[" horiz-adv-x="784" d="M166 -392v1948h520v-143h-345v-1662h345v-143h-520z" />
<glyph unicode="\" horiz-adv-x="783" d="M52 1556h172l580 -1880h-169z" />
<glyph unicode="]" horiz-adv-x="784" d="M98 -249h345v1662h-345v143h520v-1948h-520v143z" />
<glyph unicode="^" horiz-adv-x="1490" d="M133 682l549 807h126l549 -805h-198l-415 625l-414 -627h-197z" />
<glyph unicode="_" horiz-adv-x="1118" d="M-16 -170h1150v-130h-1150v130z" />
<glyph unicode="`" horiz-adv-x="1118" d="M248 1676h243l179 -374h-149z" />
<glyph unicode="a" horiz-adv-x="1075" d="M58 324q0 116 49 197.5t155 129.5q94 43 222 59.5t276 24.5v36q0 66 -20 106.5t-56 62.5q-36 23 -88 30.5t-107 7.5q-65 0 -153 -19.5t-176 -56.5h-11v191q52 15 149 33t192 18q115 0 194 -18t142 -65q61 -46 91 -119t30 -178v-764h-187v119q-23 -17 -61.5 -47.5 t-74.5 -48.5q-50 -26 -96.5 -40t-130.5 -14q-69 0 -131 26t-109 73q-45 46 -72 113.5t-27 142.5zM252 336q0 -96 54 -145t158 -49q89 0 161 38.5t135 94.5v310q-67 -6 -169.5 -16.5t-165.5 -29.5q-75 -23 -124 -70.5t-49 -132.5z" />
<glyph unicode="b" horiz-adv-x="1132" d="M136 0v1556h188v-556q71 64 154 106t188 42q189 0 298 -151.5t109 -419.5q0 -274 -133 -441t-333 -167q-91 0 -155.5 22.5t-127.5 60.5l-12 -52h-176zM324 202q71 -35 126 -49.5t121 -14.5q144 0 226 102t82 322q0 200 -61 303.5t-196 103.5q-77 0 -155.5 -36t-142.5 -91 v-640z" />
<glyph unicode="c" horiz-adv-x="945" d="M59 557q0 147 39.5 254t105.5 180t164.5 112.5t211.5 39.5q92 0 177.5 -26t152.5 -60v-211h-11q-20 17 -51.5 39t-76.5 45q-39 20 -92 35t-102 15q-146 0 -234.5 -110.5t-88.5 -312.5q0 -198 85.5 -308.5t237.5 -110.5q92 0 175 38t147 98h11v-211q-28 -13 -70 -31.5 t-76 -27.5q-48 -14 -86 -21.5t-98 -7.5q-115 0 -211 35.5t-165 107.5t-107 181.5t-38 257.5z" />
<glyph unicode="d" horiz-adv-x="1132" d="M59 550q0 147 38 254.5t105 187.5q61 73 147.5 114.5t181.5 41.5q84 0 146 -18.5t131 -57.5v484h188v-1556h-188v114q-44 -37 -76 -61t-75 -44q-40 -19 -83 -29.5t-100 -10.5q-91 0 -168.5 38t-131.5 111q-55 74 -85 182.5t-30 249.5zM253 554q0 -197 63 -301.5 t202 -104.5q74 0 149 33.5t141 90.5v644q-70 34 -125.5 47t-120.5 13q-145 0 -227 -108.5t-82 -313.5z" />
<glyph unicode="e" horiz-adv-x="1078" d="M59 552q0 273 143 434.5t374 161.5q104 0 184 -30t140 -94t92 -156.5t32 -226.5v-102h-774q0 -195 98 -298t271 -103q62 0 121.5 14t107.5 36q51 23 86 44.5t58 40.5h11v-205q-33 -13 -82 -32.5t-88 -30.5q-55 -15 -99.5 -23t-112.5 -8q-267 0 -414.5 150.5t-147.5 427.5 zM250 683h591q-2 76 -18 131t-46 93q-33 42 -84.5 64t-127.5 22q-75 0 -127.5 -22.5t-95.5 -65.5q-42 -44 -64 -97.5t-28 -124.5z" />
<glyph unicode="f" horiz-adv-x="652" d="M29 961v156h127v37q0 202 97 307t278 105q52 0 102 -5.5t91 -12.5v-172h-10q-25 9 -72 17.5t-84 8.5q-119 0 -169.5 -53.5t-50.5 -193.5v-38h311v-156h-305v-961h-188v961h-127z" />
<glyph unicode="g" horiz-adv-x="1132" d="M59 569q0 139 39 246.5t105 182.5q63 72 149 111t178 39q87 0 150.5 -20.5t127.5 -58.5l11 48h177v-990q0 -284 -124 -417t-379 -133q-82 0 -167.5 13t-159.5 35v196h10q19 -8 56 -21.5t84 -25.5q52 -13 96 -21t96 -8q87 0 147.5 23t94.5 64q32 41 45 95t13 123v98 q-76 -66 -149 -97.5t-183 -31.5q-191 0 -304 142t-113 408zM253 573q0 -186 62.5 -283t202.5 -97q73 0 150.5 29t139.5 81v613q-70 34 -129.5 48.5t-118.5 14.5q-143 0 -225 -105t-82 -301z" />
<glyph unicode="h" horiz-adv-x="1142" d="M136 0v1556h188v-563q84 75 166 115t173 40q165 0 258 -108.5t93 -314.5v-725h-188v636q0 77 -7.5 143.5t-28.5 106.5q-23 42 -64 62.5t-112 20.5q-70 0 -144.5 -37.5t-145.5 -97.5v-834h-188z" />
<glyph unicode="i" horiz-adv-x="468" d="M127 1304v195h214v-195h-214zM140 0v1117h188v-1117h-188z" />
<glyph unicode="j" horiz-adv-x="577" d="M-90 -243h11q22 -5 48.5 -9.5t50.5 -4.5q75 0 123.5 18.5t72.5 58.5q22 36 29.5 91t7.5 134v916h-202v156h390v-1149q0 -191 -102.5 -291t-282.5 -100q-31 0 -69.5 3t-76.5 9v168zM228 1304v195h214v-195h-214z" />
<glyph unicode="k" horiz-adv-x="1020" d="M136 0v1556h188v-911l442 472h234l-459 -467l521 -650h-247l-417 539l-74 -72v-467h-188z" />
<glyph unicode="l" horiz-adv-x="468" d="M140 0v1556h188v-1556h-188z" />
<glyph unicode="m" horiz-adv-x="1720" d="M136 0v1117h188v-124q74 74 146.5 114.5t159.5 40.5q99 0 175.5 -45t116.5 -148q85 95 166 144t176 49q72 0 131 -22.5t103 -72.5q45 -51 69.5 -127t24.5 -191v-735h-188v646q0 77 -6 142.5t-25 102.5q-20 40 -57 59t-100 19q-58 0 -124.5 -35.5t-137.5 -102.5 q1 -17 2.5 -40.5t1.5 -55.5v-735h-188v646q0 77 -6 142.5t-25 102.5q-20 40 -57 59t-100 19q-61 0 -128 -38t-130 -97v-834h-188z" />
<glyph unicode="n" horiz-adv-x="1142" d="M136 0v1117h188v-124q84 75 166 115t173 40q165 0 258 -108.5t93 -314.5v-725h-188v636q0 77 -7.5 143.5t-28.5 106.5q-23 42 -64 62.5t-112 20.5q-70 0 -144.5 -37.5t-145.5 -97.5v-834h-188z" />
<glyph unicode="o" horiz-adv-x="1112" d="M57 558q0 280 137.5 435t362.5 155q226 0 362 -154.5t136 -435.5q0 -282 -136 -435.5t-362 -153.5q-233 0 -366.5 158.5t-133.5 430.5zM251 558q0 -210 79.5 -318.5t226.5 -108.5q145 0 224.5 106.5t79.5 320.5q0 217 -79 322.5t-225 105.5q-147 0 -226.5 -105.5 t-79.5 -322.5z" />
<glyph unicode="p" horiz-adv-x="1132" d="M136 -412v1529h188v-117q70 63 155.5 105.5t186.5 42.5q192 0 299.5 -152t107.5 -408q0 -279 -133.5 -444.5t-337.5 -165.5q-83 0 -147 19t-131 59v-468h-188zM324 209q74 -36 126.5 -49t120.5 -13q146 0 227 107t81 313q0 191 -61 296.5t-198 105.5q-80 0 -154.5 -35.5 t-141.5 -91.5v-633z" />
<glyph unicode="q" horiz-adv-x="1132" d="M59 555q0 144 39.5 254.5t104.5 185.5q62 73 148 113t179 40q86 0 149 -20t129 -59l12 48h176v-1529h-188v534q-82 -75 -160 -109.5t-173 -34.5q-190 0 -303 152.5t-113 424.5zM253 564q0 -196 64 -301.5t199 -105.5q79 0 154 34t138 89v636q-71 35 -127 49t-120 14 q-148 0 -228 -107t-80 -308z" />
<glyph unicode="r" horiz-adv-x="738" d="M136 0v1117h188v-166q103 91 179.5 128.5t148.5 37.5q29 0 43.5 -1.5t32.5 -4.5v-196h-10q-21 6 -44.5 7.5t-56.5 1.5q-76 0 -151 -33t-142 -98v-793h-188z" />
<glyph unicode="s" horiz-adv-x="914" d="M67 67v211h10q24 -19 56.5 -42t86.5 -48q48 -22 105.5 -39t119.5 -17q45 0 96 10.5t76 26.5q35 23 50.5 49t15.5 78q0 67 -36.5 101t-129.5 57q-36 9 -94 21t-107 26q-128 37 -186 114.5t-58 187.5q0 151 114 246t303 95q93 0 187 -23t158 -58v-201h-10q-72 57 -160.5 90 t-178.5 33q-93 0 -157 -39t-64 -118q0 -70 38 -104.5t122 -56.5q42 -11 93.5 -21.5t108.5 -24.5q124 -31 186.5 -103t62.5 -196q0 -72 -28.5 -136.5t-83.5 -110.5q-60 -50 -135.5 -76t-189.5 -26q-112 0 -209.5 30t-161.5 64z" />
<glyph unicode="t" horiz-adv-x="685" d="M21 961v156h127v321h188v-321h346v-156h-346v-531q0 -85 3 -131t23 -86q17 -35 55 -52.5t103 -17.5q46 0 89 13.5t62 22.5h11v-169q-53 -15 -107.5 -23.5t-100.5 -8.5q-154 0 -240 87.5t-86 276.5v619h-127z" />
<glyph unicode="u" horiz-adv-x="1142" d="M128 392v725h188v-636q0 -89 6.5 -147.5t29.5 -102.5q23 -43 62.5 -63t113.5 -20q69 0 147 39t143 96v834h188v-1117h-188v124q-87 -76 -165 -115.5t-174 -39.5q-73 0 -137.5 24t-112.5 76t-74.5 131t-26.5 192z" />
<glyph unicode="v" horiz-adv-x="1020" d="M6 1117h203l306 -862l303 862h196l-421 -1117h-169z" />
<glyph unicode="w" horiz-adv-x="1520" d="M30 1117h196l197 -865l265 865h155l272 -865l186 865h189l-283 -1117h-174l-273 861l-271 -861h-173z" />
<glyph unicode="x" horiz-adv-x="1014" d="M10 0l388 554l-384 563h231l269 -418l276 418h214l-386 -550l386 -567h-231l-271 422l-279 -422h-213z" />
<glyph unicode="y" horiz-adv-x="1020" d="M6 1117h203l305 -827l304 827h196l-601 -1529h-201l200 466z" />
<glyph unicode="z" horiz-adv-x="910" d="M49 0v139l584 823h-560v155h786v-134l-587 -826h598v-157h-821z" />
<glyph unicode="{" horiz-adv-x="984" d="M60 504v156h21q88 0 147.5 25.5t96.5 75.5t50 120t13 139v149q0 190 101.5 288.5t280.5 98.5h116v-138h-80q-59 0 -102 -12t-74 -41q-32 -30 -47.5 -83t-15.5 -130v-175q0 -82 -19 -138t-56 -105q-33 -44 -86 -80.5t-110 -59.5v-24q57 -23 109.5 -59.5t86.5 -80.5 q37 -49 56 -105t19 -138v-175q0 -77 15.5 -130t47.5 -83q30 -29 73.5 -41t102.5 -12h80v-138h-116q-179 0 -280.5 98.5t-101.5 288.5v149q0 69 -13 139t-50 120t-96.5 75.5t-147.5 25.5h-21z" />
<glyph unicode="|" horiz-adv-x="783" d="M308 -392v1948h167v-1948h-167z" />
<glyph unicode="}" horiz-adv-x="984" d="M98 -254h80q59 0 102 12t74 41q32 30 47.5 83t15.5 130v175q0 82 19 138t56 105q33 44 86 80.5t110 59.5v24q-57 23 -110 59.5t-86 80.5q-37 49 -56 105t-19 138v175q0 77 -15.5 130t-47.5 83q-31 29 -74 41t-102 12h-80v138h116q179 0 280.5 -98.5t101.5 -288.5v-149 q0 -69 13 -139t50 -120t96.5 -75.5t147.5 -25.5h21v-156h-21q-88 0 -147.5 -25.5t-96.5 -75.5t-50 -120t-13 -139v-149q0 -190 -101.5 -288.5t-280.5 -98.5h-116v138z" />
<glyph unicode="~" horiz-adv-x="1490" d="M134 395q2 104 21.5 199t58.5 167q40 76 106 120.5t156 44.5q60 0 105.5 -16t80.5 -41t64.5 -57t57.5 -67q22 -27 52.5 -66t51.5 -61q29 -30 58.5 -46t62.5 -16q50 0 84.5 28t53.5 76q20 50 29.5 117.5t11.5 149.5h168q-2 -102 -21 -196.5t-60 -169.5q-41 -73 -102 -119 t-159 -46q-57 0 -102.5 15.5t-80.5 40.5t-67 60t-57 65q-27 33 -53 67t-51 60q-27 28 -56 45t-66 17q-50 0 -83 -26.5t-55 -78.5q-21 -50 -29.5 -120t-11.5 -146h-168z" />
<glyph unicode="&#xa1;" horiz-adv-x="680" d="M228 0l28 1079h166l30 -1079h-224zM238 1278v211h204v-211h-204z" />
<glyph unicode="&#xa2;" horiz-adv-x="1118" d="M114 557q0 238 118 386t325 172v360h114v-359q87 -3 167.5 -26.5t136.5 -52.5v-200h-10q-62 51 -132 89t-162 51v-836q49 5 98.5 23t83.5 38q36 21 64 41.5t48 37.5h10v-198q-65 -30 -135.5 -53.5t-168.5 -28.5v-362h-114v363q-215 25 -329 169t-114 386zM307 557 q0 -188 68.5 -289.5t181.5 -121.5v825q-116 -21 -183 -125.5t-67 -288.5z" />
<glyph unicode="&#xa3;" horiz-adv-x="1118" d="M89 0v207q111 33 156.5 128t45.5 278h-161v138h161v320q0 201 116 324t301 123q97 0 166 -15.5t127 -32.5v-206h-10q-58 41 -129 64t-135 23q-123 0 -183.5 -77t-60.5 -222v-301h364v-138h-364v-61q0 -117 -58.5 -212.5t-163.5 -157.5v-11h770v-171h-942z" />
<glyph unicode="&#xa4;" horiz-adv-x="1118" d="M65 273l212 213q-25 40 -38.5 86.5t-13.5 88.5q0 44 13.5 88.5t39.5 85.5l-213 216l107 106l214 -213q37 24 83 38t91 14q52 0 97.5 -15.5t78.5 -35.5l212 212l109 -105l-214 -216q27 -43 40 -83t13 -92q0 -45 -14.5 -91.5t-38.5 -83.5l214 -214l-106 -106l-214 212 q-45 -27 -84 -39.5t-93 -12.5q-46 0 -92.5 15t-82.5 38l-215 -215zM368 661q0 -80 56.5 -138.5t135.5 -58.5q77 0 134.5 57.5t57.5 139.5q0 80 -56.5 138.5t-135.5 58.5q-77 0 -134.5 -57.5t-57.5 -139.5z" />
<glyph unicode="&#xa5;" horiz-adv-x="1118" d="M56 1489h210l294 -639l298 639h201l-408 -811v-100h342v-138h-340v-440h-188v440h-340v138h342v79z" />
<glyph unicode="&#xa6;" horiz-adv-x="783" d="M308 -392v798h167v-798h-167zM308 758v798h167v-798h-167z" />
<glyph unicode="&#xa7;" horiz-adv-x="1118" d="M119 533q0 94 49 178.5t150 146.5v7q-91 50 -130.5 121t-39.5 161q0 168 128 270t352 102q85 0 157 -13t161 -44v-194h-10q-90 45 -167.5 66t-161.5 21q-112 0 -189.5 -45.5t-77.5 -133.5q0 -57 20.5 -93t59.5 -59q39 -24 99.5 -43t137.5 -39q184 -50 262.5 -128.5 t78.5 -212.5q0 -108 -54.5 -189t-144.5 -135v-7q87 -46 128.5 -116t41.5 -164q0 -74 -31.5 -145t-89.5 -119q-62 -53 -148.5 -82t-209.5 -29q-79 0 -157 14t-161 44v194h10q26 -13 64.5 -29t74.5 -28q47 -15 87 -22.5t101 -7.5q114 0 190.5 46.5t76.5 137.5q0 54 -18.5 87.5 t-59.5 59.5q-42 25 -103.5 42.5t-134.5 38.5q-88 25 -146.5 51t-105.5 69q-45 41 -67 95t-22 126zM308 579q0 -81 38 -129t146 -81q34 -10 77.5 -23.5t97.5 -30.5q19 12 44 33t48 53q24 35 37.5 67.5t13.5 86.5q0 49 -14.5 85t-39.5 59q-24 23 -56 38.5t-74 28.5 q-33 10 -77 22.5t-99 30.5q-20 -12 -41.5 -30t-47.5 -51q-20 -26 -36.5 -70t-16.5 -89z" />
<glyph unicode="&#xa8;" horiz-adv-x="1118" d="M253 1304v195h201v-195h-201zM666 1304v195h201v-195h-201z" />
<glyph unicode="&#xa9;" horiz-adv-x="1902" d="M86 655q0 358 253.5 611t611.5 253t611.5 -253t253.5 -611t-253.5 -611.5t-611.5 -253.5t-611.5 253.5t-253.5 611.5zM203 655q0 -313 219.5 -534t529.5 -221t529.5 221t219.5 534t-219.5 533.5t-529.5 220.5t-529.5 -220.5t-219.5 -533.5zM531 660q0 230 125 356.5 t326 126.5q83 0 159 -22t133 -51v-181h-16q-43 38 -119 72.5t-153 34.5q-123 0 -196.5 -82t-73.5 -254q0 -162 70 -247.5t200 -85.5q84 0 159 36.5t113 70.5h16v-179q-67 -30 -134 -52.5t-158 -22.5q-209 0 -330 123.5t-121 356.5z" />
<glyph unicode="&#xaa;" horiz-adv-x="1010" d="M114 839q0 104 43 169.5t123 103.5q75 36 189 51t239 21v19q0 52 -16.5 84t-48.5 50q-29 17 -72 22.5t-89 5.5q-78 0 -158.5 -23.5t-119.5 -37.5h-15v170q44 13 131.5 29t162.5 16q192 0 291.5 -76.5t99.5 -248.5v-628h-166v91q-19 -15 -51 -38.5t-63 -37.5 q-41 -19 -80.5 -29.5t-109.5 -10.5q-124 0 -207 83.5t-83 214.5zM286 849q0 -75 44 -114t131 -39q76 0 136.5 33t110.5 73v243q-65 -4 -151 -12t-137 -23q-60 -17 -97 -55.5t-37 -105.5z" />
<glyph unicode="&#xab;" horiz-adv-x="1174" d="M103 608v89l510 445v-196l-331 -294l331 -294v-196zM555 610v85l488 418v-188l-317 -273l317 -273v-188z" />
<glyph unicode="&#xac;" horiz-adv-x="1490" d="M157 602v160h1166v-705h-171v545h-995z" />
<glyph unicode="&#xad;" horiz-adv-x="744" d="M90 561v181h564v-181h-564z" />
<glyph unicode="&#xae;" horiz-adv-x="1902" d="M86 655q0 358 253.5 611t611.5 253t611.5 -253t253.5 -611t-253.5 -611.5t-611.5 -253.5t-611.5 253.5t-253.5 611.5zM203 655q0 -313 219.5 -534t529.5 -221t529.5 221t219.5 534t-219.5 533.5t-529.5 220.5t-529.5 -220.5t-219.5 -533.5zM650 215v915h279 q94 0 148.5 -7t110.5 -39q60 -34 87 -82t27 -123q0 -100 -55.5 -164t-144.5 -100l346 -400h-227l-283 355h-123v-355h-165zM815 696h98q48 0 90 9.5t68 32.5t37.5 53t11.5 77q0 37 -12 64t-42 46q-25 16 -56 21.5t-80 5.5h-115v-309z" />
<glyph unicode="&#xaf;" horiz-adv-x="1118" d="M-16 1659v130h1150v-130h-1150z" />
<glyph unicode="&#xb0;" horiz-adv-x="964" d="M101 1135q0 160 110 270t271 110t271 -110t110 -270t-110 -270t-271 -110q-159 0 -270 109t-111 271zM258 1135q0 -98 65.5 -163t158.5 -65q96 0 160 66.5t64 161.5q0 96 -64 162t-160 66t-160 -66t-64 -162z" />
<glyph unicode="&#xb1;" horiz-adv-x="1490" d="M162 159v158h500v422h-500v158h500v505h166v-505h500v-158h-500v-422h500v-158h-1166z" />
<glyph unicode="&#xb2;" horiz-adv-x="1010" d="M185 566v152q77 59 147.5 113.5t114.5 97.5q106 102 139 159.5t33 138.5q0 69 -43 106.5t-119 37.5q-69 0 -139.5 -30t-111.5 -62h-15v179q63 27 139.5 44t150.5 17q156 0 239.5 -78.5t83.5 -201.5q0 -85 -39.5 -163.5t-147.5 -175.5q-52 -46 -121 -97.5t-123 -92.5h493 v-144h-681z" />
<glyph unicode="&#xb3;" horiz-adv-x="1010" d="M184 600v175h17q37 -35 114 -64.5t156 -29.5q84 0 139 36.5t55 108.5t-43.5 107t-147.5 35h-140v139h125q87 0 134.5 38t47.5 104q0 60 -41 95.5t-128 35.5q-66 0 -142.5 -31t-113.5 -66h-17v175q64 27 139 44t154 17q152 0 237 -70t85 -168q0 -87 -48.5 -143.5 t-125.5 -82.5v-8q80 -16 138.5 -70.5t58.5 -148.5q0 -71 -30 -127.5t-78 -89.5q-53 -37 -114.5 -53t-140.5 -16q-82 0 -153.5 15t-136.5 43z" />
<glyph unicode="&#xb4;" horiz-adv-x="1118" d="M449 1302l179 374h243l-273 -374h-149z" />
<glyph unicode="&#xb5;" horiz-adv-x="1163" d="M136 -412v1529h188v-842q42 -50 105 -80.5t149 -30.5q90 0 151.5 29t109.5 82v842h188v-1117h-172v116h-6q-60 -63 -120.5 -98t-150.5 -35q-92 0 -145 35t-109 97v-527h-188z" />
<glyph unicode="&#xb6;" horiz-adv-x="1118" d="M57 1050q0 207 130 323t373 116h422v-1852h-140v1722h-187v-1722h-140v956q-206 5 -332 129t-126 328z" />
<glyph unicode="&#xb7;" horiz-adv-x="724" d="M243 832v285h239v-285h-239z" />
<glyph unicode="&#xb8;" horiz-adv-x="1118" d="M289 -239h9q24 -11 63 -22.5t79 -11.5q94 0 134 39.5t40 126.5q0 26 -1 57t-3 70h157q1 -18 3.5 -45.5t2.5 -63.5q0 -162 -87 -248t-220 -86q-37 0 -87 6t-90 18v160z" />
<glyph unicode="&#xb9;" horiz-adv-x="1010" d="M248 1256v112q45 0 94 6t74 19q31 16 48.5 38t20.5 62h135v-805h191v-122h-555v122h204v568h-212z" />
<glyph unicode="&#xba;" horiz-adv-x="1010" d="M85 1030q0 233 117 361.5t304 128.5t303.5 -127t116.5 -363q0 -234 -117 -362t-303 -128q-193 0 -307 131.5t-114 358.5zM265 1030q0 -169 64 -254.5t177 -85.5q111 0 175.5 85.5t64.5 254.5q0 173 -64.5 256.5t-175.5 83.5t-176 -82.5t-65 -257.5z" />
<glyph unicode="&#xbb;" horiz-adv-x="1174" d="M131 191v188l317 273l-317 273v188l488 -418v-85zM561 162v196l331 294l-331 294v196l510 -445v-89z" />
<glyph unicode="&#xbc;" horiz-adv-x="2048" d="M171 1246v117q102 0 165 22t72 108h137v-928h-165v681h-209zM465 0l780 1489h165l-780 -1489h-165zM1079 220v185l456 539h149v-591h163v-133h-163v-220h-150v220h-455zM1195 353h343v400z" />
<glyph unicode="&#xbd;" horiz-adv-x="2048" d="M171 1246v117q102 0 165 22t72 108h137v-928h-165v681h-209zM465 0l780 1489h165l-780 -1489h-165zM1265 0v143q77 59 147.5 113.5t114.5 97.5q106 102 139 159.5t33 138.5q0 69 -43 106.5t-119 37.5q-69 0 -139.5 -30t-111.5 -62h-15v179q63 27 139.5 44t150.5 17 q156 0 239.5 -78.5t83.5 -201.5q0 -114 -56.5 -193.5t-130.5 -145.5q-56 -49 -122.5 -97.5t-119.5 -88.5h491v-139h-681z" />
<glyph unicode="&#xbe;" horiz-adv-x="2048" d="M140 598v175h17q37 -35 114 -64.5t156 -29.5q84 0 139 36.5t55 108.5q0 83 -50 112.5t-141 29.5h-140v139h125q87 0 134.5 38t47.5 104q0 60 -41 95.5t-128 35.5q-66 0 -142.5 -31t-113.5 -66h-17v175q64 27 139 44t154 17q152 0 237 -70t85 -168q0 -87 -48.5 -143.5 t-125.5 -82.5v-8q80 -16 138.5 -70.5t58.5 -148.5q0 -71 -30 -127.5t-78 -89.5q-53 -37 -114.5 -53t-140.5 -16q-82 0 -153.5 15t-136.5 43zM555 0l780 1489h165l-780 -1489h-165zM1135 220v185l456 539h149v-591h163v-133h-163v-220h-150v220h-455zM1251 353h343v400z" />
<glyph unicode="&#xbf;" horiz-adv-x="970" d="M58 350q0 94 30 168t89 141q53 59 122.5 106.5t144.5 95.5v228h179v-305q-71 -43 -131.5 -81t-115.5 -89q-51 -48 -82.5 -109t-31.5 -140q0 -113 71 -168.5t185 -55.5q99 0 191 34.5t141 68.5h11v-204q-79 -30 -167 -50t-195 -20q-205 0 -323 104.5t-118 275.5zM428 1278 v211h204v-211h-204z" />
<glyph unicode="&#xc0;" horiz-adv-x="1228" d="M-10 0l502 1489h244l502 -1489h-209l-135 416h-569l-135 -416h-200zM347 2049h243l179 -374h-149zM380 585h459l-230 702z" />
<glyph unicode="&#xc1;" horiz-adv-x="1228" d="M-10 0l502 1489h244l502 -1489h-209l-135 416h-569l-135 -416h-200zM380 585h459l-230 702zM440 1675l179 374h243l-273 -374h-149z" />
<glyph unicode="&#xc2;" horiz-adv-x="1228" d="M-10 0l502 1489h244l502 -1489h-209l-135 416h-569l-135 -416h-200zM257 1650l228 379h227l228 -379h-159l-185 256l-184 -256h-155zM380 585h459l-230 702z" />
<glyph unicode="&#xc3;" horiz-adv-x="1228" d="M-10 0l502 1489h244l502 -1489h-209l-135 416h-569l-135 -416h-200zM211 1649q7 154 76 232.5t169 78.5q51 0 94 -19.5t86 -57.5q43 -39 77.5 -59.5t63.5 -20.5q47 0 68.5 45t24.5 117h140q-10 -156 -74.5 -234t-171.5 -78q-52 0 -96 19t-86 59q-44 41 -76 62.5t-63 21.5 q-49 0 -68.5 -45t-23.5 -121h-140zM380 585h459l-230 702z" />
<glyph unicode="&#xc4;" horiz-adv-x="1228" d="M-10 0l502 1489h244l502 -1489h-209l-135 416h-569l-135 -416h-200zM299 1657v195h201v-195h-201zM380 585h459l-230 702zM712 1657v195h201v-195h-201z" />
<glyph unicode="&#xc5;" horiz-adv-x="1228" d="M-10 0l479 1422q-72 40 -116.5 108.5t-44.5 154.5q0 128 89 214.5t217 86.5q129 0 217.5 -86t88.5 -215q0 -84 -45.5 -153t-116.5 -107l480 -1425h-209l-135 416h-569l-135 -416h-200zM380 584h459l-230 705zM455 1683q0 -74 45 -122.5t114 -48.5t114 48.5t45 122.5 q0 73 -44 121.5t-115 48.5q-70 0 -114.5 -48.5t-44.5 -121.5z" />
<glyph unicode="&#xc6;" horiz-adv-x="1870" d="M-39 0l603 1489h1238v-176h-716v-408h666v-176h-666v-553h716v-176h-912v557h-505l-217 -557h-207zM451 723h439v601h-194z" />
<glyph unicode="&#xc7;" horiz-adv-x="1230" d="M66 743q0 187 47.5 326t138.5 242q89 100 211 152.5t273 52.5q75 0 140.5 -11t121.5 -28q48 -15 98.5 -37.5t99.5 -49.5v-239h-16q-26 24 -67 58t-100 67q-57 31 -124 51t-155 20q-95 0 -180 -39t-149 -115q-63 -76 -98 -191t-35 -259q0 -153 37 -263.5t101 -186.5 q62 -74 146 -111.5t178 -37.5q86 0 159 21t130 53q55 31 95 63.5t63 55.5h15v-236q-49 -23 -92.5 -44t-105.5 -41q-8 -3 -23 -7.5t-21 -5.5q1 -15 3 -39t2 -53q0 -149 -82 -241.5t-227 -92.5q-37 0 -87 6t-90 18v160h9q24 -11 63 -22.5t79 -11.5q94 0 138 39.5t44 126.5 q0 18 -0.5 38t-1.5 45q-18 -1 -33.5 -2t-37.5 -1q-146 0 -268.5 49t-211.5 146t-138 242t-49 333z" />
<glyph unicode="&#xc8;" horiz-adv-x="1149" d="M151 0v1489h931v-176h-733v-408h683v-176h-683v-553h733v-176h-931zM332 2049h243l179 -374h-149z" />
<glyph unicode="&#xc9;" horiz-adv-x="1149" d="M151 0v1489h931v-176h-733v-408h683v-176h-683v-553h733v-176h-931zM498 1675l179 374h243l-273 -374h-149z" />
<glyph unicode="&#xca;" horiz-adv-x="1149" d="M151 0v1489h931v-176h-733v-408h683v-176h-683v-553h733v-176h-931zM278 1670l228 379h227l228 -379h-159l-185 256l-184 -256h-155z" />
<glyph unicode="&#xcb;" horiz-adv-x="1149" d="M151 0v1489h931v-176h-733v-408h683v-176h-683v-553h733v-176h-931zM352 1677v195h201v-195h-201zM765 1677v195h201v-195h-201z" />
<glyph unicode="&#xcc;" horiz-adv-x="764" d="M93 0v152h190v1185h-190v152h578v-152h-190v-1185h190v-152h-578zM107 2049h243l179 -374h-149z" />
<glyph unicode="&#xcd;" horiz-adv-x="764" d="M93 0v152h190v1185h-190v152h578v-152h-190v-1185h190v-152h-578zM235 1675l179 374h243l-273 -374h-149z" />
<glyph unicode="&#xce;" horiz-adv-x="764" d="M42 1670l228 379h227l228 -379h-159l-185 256l-184 -256h-155zM93 0v152h190v1185h-190v152h578v-152h-190v-1185h190v-152h-578z" />
<glyph unicode="&#xcf;" horiz-adv-x="764" d="M76 1677v195h201v-195h-201zM93 0v152h190v1185h-190v152h578v-152h-190v-1185h190v-152h-578zM489 1677v195h201v-195h-201z" />
<glyph unicode="&#xd0;" horiz-adv-x="1430" d="M24 740v143h168v606h339q210 0 329.5 -31.5t203.5 -86.5q144 -95 223 -252.5t79 -375.5q0 -204 -82.5 -368t-221.5 -256q-111 -74 -228.5 -96.5t-298.5 -22.5h-343v740h-168zM390 170h151q132 0 231 21.5t181 77.5q103 70 155 186.5t52 290.5q0 172 -57 293.5t-169 189.5 q-79 48 -169 69t-224 21h-151v-436h327v-143h-327v-570z" />
<glyph unicode="&#xd1;" horiz-adv-x="1367" d="M151 0v1489h281l599 -1179v1179h185v-1489h-222l-658 1284v-1284h-185zM311 1669q7 154 76 232.5t169 78.5q51 0 94 -19.5t86 -57.5q43 -39 77.5 -59.5t63.5 -20.5q47 0 68.5 45t24.5 117h140q-10 -156 -74.5 -234t-171.5 -78q-52 0 -96 19t-86 59q-44 41 -76 62.5 t-63 21.5q-49 0 -68.5 -45t-23.5 -121h-140z" />
<glyph unicode="&#xd2;" horiz-adv-x="1449" d="M66 744q0 188 46.5 330t132.5 244q86 99 207.5 150.5t271.5 51.5q152 0 274 -53t206 -149q85 -98 132 -243t47 -331q0 -181 -46 -327t-133 -245q-91 -104 -212.5 -153.5t-267.5 -49.5q-151 0 -272 51t-208 152q-86 99 -132 244t-46 328zM272 744q0 -293 123 -448.5 t330 -155.5t329.5 155.5t122.5 448.5q0 148 -32 262t-90 189q-59 77 -142.5 115.5t-187.5 38.5q-108 0 -188.5 -37.5t-142.5 -116.5q-59 -76 -90.5 -191t-31.5 -260zM429 2049h243l179 -374h-149z" />
<glyph unicode="&#xd3;" horiz-adv-x="1449" d="M66 744q0 188 46.5 330t132.5 244q86 99 207.5 150.5t271.5 51.5q152 0 274 -53t206 -149q85 -98 132 -243t47 -331q0 -181 -46 -327t-133 -245q-91 -104 -212.5 -153.5t-267.5 -49.5q-151 0 -272 51t-208 152q-86 99 -132 244t-46 328zM272 744q0 -293 123 -448.5 t330 -155.5t329.5 155.5t122.5 448.5q0 148 -32 262t-90 189q-59 77 -142.5 115.5t-187.5 38.5q-108 0 -188.5 -37.5t-142.5 -116.5q-59 -76 -90.5 -191t-31.5 -260zM580 1675l179 374h243l-273 -374h-149z" />
<glyph unicode="&#xd4;" horiz-adv-x="1449" d="M66 744q0 188 46.5 330t132.5 244q86 99 207.5 150.5t271.5 51.5q152 0 274 -53t206 -149q85 -98 132 -243t47 -331q0 -181 -46 -327t-133 -245q-91 -104 -212.5 -153.5t-267.5 -49.5q-151 0 -272 51t-208 152q-86 99 -132 244t-46 328zM272 744q0 -293 123 -448.5 t330 -155.5t329.5 155.5t122.5 448.5q0 148 -32 262t-90 189q-59 77 -142.5 115.5t-187.5 38.5q-108 0 -188.5 -37.5t-142.5 -116.5q-59 -76 -90.5 -191t-31.5 -260zM372 1670l228 379h227l228 -379h-159l-185 256l-184 -256h-155z" />
<glyph unicode="&#xd5;" horiz-adv-x="1449" d="M66 744q0 188 46.5 330t132.5 244q86 99 207.5 150.5t271.5 51.5q152 0 274 -53t206 -149q85 -98 132 -243t47 -331q0 -181 -46 -327t-133 -245q-91 -104 -212.5 -153.5t-267.5 -49.5q-151 0 -272 51t-208 152q-86 99 -132 244t-46 328zM272 744q0 -293 123 -448.5 t330 -155.5t329.5 155.5t122.5 448.5q0 148 -32 262t-90 189q-59 77 -142.5 115.5t-187.5 38.5q-108 0 -188.5 -37.5t-142.5 -116.5q-59 -76 -90.5 -191t-31.5 -260zM311 1669q7 154 76 232.5t169 78.5q51 0 94 -19.5t86 -57.5q43 -39 77.5 -59.5t63.5 -20.5q47 0 68.5 45 t24.5 117h140q-10 -156 -74.5 -234t-171.5 -78q-52 0 -96 19t-86 59q-44 41 -76 62.5t-63 21.5q-49 0 -68.5 -45t-23.5 -121h-140z" />
<glyph unicode="&#xd6;" horiz-adv-x="1449" d="M66 744q0 188 46.5 330t132.5 244q86 99 207.5 150.5t271.5 51.5q152 0 274 -53t206 -149q85 -98 132 -243t47 -331q0 -181 -46 -327t-133 -245q-91 -104 -212.5 -153.5t-267.5 -49.5q-151 0 -272 51t-208 152q-86 99 -132 244t-46 328zM272 744q0 -293 123 -448.5 t330 -155.5t329.5 155.5t122.5 448.5q0 148 -32 262t-90 189q-59 77 -142.5 115.5t-187.5 38.5q-108 0 -188.5 -37.5t-142.5 -116.5q-59 -76 -90.5 -191t-31.5 -260zM413 1677v195h201v-195h-201zM826 1677v195h201v-195h-201z" />
<glyph unicode="&#xd7;" horiz-adv-x="1490" d="M208 226l430 426l-430 426l111 111l426 -430l426 430l111 -111l-430 -426l430 -426l-111 -111l-426 430l-426 -430z" />
<glyph unicode="&#xd8;" horiz-adv-x="1449" d="M66 744q0 368 180.5 572t477.5 204q114 0 203.5 -27.5t169.5 -82.5l115 171h148l-171 -251q91 -100 142.5 -243.5t51.5 -342.5q0 -368 -180 -571.5t-479 -203.5q-110 0 -204.5 29t-171.5 82l-132 -196h-148l189 278q-90 99 -140.5 245t-50.5 337zM270 744 q0 -135 26 -239.5t73 -180.5l626 936q-52 44 -120 66.5t-150 22.5q-208 0 -331.5 -154t-123.5 -451zM450 232q57 -46 120.5 -69t154.5 -23q206 0 330 155.5t124 448.5q0 138 -27.5 246t-73.5 179z" />
<glyph unicode="&#xd9;" horiz-adv-x="1343" d="M133 560v929h198v-929q0 -103 13 -173.5t51 -126.5q40 -60 108.5 -91t167.5 -31q93 0 165 31t112 91q37 57 50.5 126t13.5 169v934h198v-929q0 -155 -31.5 -266t-110.5 -188q-71 -69 -165.5 -103t-231.5 -34q-131 0 -229 34.5t-167 102.5q-78 78 -110 186.5t-32 267.5z M432 2049h243l179 -374h-149z" />
<glyph unicode="&#xda;" horiz-adv-x="1343" d="M133 560v929h198v-929q0 -103 13 -173.5t51 -126.5q40 -60 108.5 -91t167.5 -31q93 0 165 31t112 91q37 57 50.5 126t13.5 169v934h198v-929q0 -155 -31.5 -266t-110.5 -188q-71 -69 -165.5 -103t-231.5 -34q-131 0 -229 34.5t-167 102.5q-78 78 -110 186.5t-32 267.5z M573 1675l179 374h243l-273 -374h-149z" />
<glyph unicode="&#xdb;" horiz-adv-x="1343" d="M133 560v929h198v-929q0 -103 13 -173.5t51 -126.5q40 -60 108.5 -91t167.5 -31q93 0 165 31t112 91q37 57 50.5 126t13.5 169v934h198v-929q0 -155 -31.5 -266t-110.5 -188q-71 -69 -165.5 -103t-231.5 -34q-131 0 -229 34.5t-167 102.5q-78 78 -110 186.5t-32 267.5z M323 1670l228 379h227l228 -379h-159l-185 256l-184 -256h-155z" />
<glyph unicode="&#xdc;" horiz-adv-x="1343" d="M133 560v929h198v-929q0 -103 13 -173.5t51 -126.5q40 -60 108.5 -91t167.5 -31q93 0 165 31t112 91q37 57 50.5 126t13.5 169v934h198v-929q0 -155 -31.5 -266t-110.5 -188q-71 -69 -165.5 -103t-231.5 -34q-131 0 -229 34.5t-167 102.5q-78 78 -110 186.5t-32 267.5z M390 1677v195h201v-195h-201zM803 1677v195h201v-195h-201z" />
<glyph unicode="&#xdd;" horiz-adv-x="1180" d="M-11 1489h220l384 -657l390 657h210l-503 -830v-659h-198v638zM469 1675l179 374h243l-273 -374h-149z" />
<glyph unicode="&#xde;" horiz-adv-x="1158" d="M151 0v1489h198v-270h175q133 0 230 -22.5t164 -66.5q83 -53 130 -138t47 -205q0 -92 -35 -176.5t-95 -141.5q-78 -75 -187.5 -111t-260.5 -36h-168v-322h-198zM349 488h137q119 0 195 20.5t123 65.5q44 41 64.5 92t20.5 116q0 72 -26 125.5t-82 88.5q-48 30 -112 42.5 t-154 12.5h-166v-563z" />
<glyph unicode="&#xdf;" horiz-adv-x="1123" d="M136 0v1080q0 130 34 218t95 150q60 60 142.5 89t174.5 29q168 0 279.5 -85t111.5 -240q0 -112 -71 -201t-184 -121v-9q164 -37 257 -147t93 -282q0 -218 -135 -361.5t-351 -143.5q-25 0 -62.5 3t-59.5 7v166h10q28 -8 59 -12.5t61 -4.5q77 0 131.5 27.5t87.5 74.5 q35 51 49.5 111t14.5 141q0 169 -103 248.5t-304 79.5v157q152 0 233.5 57.5t81.5 190.5q0 33 -10 68.5t-34 63.5q-24 29 -62 46.5t-97 17.5q-53 0 -96 -14.5t-81 -54.5q-36 -37 -56.5 -103t-20.5 -160v-1086h-188z" />
<glyph unicode="&#xe0;" horiz-adv-x="1075" d="M58 324q0 116 49 197.5t155 129.5q94 43 222 59.5t276 24.5v36q0 66 -20 106.5t-56 62.5q-36 23 -88 30.5t-107 7.5q-65 0 -153 -19.5t-176 -56.5h-11v191q52 15 149 33t192 18q115 0 194 -18t142 -65q61 -46 91 -119t30 -178v-764h-187v119q-23 -17 -61.5 -47.5 t-74.5 -48.5q-50 -26 -96.5 -40t-130.5 -14q-69 0 -131 26t-109 73q-45 46 -72 113.5t-27 142.5zM246 1676h243l179 -374h-149zM252 336q0 -96 54 -145t158 -49q89 0 161 38.5t135 94.5v310q-67 -6 -169.5 -16.5t-165.5 -29.5q-75 -23 -124 -70.5t-49 -132.5z" />
<glyph unicode="&#xe1;" horiz-adv-x="1075" d="M58 324q0 116 49 197.5t155 129.5q94 43 222 59.5t276 24.5v36q0 66 -20 106.5t-56 62.5q-36 23 -88 30.5t-107 7.5q-65 0 -153 -19.5t-176 -56.5h-11v191q52 15 149 33t192 18q115 0 194 -18t142 -65q61 -46 91 -119t30 -178v-764h-187v119q-23 -17 -61.5 -47.5 t-74.5 -48.5q-50 -26 -96.5 -40t-130.5 -14q-69 0 -131 26t-109 73q-45 46 -72 113.5t-27 142.5zM252 336q0 -96 54 -145t158 -49q89 0 161 38.5t135 94.5v310q-67 -6 -169.5 -16.5t-165.5 -29.5q-75 -23 -124 -70.5t-49 -132.5zM415 1302l179 374h243l-273 -374h-149z" />
<glyph unicode="&#xe2;" horiz-adv-x="1075" d="M58 324q0 116 49 197.5t155 129.5q94 43 222 59.5t276 24.5v36q0 66 -20 106.5t-56 62.5q-36 23 -88 30.5t-107 7.5q-65 0 -153 -19.5t-176 -56.5h-11v191q52 15 149 33t192 18q115 0 194 -18t142 -65q61 -46 91 -119t30 -178v-764h-187v119q-23 -17 -61.5 -47.5 t-74.5 -48.5q-50 -26 -96.5 -40t-130.5 -14q-69 0 -131 26t-109 73q-45 46 -72 113.5t-27 142.5zM193 1297l228 379h227l228 -379h-159l-185 256l-184 -256h-155zM252 336q0 -96 54 -145t158 -49q89 0 161 38.5t135 94.5v310q-67 -6 -169.5 -16.5t-165.5 -29.5 q-75 -23 -124 -70.5t-49 -132.5z" />
<glyph unicode="&#xe3;" horiz-adv-x="1075" d="M58 324q0 116 49 197.5t155 129.5q94 43 222 59.5t276 24.5v36q0 66 -20 106.5t-56 62.5q-36 23 -88 30.5t-107 7.5q-65 0 -153 -19.5t-176 -56.5h-11v191q52 15 149 33t192 18q115 0 194 -18t142 -65q61 -46 91 -119t30 -178v-764h-187v119q-23 -17 -61.5 -47.5 t-74.5 -48.5q-50 -26 -96.5 -40t-130.5 -14q-69 0 -131 26t-109 73q-45 46 -72 113.5t-27 142.5zM134 1316q7 154 76 232.5t169 78.5q51 0 94 -19.5t86 -57.5q43 -39 77.5 -59.5t63.5 -20.5q47 0 68.5 45t24.5 117h140q-10 -156 -74.5 -234t-171.5 -78q-52 0 -96 19t-86 59 q-44 41 -76 62.5t-63 21.5q-49 0 -68.5 -45t-23.5 -121h-140zM252 336q0 -96 54 -145t158 -49q89 0 161 38.5t135 94.5v310q-67 -6 -169.5 -16.5t-165.5 -29.5q-75 -23 -124 -70.5t-49 -132.5z" />
<glyph unicode="&#xe4;" horiz-adv-x="1075" d="M58 324q0 116 49 197.5t155 129.5q94 43 222 59.5t276 24.5v36q0 66 -20 106.5t-56 62.5q-36 23 -88 30.5t-107 7.5q-65 0 -153 -19.5t-176 -56.5h-11v191q52 15 149 33t192 18q115 0 194 -18t142 -65q61 -46 91 -119t30 -178v-764h-187v119q-23 -17 -61.5 -47.5 t-74.5 -48.5q-50 -26 -96.5 -40t-130.5 -14q-69 0 -131 26t-109 73q-45 46 -72 113.5t-27 142.5zM221 1304v195h201v-195h-201zM252 336q0 -96 54 -145t158 -49q89 0 161 38.5t135 94.5v310q-67 -6 -169.5 -16.5t-165.5 -29.5q-75 -23 -124 -70.5t-49 -132.5zM634 1304v195 h201v-195h-201z" />
<glyph unicode="&#xe5;" horiz-adv-x="1075" d="M58 324q0 116 49 197.5t155 129.5q94 43 222 59.5t276 24.5v36q0 66 -20 106.5t-56 62.5q-36 23 -88 30.5t-107 7.5q-52 0 -104.5 -10t-86.5 -19q-46 -12 -82 -25.5t-56 -21.5h-11v191q47 14 117.5 27t159.5 19q-90 36 -148 110t-58 172q0 128 89 214.5t217 86.5 q129 0 217.5 -86t88.5 -215q0 -99 -60.5 -176t-157.5 -111q86 -12 146.5 -39t99.5 -68q43 -46 65 -109.5t22 -153.5v-764h-187v119q-23 -17 -61.5 -47t-74.5 -49q-50 -26 -96.5 -40t-130.5 -14q-69 0 -131 26t-109 73q-46 46 -72.5 113.5t-26.5 142.5zM252 336 q0 -96 54 -145t158 -49q89 0 161 38.5t135 94.5v310q-67 -6 -169.5 -16.5t-165.5 -29.5q-75 -23 -124 -70.5t-49 -132.5zM367 1420q0 -74 45 -123t114 -49t114 49t45 123q0 73 -44 121.5t-115 48.5q-70 0 -114.5 -48.5t-44.5 -121.5z" />
<glyph unicode="&#xe6;" horiz-adv-x="1802" d="M58 317q0 129 53 204t150 117q92 39 231.5 52t293.5 16v58q0 65 -21.5 108t-60.5 67q-36 22 -87.5 31.5t-116.5 9.5q-81 0 -176.5 -26.5t-152.5 -51.5h-15v191q49 14 151.5 33.5t193.5 19.5q160 0 260 -48t153 -136q66 81 165 133.5t217 52.5q224 0 338.5 -134.5 t114.5 -372.5v-82h-788q0 -114 30 -195.5t83 -132.5q53 -50 120 -71.5t146 -21.5q65 0 125.5 14.5t106.5 35.5q51 23 86 44.5t58 40.5h11v-205l-82.5 -32.5t-88.5 -30.5q-55 -15 -99.5 -23t-114.5 -8q-161 0 -276 52t-189 155q-21 -19 -64.5 -59.5t-91.5 -68.5 q-65 -38 -134.5 -60t-179.5 -22q-146 0 -247.5 97t-101.5 249zM251 330q0 -95 56 -141.5t167 -46.5q91 0 184 44t159 112q-19 54 -29 119.5t-10 140.5q-95 -3 -189.5 -8.5t-169.5 -26.5q-74 -20 -121 -66t-47 -127zM964 703h603q-5 59 -20.5 112.5t-47.5 92.5 q-31 38 -85 61.5t-127 23.5q-78 0 -129.5 -21.5t-94.5 -62.5q-40 -38 -64.5 -92.5t-34.5 -113.5z" />
<glyph unicode="&#xe7;" horiz-adv-x="945" d="M59 557q0 147 39.5 254t105.5 180t164.5 112.5t211.5 39.5q92 0 177.5 -26t152.5 -60v-211h-11q-20 17 -51.5 39t-76.5 45q-39 20 -92 35t-102 15q-146 0 -234.5 -110.5t-88.5 -312.5q0 -198 85.5 -308.5t237.5 -110.5q92 0 175 38t147 98h11v-211q-28 -13 -65 -29 t-68 -26q1 -16 3 -42t2 -55q0 -149 -82 -241.5t-227 -92.5q-37 0 -87 6t-90 18v160h9q24 -11 63 -22.5t79 -11.5q94 0 138 39.5t44 126.5q0 18 -0.5 38.5t-1.5 45.5q-13 0 -22.5 -1t-24.5 -1q-115 0 -211 35.5t-165 107.5t-107 181.5t-38 257.5z" />
<glyph unicode="&#xe8;" horiz-adv-x="1078" d="M59 552q0 273 143 434.5t374 161.5q104 0 184 -30t140 -94t92 -156.5t32 -226.5v-102h-774q0 -195 98 -298t271 -103q62 0 121.5 14t107.5 36q51 23 86 44.5t58 40.5h11v-205q-33 -13 -82 -32.5t-88 -30.5q-55 -15 -99.5 -23t-112.5 -8q-267 0 -414.5 150.5t-147.5 427.5 zM250 683h591q-2 76 -18 131t-46 93q-33 42 -84.5 64t-127.5 22q-75 0 -127.5 -22.5t-95.5 -65.5q-42 -44 -64 -97.5t-28 -124.5zM263 1676h243l179 -374h-149z" />
<glyph unicode="&#xe9;" horiz-adv-x="1078" d="M59 552q0 273 143 434.5t374 161.5q104 0 184 -30t140 -94t92 -156.5t32 -226.5v-102h-774q0 -195 98 -298t271 -103q62 0 121.5 14t107.5 36q51 23 86 44.5t58 40.5h11v-205q-33 -13 -82 -32.5t-88 -30.5q-55 -15 -99.5 -23t-112.5 -8q-267 0 -414.5 150.5t-147.5 427.5 zM250 683h591q-2 76 -18 131t-46 93q-33 42 -84.5 64t-127.5 22q-75 0 -127.5 -22.5t-95.5 -65.5q-42 -44 -64 -97.5t-28 -124.5zM467 1302l179 374h243l-273 -374h-149z" />
<glyph unicode="&#xea;" horiz-adv-x="1078" d="M59 552q0 273 143 434.5t374 161.5q104 0 184 -30t140 -94t92 -156.5t32 -226.5v-102h-774q0 -195 98 -298t271 -103q62 0 121.5 14t107.5 36q51 23 86 44.5t58 40.5h11v-205q-33 -13 -82 -32.5t-88 -30.5q-55 -15 -99.5 -23t-112.5 -8q-267 0 -414.5 150.5t-147.5 427.5 zM232 1297l228 379h227l228 -379h-159l-185 256l-184 -256h-155zM250 683h591q-2 76 -18 131t-46 93q-33 42 -84.5 64t-127.5 22q-75 0 -127.5 -22.5t-95.5 -65.5q-42 -44 -64 -97.5t-28 -124.5z" />
<glyph unicode="&#xeb;" horiz-adv-x="1078" d="M59 552q0 273 143 434.5t374 161.5q104 0 184 -30t140 -94t92 -156.5t32 -226.5v-102h-774q0 -195 98 -298t271 -103q62 0 121.5 14t107.5 36q51 23 86 44.5t58 40.5h11v-205q-33 -13 -82 -32.5t-88 -30.5q-55 -15 -99.5 -23t-112.5 -8q-267 0 -414.5 150.5t-147.5 427.5 zM250 683h591q-2 76 -18 131t-46 93q-33 42 -84.5 64t-127.5 22q-75 0 -127.5 -22.5t-95.5 -65.5q-42 -44 -64 -97.5t-28 -124.5zM266 1304v195h201v-195h-201zM679 1304v195h201v-195h-201z" />
<glyph unicode="&#xec;" horiz-adv-x="468" d="M-1 1676h243l179 -374h-149zM140 0v1117h188v-1117h-188z" />
<glyph unicode="&#xed;" horiz-adv-x="468" d="M120 1302l179 374h243l-273 -374h-149zM140 0v1117h188v-1117h-188z" />
<glyph unicode="&#xee;" horiz-adv-x="468" d="M-54 1297l174 379h227l174 -379h-151l-139 263l-138 -263h-147zM140 0v1117h188v-1117h-188z" />
<glyph unicode="&#xef;" horiz-adv-x="468" d="M-38 1304v195h189v-195h-189zM140 0v1117h188v-1117h-188zM317 1304v195h189v-195h-189z" />
<glyph unicode="&#xf0;" horiz-adv-x="1118" d="M57 484q0 231 137 360.5t324 129.5q100 0 174 -26.5t157 -79.5q-31 112 -97.5 220.5t-145.5 178.5l-262 -161l-66 97l238 143q-82 68 -156 106.5t-161 82.5v21h296q38 -28 79.5 -59t82.5 -60l212 129l66 -97l-190 -111q130 -130 219 -305.5t89 -415.5q0 -323 -136 -495.5 t-370 -172.5q-214 0 -352 131t-138 384zM252 482q0 -180 80 -267t216 -87q64 0 121.5 22t99.5 76q46 59 70.5 143.5t24.5 234.5q0 32 -1.5 59.5t-3.5 57.5q-73 46 -150 67t-157 21q-127 0 -213.5 -80t-86.5 -247z" />
<glyph unicode="&#xf1;" horiz-adv-x="1142" d="M136 0v1117h188v-124q84 75 166 115t173 40q165 0 258 -108.5t93 -314.5v-725h-188v636q0 77 -7.5 143.5t-28.5 106.5q-23 42 -64 62.5t-112 20.5q-70 0 -144.5 -37.5t-145.5 -97.5v-834h-188zM179 1316q7 154 76 232.5t169 78.5q51 0 94 -19.5t86 -57.5 q43 -39 77.5 -59.5t63.5 -20.5q47 0 68.5 45t24.5 117h140q-10 -156 -74.5 -234t-171.5 -78q-52 0 -96 19t-86 59q-44 41 -76 62.5t-63 21.5q-49 0 -68.5 -45t-23.5 -121h-140z" />
<glyph unicode="&#xf2;" horiz-adv-x="1112" d="M57 558q0 280 137.5 435t362.5 155q226 0 362 -154.5t136 -435.5q0 -282 -136 -435.5t-362 -153.5q-233 0 -366.5 158.5t-133.5 430.5zM245 1676h243l179 -374h-149zM251 558q0 -210 79.5 -318.5t226.5 -108.5q145 0 224.5 106.5t79.5 320.5q0 217 -79 322.5t-225 105.5 q-147 0 -226.5 -105.5t-79.5 -322.5z" />
<glyph unicode="&#xf3;" horiz-adv-x="1112" d="M57 558q0 280 137.5 435t362.5 155q226 0 362 -154.5t136 -435.5q0 -282 -136 -435.5t-362 -153.5q-233 0 -366.5 158.5t-133.5 430.5zM251 558q0 -210 79.5 -318.5t226.5 -108.5q145 0 224.5 106.5t79.5 320.5q0 217 -79 322.5t-225 105.5q-147 0 -226.5 -105.5 t-79.5 -322.5zM446 1302l179 374h243l-273 -374h-149z" />
<glyph unicode="&#xf4;" horiz-adv-x="1112" d="M57 558q0 280 137.5 435t362.5 155q226 0 362 -154.5t136 -435.5q0 -282 -136 -435.5t-362 -153.5q-233 0 -366.5 158.5t-133.5 430.5zM217 1297l228 379h227l228 -379h-159l-185 256l-184 -256h-155zM251 558q0 -210 79.5 -318.5t226.5 -108.5q145 0 224.5 106.5 t79.5 320.5q0 217 -79 322.5t-225 105.5q-147 0 -226.5 -105.5t-79.5 -322.5z" />
<glyph unicode="&#xf5;" horiz-adv-x="1112" d="M57 558q0 280 137.5 435t362.5 155q226 0 362 -154.5t136 -435.5q0 -282 -136 -435.5t-362 -153.5q-233 0 -366.5 158.5t-133.5 430.5zM158 1316q7 154 76 232.5t169 78.5q51 0 94 -19.5t86 -57.5q43 -39 77.5 -59.5t63.5 -20.5q47 0 68.5 45t24.5 117h140 q-10 -156 -74.5 -234t-171.5 -78q-52 0 -96 19t-86 59q-44 41 -76 62.5t-63 21.5q-49 0 -68.5 -45t-23.5 -121h-140zM251 558q0 -210 79.5 -318.5t226.5 -108.5q145 0 224.5 106.5t79.5 320.5q0 217 -79 322.5t-225 105.5q-147 0 -226.5 -105.5t-79.5 -322.5z" />
<glyph unicode="&#xf6;" horiz-adv-x="1112" d="M57 558q0 280 137.5 435t362.5 155q226 0 362 -154.5t136 -435.5q0 -282 -136 -435.5t-362 -153.5q-233 0 -366.5 158.5t-133.5 430.5zM250 1304v195h201v-195h-201zM251 558q0 -210 79.5 -318.5t226.5 -108.5q145 0 224.5 106.5t79.5 320.5q0 217 -79 322.5t-225 105.5 q-147 0 -226.5 -105.5t-79.5 -322.5zM663 1304v195h201v-195h-201z" />
<glyph unicode="&#xf7;" horiz-adv-x="1490" d="M157 572v160h1176v-160h-1176zM626 17v275h238v-275h-238zM626 1012v275h238v-275h-238z" />
<glyph unicode="&#xf8;" horiz-adv-x="1112" d="M41 -147l168 261q-72 76 -112 187t-40 257q0 280 137.5 434.5t362.5 154.5q75 0 142 -20t124 -57l108 170h125l-152 -236q71 -77 111 -186t40 -260q0 -282 -136 -435t-362 -153q-79 0 -145 20.5t-124 56.5l-123 -194h-124zM248 558q0 -97 14.5 -169.5t43.5 -126.5 l429 670q-34 26 -78 40t-100 14q-147 0 -228 -107.5t-81 -320.5zM378 187q38 -29 79.5 -42.5t99.5 -13.5q145 0 226 106.5t81 320.5q0 99 -14.5 173t-42.5 125z" />
<glyph unicode="&#xf9;" horiz-adv-x="1142" d="M128 392v725h188v-636q0 -89 6.5 -147.5t29.5 -102.5q23 -43 62.5 -63t113.5 -20q69 0 147 39t143 96v834h188v-1117h-188v124q-87 -76 -165 -115.5t-174 -39.5q-73 0 -137.5 24t-112.5 76t-74.5 131t-26.5 192zM265 1676h243l179 -374h-149z" />
<glyph unicode="&#xfa;" horiz-adv-x="1142" d="M128 392v725h188v-636q0 -89 6.5 -147.5t29.5 -102.5q23 -43 62.5 -63t113.5 -20q69 0 147 39t143 96v834h188v-1117h-188v124q-87 -76 -165 -115.5t-174 -39.5q-73 0 -137.5 24t-112.5 76t-74.5 131t-26.5 192zM446 1302l179 374h243l-273 -374h-149z" />
<glyph unicode="&#xfb;" horiz-adv-x="1142" d="M128 392v725h188v-636q0 -89 6.5 -147.5t29.5 -102.5q23 -43 62.5 -63t113.5 -20q69 0 147 39t143 96v834h188v-1117h-188v124q-87 -76 -165 -115.5t-174 -39.5q-73 0 -137.5 24t-112.5 76t-74.5 131t-26.5 192zM225 1297l228 379h227l228 -379h-159l-185 256l-184 -256 h-155z" />
<glyph unicode="&#xfc;" horiz-adv-x="1142" d="M128 392v725h188v-636q0 -89 6.5 -147.5t29.5 -102.5q23 -43 62.5 -63t113.5 -20q69 0 147 39t143 96v834h188v-1117h-188v124q-87 -76 -165 -115.5t-174 -39.5q-73 0 -137.5 24t-112.5 76t-74.5 131t-26.5 192zM265 1304v195h201v-195h-201zM678 1304v195h201v-195h-201 z" />
<glyph unicode="&#xfd;" horiz-adv-x="1020" d="M6 1117h203l305 -827l304 827h196l-601 -1529h-201l200 466zM389 1302l179 374h243l-273 -374h-149z" />
<glyph unicode="&#xfe;" horiz-adv-x="1132" d="M136 -412v1968h188v-556q70 63 155.5 105.5t186.5 42.5q192 0 299.5 -152t107.5 -408q0 -279 -133.5 -444.5t-337.5 -165.5q-83 0 -147 19t-131 59v-468h-188zM324 209q74 -36 126.5 -49t120.5 -13q146 0 227 107t81 313q0 191 -61 296.5t-198 105.5q-80 0 -154.5 -35.5 t-141.5 -91.5v-633z" />
<glyph unicode="&#xff;" horiz-adv-x="1020" d="M6 1117h203l305 -827l304 827h196l-601 -1529h-201l200 466zM215 1304v195h201v-195h-201zM628 1304v195h201v-195h-201z" />
<glyph unicode="&#x100;" horiz-adv-x="1228" d="M-10 0l502 1489h244l502 -1489h-209l-135 416h-569l-135 -416h-200zM237 1698v154h754v-154h-754zM380 585h459l-230 702z" />
<glyph unicode="&#x101;" horiz-adv-x="1075" d="M58 324q0 116 49 197.5t155 129.5q94 43 222 59.5t276 24.5v36q0 66 -20 106.5t-56 62.5q-36 23 -88 30.5t-107 7.5q-65 0 -153 -19.5t-176 -56.5h-11v191q52 15 149 33t192 18q115 0 194 -18t142 -65q61 -46 91 -119t30 -178v-764h-187v119q-23 -17 -61.5 -47.5 t-74.5 -48.5q-50 -26 -96.5 -40t-130.5 -14q-69 0 -131 26t-109 73q-45 46 -72 113.5t-27 142.5zM152 1335v154h754v-154h-754zM252 336q0 -96 54 -145t158 -49q89 0 161 38.5t135 94.5v310q-67 -6 -169.5 -16.5t-165.5 -29.5q-75 -23 -124 -70.5t-49 -132.5z" />
<glyph unicode="&#x102;" horiz-adv-x="1228" d="M-10 0l502 1489h244l502 -1489h-209l-135 416h-569l-135 -416h-200zM284 2009h162q0 -135 42 -194.5t126 -59.5q79 0 123 58.5t44 195.5h162q0 -86 -21 -156.5t-60 -118.5q-45 -53 -102 -79.5t-146 -26.5q-82 0 -143.5 27.5t-103.5 78.5q-41 50 -62 120t-21 155zM380 585 h459l-230 702z" />
<glyph unicode="&#x103;" horiz-adv-x="1075" d="M58 324q0 116 49 197.5t155 129.5q94 43 222 59.5t276 24.5v36q0 66 -20 106.5t-56 62.5q-36 23 -88 30.5t-107 7.5q-65 0 -153 -19.5t-176 -56.5h-11v191q52 15 149 33t192 18q115 0 194 -18t142 -65q61 -46 91 -119t30 -178v-764h-187v119q-23 -17 -61.5 -47.5 t-74.5 -48.5q-50 -26 -96.5 -40t-130.5 -14q-69 0 -131 26t-109 73q-45 46 -72 113.5t-27 142.5zM193 1636h162q0 -135 42 -194.5t126 -59.5q79 0 123 58.5t44 195.5h162q0 -86 -21 -156.5t-60 -118.5q-45 -53 -102 -79.5t-146 -26.5q-82 0 -143.5 27.5t-103.5 78.5 q-41 50 -62 120t-21 155zM252 336q0 -96 54 -145t158 -49q89 0 161 38.5t135 94.5v310q-67 -6 -169.5 -16.5t-165.5 -29.5q-75 -23 -124 -70.5t-49 -132.5z" />
<glyph unicode="&#x104;" horiz-adv-x="1228" d="M-10 0l502 1489h244l502 -1489h-99q-6 -28 -10.5 -48.5t-4.5 -58.5q0 -81 33 -121t121 -40q33 0 65.5 9.5t51.5 20.5h9v-158q-36 -10 -76.5 -15.5t-74.5 -5.5q-124 0 -206.5 75t-82.5 225q0 58 14.5 109.5t25.5 85.5l-110 338h-569l-135 -416h-200zM380 585h459l-230 702 z" />
<glyph unicode="&#x105;" horiz-adv-x="1075" d="M58 324q0 116 49 197.5t155 129.5q94 43 222 59.5t276 24.5v36q0 66 -20 106.5t-56 62.5q-36 23 -88 30.5t-107 7.5q-65 0 -153 -19.5t-176 -56.5h-11v191q52 15 149 33t192 18q115 0 194 -18t142 -65q61 -46 91 -119t30 -178v-764h-34q-6 -26 -9.5 -53t-3.5 -54 q0 -81 33 -121t121 -40q33 0 65.5 9.5t51.5 20.5h9v-158q-36 -10 -76.5 -15.5t-74.5 -5.5q-123 0 -206 74t-83 226q0 33 5.5 63t14.5 61v112q-23 -17 -61.5 -47.5t-74.5 -48.5q-50 -26 -96.5 -40t-130.5 -14q-69 0 -131 26t-109 73q-45 46 -72 113.5t-27 142.5zM252 336 q0 -96 54 -145t158 -49q89 0 161 38.5t135 94.5v310q-67 -6 -169.5 -16.5t-165.5 -29.5q-75 -23 -124 -70.5t-49 -132.5z" />
<glyph unicode="&#x106;" horiz-adv-x="1230" d="M66 743q0 187 47.5 326t138.5 242q89 100 211 152.5t273 52.5q75 0 140.5 -11t121.5 -28q48 -15 98.5 -37.5t99.5 -49.5v-239h-16q-26 24 -67 58t-100 67q-57 31 -124 51t-155 20q-95 0 -180 -39t-149 -115q-63 -76 -98 -191t-35 -259q0 -153 37 -263.5t101 -186.5 q62 -74 146 -111.5t178 -37.5q86 0 159 21t130 53q55 31 95 63.5t63 55.5h15v-236q-49 -23 -92.5 -44t-105.5 -41q-65 -21 -120.5 -32t-144.5 -11q-146 0 -268.5 49t-211.5 146t-138 242t-49 333zM549 1675l179 374h243l-273 -374h-149z" />
<glyph unicode="&#x107;" horiz-adv-x="945" d="M79 498v45q87 37 184 113t229 220h76q-59 -118 -88.5 -165.5t-106.5 -143.5h1595v-101h-1595q104 -108 198 -309h-78q-129 144 -222 218.5t-192 122.5z" />
<glyph unicode="&#x108;" horiz-adv-x="1230" d="M66 743q0 187 47.5 326t138.5 242q89 100 211 152.5t273 52.5q75 0 140.5 -11t121.5 -28q48 -15 98.5 -37.5t99.5 -49.5v-239h-16q-26 24 -67 58t-100 67q-57 31 -124 51t-155 20q-95 0 -180 -39t-149 -115q-63 -76 -98 -191t-35 -259q0 -153 37 -263.5t101 -186.5 q62 -74 146 -111.5t178 -37.5q86 0 159 21t130 53q55 31 95 63.5t63 55.5h15v-236q-49 -23 -92.5 -44t-105.5 -41q-65 -21 -120.5 -32t-144.5 -11q-146 0 -268.5 49t-211.5 146t-138 242t-49 333zM369 1670l228 379h227l228 -379h-159l-185 256l-184 -256h-155z" />
<glyph unicode="&#x109;" horiz-adv-x="945" d="M59 557q0 147 39.5 254t105.5 180t164.5 112.5t211.5 39.5q92 0 177.5 -26t152.5 -60v-211h-11q-20 17 -51.5 39t-76.5 45q-39 20 -92 35t-102 15q-146 0 -234.5 -110.5t-88.5 -312.5q0 -198 85.5 -308.5t237.5 -110.5q92 0 175 38t147 98h11v-211q-28 -13 -70 -31.5 t-76 -27.5q-48 -14 -86 -21.5t-98 -7.5q-115 0 -211 35.5t-165 107.5t-107 181.5t-38 257.5zM208 1297l228 379h227l228 -379h-159l-185 256l-184 -256h-155z" />
<glyph unicode="&#x10a;" horiz-adv-x="1230" d="M66 743q0 187 47.5 326t138.5 242q89 100 211 152.5t273 52.5q75 0 140.5 -11t121.5 -28q48 -15 98.5 -37.5t99.5 -49.5v-239h-16q-26 24 -67 58t-100 67q-57 31 -124 51t-155 20q-95 0 -180 -39t-149 -115q-63 -76 -98 -191t-35 -259q0 -153 37 -263.5t101 -186.5 q62 -74 146 -111.5t178 -37.5q86 0 159 21t130 53q55 31 95 63.5t63 55.5h15v-236q-49 -23 -92.5 -44t-105.5 -41q-65 -21 -120.5 -32t-144.5 -11q-146 0 -268.5 49t-211.5 146t-138 242t-49 333zM596 1677v195h214v-195h-214z" />
<glyph unicode="&#x10b;" horiz-adv-x="945" d="M59 557q0 147 39.5 254t105.5 180t164.5 112.5t211.5 39.5q92 0 177.5 -26t152.5 -60v-211h-11q-20 17 -51.5 39t-76.5 45q-39 20 -92 35t-102 15q-146 0 -234.5 -110.5t-88.5 -312.5q0 -198 85.5 -308.5t237.5 -110.5q92 0 175 38t147 98h11v-211q-28 -13 -70 -31.5 t-76 -27.5q-48 -14 -86 -21.5t-98 -7.5q-115 0 -211 35.5t-165 107.5t-107 181.5t-38 257.5zM440 1304v195h214v-195h-214z" />
<glyph unicode="&#x10c;" horiz-adv-x="1230" d="M66 743q0 187 47.5 326t138.5 242q89 100 211 152.5t273 52.5q75 0 140.5 -11t121.5 -28q48 -15 98.5 -37.5t99.5 -49.5v-239h-16q-26 24 -67 58t-100 67q-57 31 -124 51t-155 20q-95 0 -180 -39t-149 -115q-63 -76 -98 -191t-35 -259q0 -153 37 -263.5t101 -186.5 q62 -74 146 -111.5t178 -37.5q86 0 159 21t130 53q55 31 95 63.5t63 55.5h15v-236q-49 -23 -92.5 -44t-105.5 -41q-65 -21 -120.5 -32t-144.5 -11q-146 0 -268.5 49t-211.5 146t-138 242t-49 333zM364 2049h159l185 -256l184 256h155l-228 -379h-227z" />
<glyph unicode="&#x10d;" horiz-adv-x="945" d="M59 557q0 147 39.5 254t105.5 180t164.5 112.5t211.5 39.5q92 0 177.5 -26t152.5 -60v-211h-11q-20 17 -51.5 39t-76.5 45q-39 20 -92 35t-102 15q-146 0 -234.5 -110.5t-88.5 -312.5q0 -198 85.5 -308.5t237.5 -110.5q92 0 175 38t147 98h11v-211q-28 -13 -70 -31.5 t-76 -27.5q-48 -14 -86 -21.5t-98 -7.5q-115 0 -211 35.5t-165 107.5t-107 181.5t-38 257.5zM202 1676h159l185 -256l184 256h155l-228 -379h-227z" />
<glyph unicode="&#x10e;" horiz-adv-x="1389" d="M151 0v1489h339q210 0 329.5 -31.5t203.5 -86.5q144 -95 223 -252.5t79 -375.5q0 -204 -82.5 -368t-221.5 -256q-113 -71 -229.5 -95t-297.5 -24h-343zM304 2049h159l185 -256l184 256h155l-228 -379h-227zM349 170h151q132 0 231 21t181 78q103 70 155 186.5t52 290.5 q0 172 -57 293.5t-169 189.5q-79 48 -169 69t-224 21h-151v-1149z" />
<glyph unicode="&#x10f;" horiz-adv-x="1407" d="M59 550q0 147 38 254.5t105 187.5q61 73 147.5 114.5t181.5 41.5q84 0 146 -18.5t131 -57.5v484h188v-1556h-188v114q-44 -37 -76 -61t-75 -44q-40 -19 -83 -29.5t-100 -10.5q-91 0 -168.5 38t-131.5 111q-55 74 -85 182.5t-30 249.5zM253 554q0 -197 63 -301.5 t202 -104.5q74 0 149 33.5t141 90.5v644q-70 34 -125.5 47t-120.5 13q-145 0 -227 -108.5t-82 -313.5zM1106 1051l142 505h225l-240 -505h-127z" />
<glyph unicode="&#x110;" horiz-adv-x="1430" d="M24 740v143h168v606h339q210 0 329.5 -31.5t203.5 -86.5q144 -95 223 -252.5t79 -375.5q0 -204 -82.5 -368t-221.5 -256q-111 -74 -228.5 -96.5t-298.5 -22.5h-343v740h-168zM390 170h151q132 0 231 21.5t181 77.5q103 70 155 186.5t52 290.5q0 172 -57 293.5t-169 189.5 q-79 48 -169 69t-224 21h-151v-436h327v-143h-327v-570z" />
<glyph unicode="&#x111;" horiz-adv-x="1174" d="M59 550q0 147 38 254.5t105 187.5q61 73 147.5 114.5t181.5 41.5q84 0 146 -18.5t131 -57.5v196h-301v134h301v154h188v-154h166v-134h-166v-1268h-188v114q-44 -37 -76 -61t-75 -44q-40 -19 -83 -29.5t-100 -10.5q-91 0 -168.5 38t-131.5 111q-55 74 -85 182.5 t-30 249.5zM253 554q0 -197 63 -301.5t202 -104.5q74 0 149 33.5t141 90.5v644q-70 34 -125.5 47t-120.5 13q-145 0 -227 -108.5t-82 -313.5z" />
<glyph unicode="&#x112;" horiz-adv-x="1149" d="M151 0v1489h931v-176h-733v-408h683v-176h-683v-553h733v-176h-931zM238 1698v154h754v-154h-754z" />
<glyph unicode="&#x113;" horiz-adv-x="1078" d="M59 552q0 273 143 434.5t374 161.5q104 0 184 -30t140 -94t92 -156.5t32 -226.5v-102h-774q0 -195 98 -298t271 -103q62 0 121.5 14t107.5 36q51 23 86 44.5t58 40.5h11v-205q-33 -13 -82 -32.5t-88 -30.5q-55 -15 -99.5 -23t-112.5 -8q-267 0 -414.5 150.5t-147.5 427.5 zM200 1335v154h754v-154h-754zM250 683h591q-2 76 -18 131t-46 93q-33 42 -84.5 64t-127.5 22q-75 0 -127.5 -22.5t-95.5 -65.5q-42 -44 -64 -97.5t-28 -124.5z" />
<glyph unicode="&#x114;" horiz-adv-x="1149" d="M151 0v1489h931v-176h-733v-408h683v-176h-683v-553h733v-176h-931zM286 2009h162q0 -135 42 -194.5t126 -59.5q79 0 123 58.5t44 195.5h162q0 -86 -21 -156.5t-60 -118.5q-45 -53 -102 -79.5t-146 -26.5q-82 0 -143.5 27.5t-103.5 78.5q-41 50 -62 120t-21 155z" />
<glyph unicode="&#x115;" horiz-adv-x="1078" d="M59 552q0 273 143 434.5t374 161.5q104 0 184 -30t140 -94t92 -156.5t32 -226.5v-102h-774q0 -195 98 -298t271 -103q62 0 121.5 14t107.5 36q51 23 86 44.5t58 40.5h11v-205q-33 -13 -82 -32.5t-88 -30.5q-55 -15 -99.5 -23t-112.5 -8q-267 0 -414.5 150.5t-147.5 427.5 zM243 1636h162q0 -135 42 -194.5t126 -59.5q79 0 123 58.5t44 195.5h162q0 -86 -21 -156.5t-60 -118.5q-45 -53 -102 -79.5t-146 -26.5q-82 0 -143.5 27.5t-103.5 78.5q-41 50 -62 120t-21 155zM250 683h591q-2 76 -18 131t-46 93q-33 42 -84.5 64t-127.5 22 q-75 0 -127.5 -22.5t-95.5 -65.5q-42 -44 -64 -97.5t-28 -124.5z" />
<glyph unicode="&#x116;" horiz-adv-x="1149" d="M151 0v1489h931v-176h-733v-408h683v-176h-683v-553h733v-176h-931zM542 1677v195h214v-195h-214z" />
<glyph unicode="&#x117;" horiz-adv-x="1078" d="M59 552q0 273 143 434.5t374 161.5q104 0 184 -30t140 -94t92 -156.5t32 -226.5v-102h-774q0 -195 98 -298t271 -103q62 0 121.5 14t107.5 36q51 23 86 44.5t58 40.5h11v-205q-33 -13 -82 -32.5t-88 -30.5q-55 -15 -99.5 -23t-112.5 -8q-267 0 -414.5 150.5t-147.5 427.5 zM250 683h591q-2 76 -18 131t-46 93q-33 42 -84.5 64t-127.5 22q-75 0 -127.5 -22.5t-95.5 -65.5q-42 -44 -64 -97.5t-28 -124.5zM472 1304v195h214v-195h-214z" />
<glyph unicode="&#x118;" horiz-adv-x="1149" d="M151 0v1489h931v-176h-733v-408h683v-176h-683v-553h733v-176h-228q-6 -28 -10.5 -48.5t-4.5 -58.5q0 -81 33 -121t121 -40q33 0 65.5 9.5t51.5 20.5h9v-158q-36 -10 -76.5 -15.5t-74.5 -5.5q-124 0 -206.5 75t-82.5 225q0 34 4.5 60.5t11.5 56.5h-544z" />
<glyph unicode="&#x119;" horiz-adv-x="1078" d="M59 552q0 273 143 434.5t374 161.5q104 0 184 -30t140 -94t92 -156.5t32 -226.5v-102h-774q0 -195 98 -298t271 -103q62 0 121.5 14t107.5 36q51 23 86 44.5t58 40.5h11v-205q-33 -13 -82 -32.5t-88 -30.5q-24 -6 -51.5 -12t-48.5 -9q-4 -17 -7 -42.5t-3 -48.5 q0 -81 33 -121t121 -40q33 0 65.5 9.5t51.5 20.5h9v-158q-36 -10 -76.5 -15.5t-74.5 -5.5q-123 0 -206 74t-83 226q0 25 3.5 48.5t8.5 44.5q-246 13 -381 162t-135 414zM250 683h591q-2 76 -18 131t-46 93q-33 42 -84.5 64t-127.5 22q-75 0 -127.5 -22.5t-95.5 -65.5 q-42 -44 -64 -97.5t-28 -124.5z" />
<glyph unicode="&#x11a;" horiz-adv-x="1149" d="M151 0v1489h931v-176h-733v-408h683v-176h-683v-553h733v-176h-931zM304 2049h159l185 -256l184 256h155l-228 -379h-227z" />
<glyph unicode="&#x11b;" horiz-adv-x="1078" d="M59 552q0 273 143 434.5t374 161.5q104 0 184 -30t140 -94t92 -156.5t32 -226.5v-102h-774q0 -195 98 -298t271 -103q62 0 121.5 14t107.5 36q51 23 86 44.5t58 40.5h11v-205q-33 -13 -82 -32.5t-88 -30.5q-55 -15 -99.5 -23t-112.5 -8q-267 0 -414.5 150.5t-147.5 427.5 zM224 1676h159l185 -256l184 256h155l-228 -379h-227zM250 683h591q-2 76 -18 131t-46 93q-33 42 -84.5 64t-127.5 22q-75 0 -127.5 -22.5t-95.5 -65.5q-42 -44 -64 -97.5t-28 -124.5z" />
<glyph unicode="&#x11c;" horiz-adv-x="1367" d="M66 746q0 180 50.5 322.5t144.5 243.5q91 98 224 151t291 53q75 0 144 -11t132 -30q50 -15 111.5 -41.5t99.5 -45.5v-239h-17q-37 33 -76.5 62.5t-111.5 63.5q-60 30 -138 50t-168 20q-215 0 -347.5 -162t-132.5 -431q0 -150 35 -262t101 -190q64 -77 154.5 -117.5 t203.5 -40.5q84 0 167 12t140 36v385h-344v174h540v-650q-38 -17 -101.5 -43t-118.5 -41q-73 -22 -132 -33t-143 -11q-158 0 -289 48t-225 146q-94 99 -144 245t-50 336zM398 1670l228 379h227l228 -379h-159l-185 256l-184 -256h-155z" />
<glyph unicode="&#x11d;" horiz-adv-x="1132" d="M59 569q0 139 39 246.5t105 182.5q63 72 149 111t178 39q87 0 150.5 -20.5t127.5 -58.5l11 48h177v-990q0 -284 -124 -417t-379 -133q-82 0 -167.5 13t-159.5 35v196h10q19 -8 56 -21.5t84 -25.5q52 -13 96 -21t96 -8q87 0 147.5 23t94.5 64q32 41 45 95t13 123v98 q-76 -66 -149 -97.5t-183 -31.5q-191 0 -304 142t-113 408zM228 1297l228 379h227l228 -379h-159l-185 256l-184 -256h-155zM253 573q0 -186 62.5 -283t202.5 -97q73 0 150.5 29t139.5 81v613q-70 34 -129.5 48.5t-118.5 14.5q-143 0 -225 -105t-82 -301z" />
<glyph unicode="&#x11e;" horiz-adv-x="1367" d="M66 746q0 180 50.5 322.5t144.5 243.5q91 98 224 151t291 53q75 0 144 -11t132 -30q50 -15 111.5 -41.5t99.5 -45.5v-239h-17q-37 33 -76.5 62.5t-111.5 63.5q-60 30 -138 50t-168 20q-215 0 -347.5 -162t-132.5 -431q0 -150 35 -262t101 -190q64 -77 154.5 -117.5 t203.5 -40.5q84 0 167 12t140 36v385h-344v174h540v-650q-38 -17 -101.5 -43t-118.5 -41q-73 -22 -132 -33t-143 -11q-158 0 -289 48t-225 146q-94 99 -144 245t-50 336zM409 2009h162q0 -135 42 -194.5t126 -59.5q79 0 123 58.5t44 195.5h162q0 -86 -21 -156.5t-60 -118.5 q-45 -53 -102 -79.5t-146 -26.5q-82 0 -143.5 27.5t-103.5 78.5q-41 50 -62 120t-21 155z" />
<glyph unicode="&#x11f;" horiz-adv-x="1132" d="M59 569q0 139 39 246.5t105 182.5q63 72 149 111t178 39q87 0 150.5 -20.5t127.5 -58.5l11 48h177v-990q0 -284 -124 -417t-379 -133q-82 0 -167.5 13t-159.5 35v196h10q19 -8 56 -21.5t84 -25.5q52 -13 96 -21t96 -8q87 0 147.5 23t94.5 64q32 41 45 95t13 123v98 q-76 -66 -149 -97.5t-183 -31.5q-191 0 -304 142t-113 408zM235 1636h162q0 -135 42 -194.5t126 -59.5q79 0 123 58.5t44 195.5h162q0 -86 -21 -156.5t-60 -118.5q-45 -53 -102 -79.5t-146 -26.5q-82 0 -143.5 27.5t-103.5 78.5q-41 50 -62 120t-21 155zM253 573 q0 -186 62.5 -283t202.5 -97q73 0 150.5 29t139.5 81v613q-70 34 -129.5 48.5t-118.5 14.5q-143 0 -225 -105t-82 -301z" />
<glyph unicode="&#x120;" horiz-adv-x="1367" d="M66 746q0 180 50.5 322.5t144.5 243.5q91 98 224 151t291 53q75 0 144 -11t132 -30q50 -15 111.5 -41.5t99.5 -45.5v-239h-17q-37 33 -76.5 62.5t-111.5 63.5q-60 30 -138 50t-168 20q-215 0 -347.5 -162t-132.5 -431q0 -150 35 -262t101 -190q64 -77 154.5 -117.5 t203.5 -40.5q84 0 167 12t140 36v385h-344v174h540v-650q-38 -17 -101.5 -43t-118.5 -41q-73 -22 -132 -33t-143 -11q-158 0 -289 48t-225 146q-94 99 -144 245t-50 336zM622 1677v195h214v-195h-214z" />
<glyph unicode="&#x121;" horiz-adv-x="1132" d="M59 569q0 139 39 246.5t105 182.5q63 72 149 111t178 39q87 0 150.5 -20.5t127.5 -58.5l11 48h177v-990q0 -284 -124 -417t-379 -133q-82 0 -167.5 13t-159.5 35v196h10q19 -8 56 -21.5t84 -25.5q52 -13 96 -21t96 -8q87 0 147.5 23t94.5 64q32 41 45 95t13 123v98 q-76 -66 -149 -97.5t-183 -31.5q-191 0 -304 142t-113 408zM253 573q0 -186 62.5 -283t202.5 -97q73 0 150.5 29t139.5 81v613q-70 34 -129.5 48.5t-118.5 14.5q-143 0 -225 -105t-82 -301zM445 1304v195h214v-195h-214z" />
<glyph unicode="&#x122;" horiz-adv-x="1367" d="M66 746q0 180 50.5 322.5t144.5 243.5q91 98 224 151t291 53q75 0 144 -11t132 -30q50 -15 111.5 -41.5t99.5 -45.5v-239h-17q-37 33 -76.5 62.5t-111.5 63.5q-60 30 -138 50t-168 20q-215 0 -347.5 -162t-132.5 -431q0 -150 35 -262t101 -190q64 -77 154.5 -117.5 t203.5 -40.5q84 0 167 12t140 36v385h-344v174h540v-650q-38 -17 -101 -41.5t-119 -41.5q-42 -13 -65 -18l-46 -10q0 -14 1.5 -33t1.5 -44q0 -162 -88 -248t-221 -86q-37 0 -87 6t-90 18v160h9q24 -11 63 -22.5t79 -11.5q94 0 139 39.5t45 126.5q0 17 -0.5 36.5t-1.5 42.5 h-6.5h-7.5q-158 0 -289 47.5t-225 145.5q-94 99 -144 245t-50 336z" />
<glyph unicode="&#x123;" horiz-adv-x="1132" d="M59 569q0 139 39 246.5t105 182.5q63 72 149 111t178 39q87 0 150.5 -20.5t127.5 -58.5l11 48h177v-990q0 -284 -124 -417t-379 -133q-82 0 -167.5 13t-159.5 35v196h10q19 -8 56 -21.5t84 -25.5q52 -13 96 -21t96 -8q87 0 147.5 23t94.5 64q32 41 45 95t13 123v98 q-76 -66 -149 -97.5t-183 -31.5q-191 0 -304 142t-113 408zM253 573q0 -186 62.5 -283t202.5 -97q73 0 150.5 29t139.5 81v613q-70 34 -129.5 48.5t-118.5 14.5q-143 0 -225 -105t-82 -301zM390 1302l273 374h149l-179 -374h-243z" />
<glyph unicode="&#x124;" horiz-adv-x="1383" d="M151 0v1489h198v-584h685v584h198v-1489h-198v729h-685v-729h-198zM351 1670l228 379h227l228 -379h-159l-185 256l-184 -256h-155z" />
<glyph unicode="&#x125;" horiz-adv-x="1142" d="M136 0v1556h188v-563q84 75 166 115t173 40q165 0 258 -108.5t93 -314.5v-725h-188v636q0 77 -7.5 143.5t-28.5 106.5q-23 42 -64 62.5t-112 20.5q-70 0 -144.5 -37.5t-145.5 -97.5v-834h-188zM257 1670l228 379h227l228 -379h-159l-185 256l-184 -256h-155z" />
<glyph unicode="&#x126;" horiz-adv-x="1465" d="M24 1109v140h168v240h198v-240h685v240h198v-240h168v-140h-168v-1109h-198v729h-685v-729h-198v1109h-168zM390 905h685v204h-685v-204z" />
<glyph unicode="&#x127;" horiz-adv-x="1184" d="M12 1268v134h166l-1 154h188l1 -154h301v-134h-301l-1 -275q84 75 166 115t173 40q165 0 258 -108.5t93 -314.5v-725h-188v636q0 77 -7 143.5t-29 106.5q-23 42 -64 62.5t-112 20.5q-70 0 -144.5 -37.5t-145.5 -97.5v-834h-188l1 1268h-166z" />
<glyph unicode="&#x128;" horiz-adv-x="764" d="M10 1682q4 151 68.5 226.5t155.5 75.5q48 0 87.5 -18.5t77.5 -54.5q43 -42 73.5 -61.5t59.5 -19.5q45 0 68 46t24 116h131q-7 -152 -67 -227.5t-158 -75.5q-52 0 -90.5 17.5t-75.5 56.5q-40 40 -71.5 62.5t-60.5 22.5q-46 0 -67.5 -45t-23.5 -121h-131zM93 0v152h190 v1185h-190v152h578v-152h-190v-1185h190v-152h-578z" />
<glyph unicode="&#x129;" horiz-adv-x="468" d="M-54 1330q0 128 48.5 193.5t127.5 65.5q47 0 72 -13.5t57 -44.5q33 -35 55 -52t44 -17q36 0 52.5 36t16.5 98h106q0 -129 -48.5 -194t-128.5 -65q-40 0 -69 13t-59 45q-32 35 -54.5 52t-45.5 17q-35 0 -51.5 -34.5t-16.5 -99.5h-106zM140 0v1117h188v-1117h-188z" />
<glyph unicode="&#x12a;" horiz-adv-x="764" d="M55 1698v154h654v-154h-654zM93 0v152h190v1185h-190v152h578v-152h-190v-1185h190v-152h-578z" />
<glyph unicode="&#x12b;" horiz-adv-x="468" d="M-32 1335v154h533v-154h-533zM140 0v1117h188v-1117h-188z" />
<glyph unicode="&#x12c;" horiz-adv-x="764" d="M84 2003h158q0 -135 33 -191.5t108 -56.5q71 0 105.5 53.5t34.5 194.5h158q0 -168 -72.5 -271.5t-225.5 -103.5q-151 0 -225 103.5t-74 271.5zM93 0v152h190v1185h-190v152h578v-152h-190v-1185h190v-152h-578z" />
<glyph unicode="&#x12d;" horiz-adv-x="468" d="M-46 1611h146q0 -122 32.5 -175.5t101.5 -53.5q65 0 99 49t34 180h146q0 -154 -69.5 -250t-209.5 -96q-138 0 -209 95t-71 251zM140 0v1117h188v-1117h-188z" />
<glyph unicode="&#x12e;" horiz-adv-x="764" d="M93 0v152h190v1185h-190v152h578v-152h-190v-1185h190v-152h-194q-6 -28 -10.5 -48.5t-4.5 -58.5q0 -81 33 -121t121 -40q33 0 65.5 9.5t51.5 20.5h9v-158q-36 -10 -76.5 -15.5t-74.5 -5.5q-124 0 -206.5 75t-82.5 225q0 34 4.5 60.5t11.5 56.5h-225z" />
<glyph unicode="&#x12f;" horiz-adv-x="468" d="M95 -117q0 63 18.5 118.5t26.5 80.5v1035h188v-1117h-60q-6 -26 -9.5 -53t-3.5 -54q0 -81 33 -121t121 -40q33 0 65.5 9.5t51.5 20.5h9v-158q-36 -10 -76.5 -15.5t-74.5 -5.5q-123 0 -206 74t-83 226zM127 1304v195h214v-195h-214z" />
<glyph unicode="&#x130;" horiz-adv-x="764" d="M93 0v152h190v1185h-190v152h578v-152h-190v-1185h190v-152h-578zM276 1677v195h214v-195h-214z" />
<glyph unicode="&#x131;" horiz-adv-x="468" d="M140 0v1117h188v-1117h-188z" />
<glyph unicode="&#x134;" horiz-adv-x="853" d="M9 8v189h11q41 -14 101.5 -31t123.5 -17q92 0 146.5 21t80.5 60q27 40 34.5 98t7.5 134v869h-315v158h513v-1102q0 -196 -119.5 -302t-320.5 -106q-48 0 -128.5 8.5t-134.5 20.5zM128 1670l228 379h227l228 -379h-159l-185 256l-184 -256h-155z" />
<glyph unicode="&#x135;" horiz-adv-x="577" d="M-90 -243h11q22 -5 48.5 -9.5t50.5 -4.5q75 0 123.5 18.5t72.5 58.5q22 36 29.5 91t7.5 134v916h-202v156h390v-1149q0 -191 -102.5 -291t-282.5 -100q-31 0 -69.5 3t-76.5 9v168zM-20 1297l184 379h227l184 -379h-151l-149 267l-148 -267h-147z" />
<glyph unicode="&#x136;" horiz-adv-x="1204" d="M151 0v1489h198v-685l610 685h241l-616 -665l652 -824h-257l-543 693l-87 -98v-595h-198zM280 -239h9q24 -11 63 -22.5t79 -11.5q94 0 134 39.5t40 126.5q0 26 -1 57t-3 70h157q1 -18 3.5 -45.5t2.5 -63.5q0 -162 -87 -248t-220 -86q-37 0 -87 6t-90 18v160z" />
<glyph unicode="&#x137;" horiz-adv-x="1020" d="M136 0v1556h188v-911l442 472h234l-459 -467l521 -650h-247l-417 539l-74 -72v-467h-188zM160 -239h9q24 -11 63 -22.5t79 -11.5q94 0 134 39.5t40 126.5q0 26 -1 57t-3 70h157q1 -18 3.5 -45.5t2.5 -63.5q0 -162 -87 -248t-220 -86q-37 0 -87 6t-90 18v160z" />
<glyph unicode="&#x138;" horiz-adv-x="1020" d="M136 0v1117h188v-472l442 472h234l-459 -467l521 -650h-247l-417 539l-74 -72v-467h-188z" />
<glyph unicode="&#x139;" horiz-adv-x="1019" d="M151 0v1489h198v-1313h665v-176h-863zM269 1675l179 374h243l-273 -374h-149z" />
<glyph unicode="&#x13a;" horiz-adv-x="468" d="M114 1675l179 374h243l-273 -374h-149zM140 0v1556h188v-1556h-188z" />
<glyph unicode="&#x13b;" horiz-adv-x="1019" d="M151 0v1489h198v-1313h665v-176h-236q1 -14 2.5 -36.5t1.5 -52.5q0 -162 -88 -248t-221 -86q-37 0 -87 6t-90 18v160h9q24 -11 63 -22.5t79 -11.5q94 0 138 39.5t44 126.5q0 21 -0.5 46.5t-2.5 60.5h-475z" />
<glyph unicode="&#x13c;" horiz-adv-x="468" d="M-42 -239h9q24 -11 63 -22.5t79 -11.5q94 0 135 39.5t41 126.5q0 21 -0.5 46.5t-2.5 60.5h-142v1556h188v-1536h108q1 -18 3.5 -45.5t2.5 -63.5q0 -162 -87 -248t-220 -86q-37 0 -87 6t-90 18v160z" />
<glyph unicode="&#x13d;" horiz-adv-x="1019" d="M151 0v1489h198v-1313h665v-176h-863zM584 1051l142 505h225l-240 -505h-127z" />
<glyph unicode="&#x13e;" horiz-adv-x="739" d="M140 0v1556h188v-1556h-188zM438 1051l142 505h225l-240 -505h-127z" />
<glyph unicode="&#x13f;" horiz-adv-x="1019" d="M151 0v1489h198v-1313h665v-176h-863zM643 519v267h233v-267h-233z" />
<glyph unicode="&#x140;" horiz-adv-x="912" d="M140 0v1556h188v-1556h-188zM575 520v265h231v-265h-231z" />
<glyph unicode="&#x141;" horiz-adv-x="1060" d="M24 405v161l168 135v788h198v-645l327 268v-161l-327 -264v-511h665v-176h-863v543z" />
<glyph unicode="&#x142;" horiz-adv-x="562" d="M24 455v159l163 130v812h188v-676l165 134v-159l-165 -130v-725h-188v589z" />
<glyph unicode="&#x143;" horiz-adv-x="1367" d="M151 0v1489h281l599 -1179v1179h185v-1489h-222l-658 1284v-1284h-185zM566 1675l179 374h243l-273 -374h-149z" />
<glyph unicode="&#x144;" horiz-adv-x="1142" d="M136 0v1117h188v-124q84 75 166 115t173 40q165 0 258 -108.5t93 -314.5v-725h-188v636q0 77 -7.5 143.5t-28.5 106.5q-23 42 -64 62.5t-112 20.5q-70 0 -144.5 -37.5t-145.5 -97.5v-834h-188zM449 1302l179 374h243l-273 -374h-149z" />
<glyph unicode="&#x145;" horiz-adv-x="1367" d="M151 0v1489h281l599 -1179v1179h185v-1489h-222l-658 1284v-1284h-185zM310 -239h9q24 -11 63 -22.5t79 -11.5q94 0 134 39.5t40 126.5q0 26 -1 57t-3 70h157q1 -18 3.5 -45.5t2.5 -63.5q0 -162 -87 -248t-220 -86q-37 0 -87 6t-90 18v160z" />
<glyph unicode="&#x146;" horiz-adv-x="1142" d="M136 0v1117h188v-124q84 75 166 115t173 40q165 0 258 -108.5t93 -314.5v-725h-188v636q0 77 -7.5 143.5t-28.5 106.5q-23 42 -64 62.5t-112 20.5q-70 0 -144.5 -37.5t-145.5 -97.5v-834h-188zM218 -239h9q24 -11 63 -22.5t79 -11.5q94 0 134 39.5t40 126.5q0 26 -1 57 t-3 70h157q1 -18 3.5 -45.5t2.5 -63.5q0 -162 -87 -248t-220 -86q-37 0 -87 6t-90 18v160z" />
<glyph unicode="&#x147;" horiz-adv-x="1367" d="M151 0v1489h281l599 -1179v1179h185v-1489h-222l-658 1284v-1284h-185zM359 2049h159l185 -256l184 256h155l-228 -379h-227z" />
<glyph unicode="&#x148;" horiz-adv-x="1142" d="M136 0v1117h188v-124q84 75 166 115t173 40q165 0 258 -108.5t93 -314.5v-725h-188v636q0 77 -7.5 143.5t-28.5 106.5q-23 42 -64 62.5t-112 20.5q-70 0 -144.5 -37.5t-145.5 -97.5v-834h-188zM242 1676h159l185 -256l184 256h155l-228 -379h-227z" />
<glyph unicode="&#x14a;" horiz-adv-x="1367" d="M151 0v1489h281l599 -1118v1118h185v-1516q0 -191 -102 -293.5t-282 -102.5q-31 0 -69 3t-76 9v168h11q22 -5 48 -9t50 -4q143 0 189.5 61.5t46.5 183.5l-696 1295v-1284h-185z" />
<glyph unicode="&#x14b;" horiz-adv-x="1142" d="M136 0v1117h188v-124q84 75 166 115t173 40q165 0 258 -108.5t93 -314.5v-757q0 -191 -102 -291t-282 -100q-31 0 -69 3t-76 9v168h11q22 -5 48 -9.5t50 -4.5q76 0 124.5 19t71.5 57q22 38 29 91t7 139v587q0 77 -7.5 143.5t-28.5 106.5q-23 42 -64 62.5t-112 20.5 q-70 0 -144.5 -37.5t-145.5 -97.5v-834h-188z" />
<glyph unicode="&#x14c;" horiz-adv-x="1449" d="M66 744q0 188 46.5 330t132.5 244q86 99 207.5 150.5t271.5 51.5q152 0 274 -53t206 -149q85 -98 132 -243t47 -331q0 -181 -46 -327t-133 -245q-91 -104 -212.5 -153.5t-267.5 -49.5q-151 0 -272 51t-208 152q-86 99 -132 244t-46 328zM272 744q0 -293 123 -448.5 t330 -155.5t329.5 155.5t122.5 448.5q0 148 -32 262t-90 189q-59 77 -142.5 115.5t-187.5 38.5q-108 0 -188.5 -37.5t-142.5 -116.5q-59 -76 -90.5 -191t-31.5 -260zM347 1698v154h754v-154h-754z" />
<glyph unicode="&#x14d;" horiz-adv-x="1112" d="M57 558q0 280 137.5 435t362.5 155q226 0 362 -154.5t136 -435.5q0 -282 -136 -435.5t-362 -153.5q-233 0 -366.5 158.5t-133.5 430.5zM179 1335v154h754v-154h-754zM251 558q0 -210 79.5 -318.5t226.5 -108.5q145 0 224.5 106.5t79.5 320.5q0 217 -79 322.5t-225 105.5 q-147 0 -226.5 -105.5t-79.5 -322.5z" />
<glyph unicode="&#x14e;" horiz-adv-x="1449" d="M66 744q0 188 46.5 330t132.5 244q86 99 207.5 150.5t271.5 51.5q152 0 274 -53t206 -149q85 -98 132 -243t47 -331q0 -181 -46 -327t-133 -245q-91 -104 -212.5 -153.5t-267.5 -49.5q-151 0 -272 51t-208 152q-86 99 -132 244t-46 328zM272 744q0 -293 123 -448.5 t330 -155.5t329.5 155.5t122.5 448.5q0 148 -32 262t-90 189q-59 77 -142.5 115.5t-187.5 38.5q-108 0 -188.5 -37.5t-142.5 -116.5q-59 -76 -90.5 -191t-31.5 -260zM394 2009h162q0 -135 42 -194.5t126 -59.5q79 0 123 58.5t44 195.5h162q0 -86 -21 -156.5t-60 -118.5 q-45 -53 -102 -79.5t-146 -26.5q-82 0 -143.5 27.5t-103.5 78.5q-41 50 -62 120t-21 155z" />
<glyph unicode="&#x14f;" horiz-adv-x="1112" d="M57 558q0 280 137.5 435t362.5 155q226 0 362 -154.5t136 -435.5q0 -282 -136 -435.5t-362 -153.5q-233 0 -366.5 158.5t-133.5 430.5zM226 1636h162q0 -135 42 -194.5t126 -59.5q79 0 123 58.5t44 195.5h162q0 -86 -21 -156.5t-60 -118.5q-45 -53 -102 -79.5t-146 -26.5 q-82 0 -143.5 27.5t-103.5 78.5q-41 50 -62 120t-21 155zM251 558q0 -210 79.5 -318.5t226.5 -108.5q145 0 224.5 106.5t79.5 320.5q0 217 -79 322.5t-225 105.5q-147 0 -226.5 -105.5t-79.5 -322.5z" />
<glyph unicode="&#x150;" horiz-adv-x="1449" d="M66 744q0 188 46.5 330t132.5 244q86 99 207.5 150.5t271.5 51.5q152 0 274 -53t206 -149q85 -98 132 -243t47 -331q0 -181 -46 -327t-133 -245q-91 -104 -212.5 -153.5t-267.5 -49.5q-151 0 -272 51t-208 152q-86 99 -132 244t-46 328zM272 744q0 -293 123 -448.5 t330 -155.5t329.5 155.5t122.5 448.5q0 148 -32 262t-90 189q-59 77 -142.5 115.5t-187.5 38.5q-108 0 -188.5 -37.5t-142.5 -116.5q-59 -76 -90.5 -191t-31.5 -260zM400 1675l169 374h228l-258 -374h-139zM804 1675l169 374h228l-258 -374h-139z" />
<glyph unicode="&#x151;" horiz-adv-x="1112" d="M57 558q0 280 137.5 435t362.5 155q226 0 362 -154.5t136 -435.5q0 -282 -136 -435.5t-362 -153.5q-233 0 -366.5 158.5t-133.5 430.5zM238 1302l169 374h228l-258 -374h-139zM251 558q0 -210 79.5 -318.5t226.5 -108.5q145 0 224.5 106.5t79.5 320.5q0 217 -79 322.5 t-225 105.5q-147 0 -226.5 -105.5t-79.5 -322.5zM642 1302l169 374h228l-258 -374h-139z" />
<glyph unicode="&#x152;" horiz-adv-x="2000" d="M66 746q0 209 84.5 370.5t220.5 252.5q89 60 209.5 90t318.5 30h1033v-176h-723v-408h673v-176h-673v-553h723v-176h-1031q-184 0 -308 26t-225 92q-144 95 -223 253.5t-79 374.5zM272 743q0 -172 57 -293.5t169 -189.5q83 -50 173.5 -69.5t219.5 -19.5h121v1147h-119 q-148 0 -241.5 -22.5t-172.5 -75.5q-103 -68 -155 -188t-52 -289z" />
<glyph unicode="&#x153;" horiz-adv-x="1861" d="M57 558q0 278 135 434t362 156q131 0 234.5 -55t167.5 -156q67 101 172.5 156t234.5 55q215 0 330 -133t115 -374v-102h-769q0 -193 97 -297t267 -104q62 0 121.5 14t107.5 36q51 23 86 44.5t58 40.5h11v-205q-33 -13 -82 -32.5t-88 -30.5q-55 -15 -99.5 -23t-112.5 -8 q-147 0 -264.5 52.5t-188.5 152.5q-67 -103 -164.5 -156.5t-233.5 -53.5q-231 0 -364 158t-133 431zM251 558q0 -210 78.5 -318.5t224.5 -108.5q144 0 223 107.5t79 319.5q0 217 -78.5 322.5t-223.5 105.5q-148 0 -225.5 -110.5t-77.5 -317.5zM1039 683h586 q-4 157 -71 233.5t-202 76.5q-128 0 -214.5 -82t-98.5 -228z" />
<glyph unicode="&#x154;" horiz-adv-x="1271" d="M151 0v1489h384q128 0 214.5 -14t164.5 -65q78 -50 123.5 -129t45.5 -196q0 -164 -83 -274t-226 -163l530 -648h-257l-472 592h-226v-592h-198zM349 757h174q85 0 153 15t116 62q43 42 63.5 100t20.5 136q0 65 -23 115.5t-71 82.5q-42 28 -98 39.5t-139 11.5h-196v-562z M469 1675l179 374h243l-273 -374h-149z" />
<glyph unicode="&#x155;" horiz-adv-x="738" d="M136 0v1117h188v-166q103 91 179.5 128.5t148.5 37.5q29 0 43.5 -1.5t32.5 -4.5v-196h-10q-21 6 -44.5 7.5t-56.5 1.5q-76 0 -151 -33t-142 -98v-793h-188zM273 1302l179 374h243l-273 -374h-149z" />
<glyph unicode="&#x156;" horiz-adv-x="1271" d="M151 0v1489h384q128 0 214.5 -14t164.5 -65q78 -50 123.5 -129t45.5 -196q0 -164 -83 -274t-226 -163l530 -648h-257l-472 592h-226v-592h-198zM288 -239h9q24 -11 63 -22.5t79 -11.5q94 0 134 39.5t40 126.5q0 26 -1 57t-3 70h157q1 -18 3.5 -45.5t2.5 -63.5 q0 -162 -87 -248t-220 -86q-37 0 -87 6t-90 18v160zM349 757h174q85 0 153 15t116 62q43 42 63.5 100t20.5 136q0 65 -23 115.5t-71 82.5q-42 28 -98 39.5t-139 11.5h-196v-562z" />
<glyph unicode="&#x157;" horiz-adv-x="738" d="M-22 -239h9q24 -11 63 -22.5t79 -11.5q94 0 135 39.5t41 126.5q0 21 -0.5 46.5t-2.5 60.5h-166v1117h188v-166q59 51 146 108.5t182 57.5q29 0 43.5 -1.5t32.5 -4.5v-196h-10q-21 6 -44.5 7.5t-56.5 1.5q-76 0 -151 -33t-142 -98v-773h132q1 -18 3.5 -45.5t2.5 -63.5 q0 -162 -87 -248t-220 -86q-37 0 -87 6t-90 18v160z" />
<glyph unicode="&#x158;" horiz-adv-x="1271" d="M151 0v1489h384q128 0 214.5 -14t164.5 -65q78 -50 123.5 -129t45.5 -196q0 -164 -83 -274t-226 -163l530 -648h-257l-472 592h-226v-592h-198zM264 2049h159l185 -256l184 256h155l-228 -379h-227zM349 757h174q85 0 153 15t116 62q43 42 63.5 100t20.5 136 q0 65 -23 115.5t-71 82.5q-42 28 -98 39.5t-139 11.5h-196v-562z" />
<glyph unicode="&#x159;" horiz-adv-x="738" d="M54 1676h159l185 -256l184 256h155l-228 -379h-227zM136 0v1117h188v-166q103 91 179.5 128.5t148.5 37.5q29 0 43.5 -1.5t32.5 -4.5v-196h-10q-21 6 -44.5 7.5t-56.5 1.5q-76 0 -151 -33t-142 -98v-793h-188z" />
<glyph unicode="&#x15a;" horiz-adv-x="1141" d="M77 89v248h14q98 -92 222 -142.5t239 -50.5q164 0 248 68.5t84 180.5q0 89 -44 145t-140 83q-69 20 -126 33t-143 35q-77 20 -138 51t-108 81q-46 49 -71.5 115.5t-25.5 153.5q0 181 141 303.5t360 122.5q125 0 236.5 -25t206.5 -71v-237h-15q-71 65 -182 113.5 t-233 48.5q-138 0 -223 -64.5t-85 -169.5q0 -95 50 -151t145 -82q63 -17 154 -38.5t151 -39.5q154 -47 225 -142t71 -234q0 -87 -35.5 -172t-99.5 -144q-72 -65 -162.5 -100t-226.5 -35q-162 0 -275.5 33.5t-213.5 82.5zM449 1675l179 374h243l-273 -374h-149z" />
<glyph unicode="&#x15b;" horiz-adv-x="914" d="M67 67v211h10q24 -19 56.5 -42t86.5 -48q48 -22 105.5 -39t119.5 -17q45 0 96 10.5t76 26.5q35 23 50.5 49t15.5 78q0 67 -36.5 101t-129.5 57q-36 9 -94 21t-107 26q-128 37 -186 114.5t-58 187.5q0 151 114 246t303 95q93 0 187 -23t158 -58v-201h-10q-72 57 -160.5 90 t-178.5 33q-93 0 -157 -39t-64 -118q0 -70 38 -104.5t122 -56.5q42 -11 93.5 -21.5t108.5 -24.5q124 -31 186.5 -103t62.5 -196q0 -72 -28.5 -136.5t-83.5 -110.5q-60 -50 -135.5 -76t-189.5 -26q-112 0 -209.5 30t-161.5 64zM317 1302l179 374h243l-273 -374h-149z" />
<glyph unicode="&#x15c;" horiz-adv-x="1141" d="M77 89v248h14q98 -92 222 -142.5t239 -50.5q164 0 248 68.5t84 180.5q0 89 -44 145t-140 83q-69 20 -126 33t-143 35q-77 20 -138 51t-108 81q-46 49 -71.5 115.5t-25.5 153.5q0 181 141 303.5t360 122.5q125 0 236.5 -25t206.5 -71v-237h-15q-71 65 -182 113.5 t-233 48.5q-138 0 -223 -64.5t-85 -169.5q0 -95 50 -151t145 -82q63 -17 154 -38.5t151 -39.5q154 -47 225 -142t71 -234q0 -87 -35.5 -172t-99.5 -144q-72 -65 -162.5 -100t-226.5 -35q-162 0 -275.5 33.5t-213.5 82.5zM248 1670l228 379h227l228 -379h-159l-185 256 l-184 -256h-155z" />
<glyph unicode="&#x15d;" horiz-adv-x="914" d="M67 67v211h10q24 -19 56.5 -42t86.5 -48q48 -22 105.5 -39t119.5 -17q45 0 96 10.5t76 26.5q35 23 50.5 49t15.5 78q0 67 -36.5 101t-129.5 57q-36 9 -94 21t-107 26q-128 37 -186 114.5t-58 187.5q0 151 114 246t303 95q93 0 187 -23t158 -58v-201h-10q-72 57 -160.5 90 t-178.5 33q-93 0 -157 -39t-64 -118q0 -70 38 -104.5t122 -56.5q42 -11 93.5 -21.5t108.5 -24.5q124 -31 186.5 -103t62.5 -196q0 -72 -28.5 -136.5t-83.5 -110.5q-60 -50 -135.5 -76t-189.5 -26q-112 0 -209.5 30t-161.5 64zM143 1297l228 379h227l228 -379h-159l-185 256 l-184 -256h-155z" />
<glyph unicode="&#x15e;" horiz-adv-x="1141" d="M77 89v248h14q98 -92 222 -142.5t239 -50.5q164 0 248 68.5t84 180.5q0 89 -44 145t-140 83q-69 20 -126 33t-143 35q-77 20 -138 51t-108 81q-46 49 -71.5 115.5t-25.5 153.5q0 181 141 303.5t360 122.5q125 0 236.5 -25t206.5 -71v-237h-15q-71 65 -182 113.5 t-233 48.5q-138 0 -223 -64.5t-85 -169.5q0 -95 50 -151t145 -82q63 -17 154 -38.5t151 -39.5q154 -47 225 -142t71 -234q0 -87 -35.5 -172t-99.5 -144q-39 -35 -79.5 -59t-93.5 -42q1 -16 3 -41.5t2 -54.5q0 -162 -88 -248t-221 -86q-37 0 -87 6t-90 18v160h9 q24 -11 63 -22.5t79 -11.5q94 0 138 39.5t44 126.5q0 18 -0.5 38.5t-1.5 45.5q-17 -1 -31.5 -2t-34.5 -1q-162 0 -275.5 33t-213.5 82z" />
<glyph unicode="&#x15f;" horiz-adv-x="914" d="M67 67v211h10q24 -19 56.5 -42t86.5 -48q48 -22 105.5 -39t119.5 -17q45 0 96 10.5t76 26.5q35 23 50.5 49t15.5 78q0 67 -36.5 101t-129.5 57q-36 9 -94 21t-107 26q-128 37 -186 114.5t-58 187.5q0 151 114 246t303 95q93 0 187 -23t158 -58v-201h-10q-72 57 -160.5 90 t-178.5 33q-93 0 -157 -39t-64 -118q0 -70 38 -104.5t122 -56.5q42 -11 93.5 -21.5t108.5 -24.5q124 -31 186.5 -103t62.5 -196q0 -72 -28.5 -136.5t-83.5 -110.5q-23 -19 -45 -33t-50 -26q1 -18 3.5 -44.5t2.5 -60.5q0 -162 -88 -248t-221 -86q-37 0 -87 6t-90 18v160h9 q24 -11 63 -22.5t79 -11.5q94 0 138 39.5t44 126.5q0 18 -0.5 39t-1.5 46q-21 -2 -39 -3t-42 -1q-112 0 -209.5 29.5t-161.5 63.5z" />
<glyph unicode="&#x160;" horiz-adv-x="1141" d="M77 89v248h14q98 -92 222 -142.5t239 -50.5q164 0 248 68.5t84 180.5q0 89 -44 145t-140 83q-69 20 -126 33t-143 35q-77 20 -138 51t-108 81q-46 49 -71.5 115.5t-25.5 153.5q0 181 141 303.5t360 122.5q125 0 236.5 -25t206.5 -71v-237h-15q-71 65 -182 113.5 t-233 48.5q-138 0 -223 -64.5t-85 -169.5q0 -95 50 -151t145 -82q63 -17 154 -38.5t151 -39.5q154 -47 225 -142t71 -234q0 -87 -35.5 -172t-99.5 -144q-72 -65 -162.5 -100t-226.5 -35q-162 0 -275.5 33.5t-213.5 82.5zM247 2049h159l185 -256l184 256h155l-228 -379h-227z " />
<glyph unicode="&#x161;" horiz-adv-x="914" d="M67 67v211h10q24 -19 56.5 -42t86.5 -48q48 -22 105.5 -39t119.5 -17q45 0 96 10.5t76 26.5q35 23 50.5 49t15.5 78q0 67 -36.5 101t-129.5 57q-36 9 -94 21t-107 26q-128 37 -186 114.5t-58 187.5q0 151 114 246t303 95q93 0 187 -23t158 -58v-201h-10q-72 57 -160.5 90 t-178.5 33q-93 0 -157 -39t-64 -118q0 -70 38 -104.5t122 -56.5q42 -11 93.5 -21.5t108.5 -24.5q124 -31 186.5 -103t62.5 -196q0 -72 -28.5 -136.5t-83.5 -110.5q-60 -50 -135.5 -76t-189.5 -26q-112 0 -209.5 30t-161.5 64zM132 1676h159l185 -256l184 256h155l-228 -379 h-227z" />
<glyph unicode="&#x162;" horiz-adv-x="1196" d="M-1 1313v176h1198v-176h-500v-1293h125q1 -18 3.5 -45.5t2.5 -63.5q0 -162 -87 -248t-220 -86q-37 0 -87 6t-90 18v160h9q24 -11 63 -22.5t79 -11.5q94 0 135 39.5t41 126.5q0 21 -0.5 46.5t-2.5 60.5h-169v1313h-500z" />
<glyph unicode="&#x163;" horiz-adv-x="685" d="M21 961v156h127v321h188v-321h346v-156h-346v-531q0 -85 3 -131t23 -86q17 -35 55 -52.5t103 -17.5q46 0 89 13.5t62 22.5h11v-169q-12 -3 -30.5 -8t-38.5 -8l2.5 -35t1.5 -48q0 -162 -87 -248t-220 -86q-37 0 -87 6t-90 18v160h9q24 -11 63 -22.5t79 -11.5 q94 0 139 39.5t45 126.5q0 18 -0.5 39.5t-1.5 46.5q-151 3 -234.5 89.5t-83.5 273.5v619h-127z" />
<glyph unicode="&#x164;" horiz-adv-x="1196" d="M-1 1313v176h1198v-176h-500v-1313h-198v1313h-500zM258 2049h159l185 -256l184 256h155l-228 -379h-227z" />
<glyph unicode="&#x165;" horiz-adv-x="959" d="M21 961v156h127v321h188v-321h292v-156h-292v-531q0 -85 3 -131t23 -86q17 -35 55 -52.5t103 -17.5q46 0 89 13.5t62 22.5h11v-169q-53 -15 -107.5 -23.5t-100.5 -8.5q-154 0 -240 87.5t-86 276.5v619h-127zM658 1051l142 505h225l-240 -505h-127z" />
<glyph unicode="&#x166;" horiz-adv-x="1196" d="M-1 1313v176h1198v-176h-500v-430h317v-143h-317v-740h-198v740h-317v143h317v430h-500z" />
<glyph unicode="&#x167;" horiz-adv-x="695" d="M31 533v134h127v294h-127v156h127v321h188v-321h346v-156h-346v-294h271v-134h-271v-103q0 -85 3 -131t23 -86q17 -35 55 -52.5t103 -17.5q46 0 89 13.5t62 22.5h11v-169q-53 -15 -107.5 -23.5t-100.5 -8.5q-154 0 -240 87.5t-86 276.5v191h-127z" />
<glyph unicode="&#x168;" horiz-adv-x="1343" d="M133 560v929h198v-929q0 -103 13 -173.5t51 -126.5q40 -60 108.5 -91t167.5 -31q93 0 165 31t112 91q37 57 50.5 126t13.5 169v934h198v-929q0 -155 -31.5 -266t-110.5 -188q-71 -69 -165.5 -103t-231.5 -34q-131 0 -229 34.5t-167 102.5q-78 78 -110 186.5t-32 267.5z M271 1679q7 154 76 232.5t169 78.5q51 0 94 -19.5t86 -57.5q43 -39 77.5 -59.5t63.5 -20.5q47 0 68.5 45t24.5 117h140q-10 -156 -74.5 -234t-171.5 -78q-52 0 -96 19t-86 59q-44 41 -76 62.5t-63 21.5q-49 0 -68.5 -45t-23.5 -121h-140z" />
<glyph unicode="&#x169;" horiz-adv-x="1142" d="M128 392v725h188v-636q0 -89 6.5 -147.5t29.5 -102.5q23 -43 62.5 -63t113.5 -20q69 0 147 39t143 96v834h188v-1117h-188v124q-87 -76 -165 -115.5t-174 -39.5q-73 0 -137.5 24t-112.5 76t-74.5 131t-26.5 192zM167 1316q7 154 76 232.5t169 78.5q51 0 94 -19.5 t86 -57.5q43 -39 77.5 -59.5t63.5 -20.5q47 0 68.5 45t24.5 117h140q-10 -156 -74.5 -234t-171.5 -78q-52 0 -96 19t-86 59q-44 41 -76 62.5t-63 21.5q-49 0 -68.5 -45t-23.5 -121h-140z" />
<glyph unicode="&#x16a;" horiz-adv-x="1343" d="M133 560v929h198v-929q0 -103 13 -173.5t51 -126.5q40 -60 108.5 -91t167.5 -31q93 0 165 31t112 91q37 57 50.5 126t13.5 169v934h198v-929q0 -155 -31.5 -266t-110.5 -188q-71 -69 -165.5 -103t-231.5 -34q-131 0 -229 34.5t-167 102.5q-78 78 -110 186.5t-32 267.5z M294 1698v154h754v-154h-754z" />
<glyph unicode="&#x16b;" horiz-adv-x="1142" d="M128 392v725h188v-636q0 -89 6.5 -147.5t29.5 -102.5q23 -43 62.5 -63t113.5 -20q69 0 147 39t143 96v834h188v-1117h-188v124q-87 -76 -165 -115.5t-174 -39.5q-73 0 -137.5 24t-112.5 76t-74.5 131t-26.5 192zM194 1335v154h754v-154h-754z" />
<glyph unicode="&#x16c;" horiz-adv-x="1343" d="M133 560v929h198v-929q0 -103 13 -173.5t51 -126.5q40 -60 108.5 -91t167.5 -31q93 0 165 31t112 91q37 57 50.5 126t13.5 169v934h198v-929q0 -155 -31.5 -266t-110.5 -188q-71 -69 -165.5 -103t-231.5 -34q-131 0 -229 34.5t-167 102.5q-78 78 -110 186.5t-32 267.5z M341 2009h162q0 -135 42 -194.5t126 -59.5q79 0 123 58.5t44 195.5h162q0 -86 -21 -156.5t-60 -118.5q-45 -53 -102 -79.5t-146 -26.5q-82 0 -143.5 27.5t-103.5 78.5q-41 50 -62 120t-21 155z" />
<glyph unicode="&#x16d;" horiz-adv-x="1142" d="M128 392v725h188v-636q0 -89 6.5 -147.5t29.5 -102.5q23 -43 62.5 -63t113.5 -20q69 0 147 39t143 96v834h188v-1117h-188v124q-87 -76 -165 -115.5t-174 -39.5q-73 0 -137.5 24t-112.5 76t-74.5 131t-26.5 192zM241 1636h162q0 -135 42 -194.5t126 -59.5q79 0 123 58.5 t44 195.5h162q0 -86 -21 -156.5t-60 -118.5q-45 -53 -102 -79.5t-146 -26.5q-82 0 -143.5 27.5t-103.5 78.5q-41 50 -62 120t-21 155z" />
<glyph unicode="&#x16e;" horiz-adv-x="1343" d="M133 560v929h198v-929q0 -103 13 -173.5t51 -126.5q40 -60 108.5 -91t167.5 -31q93 0 165 31t112 91q37 57 50.5 126t13.5 169v934h198v-929q0 -155 -31.5 -266t-110.5 -188q-71 -69 -165.5 -103t-231.5 -34q-131 0 -229 34.5t-167 102.5q-78 78 -110 186.5t-32 267.5z M366 1771q0 128 89 214.5t217 86.5q129 0 217.5 -86t88.5 -215t-88.5 -215t-217.5 -86q-128 0 -217 86.5t-89 214.5zM513 1770q0 -73 44.5 -122t114.5 -49t114.5 49.5t44.5 121.5q0 74 -44.5 123.5t-114.5 49.5q-69 0 -114 -50t-45 -123z" />
<glyph unicode="&#x16f;" horiz-adv-x="1142" d="M128 392v725h188v-636q0 -89 6.5 -147.5t29.5 -102.5q23 -43 62.5 -63t113.5 -20q69 0 147 39t143 96v834h188v-1117h-188v124q-87 -76 -165 -115.5t-174 -39.5q-73 0 -137.5 24t-112.5 76t-74.5 131t-26.5 192zM266 1421q0 128 89 214.5t217 86.5q129 0 217.5 -86 t88.5 -215t-88.5 -215t-217.5 -86q-128 0 -217 86.5t-89 214.5zM413 1420q0 -73 44.5 -122t114.5 -49t114.5 49.5t44.5 121.5q0 74 -44.5 123.5t-114.5 49.5q-69 0 -114 -50t-45 -123z" />
<glyph unicode="&#x170;" horiz-adv-x="1343" d="M133 560v929h198v-929q0 -103 13 -173.5t51 -126.5q40 -60 108.5 -91t167.5 -31q93 0 165 31t112 91q37 57 50.5 126t13.5 169v934h198v-929q0 -155 -31.5 -266t-110.5 -188q-71 -69 -165.5 -103t-231.5 -34q-131 0 -229 34.5t-167 102.5q-78 78 -110 186.5t-32 267.5z M362 1675l169 374h228l-258 -374h-139zM766 1675l169 374h228l-258 -374h-139z" />
<glyph unicode="&#x171;" horiz-adv-x="1142" d="M128 392v725h188v-636q0 -89 6.5 -147.5t29.5 -102.5q23 -43 62.5 -63t113.5 -20q69 0 147 39t143 96v834h188v-1117h-188v124q-87 -76 -165 -115.5t-174 -39.5q-73 0 -137.5 24t-112.5 76t-74.5 131t-26.5 192zM250 1302l169 374h228l-258 -374h-139zM654 1302l169 374 h228l-258 -374h-139z" />
<glyph unicode="&#x172;" horiz-adv-x="1343" d="M133 560v929h198v-929q0 -103 13 -173.5t51 -126.5q40 -60 108.5 -91t167.5 -31q93 0 165 31t112 91q37 57 50.5 126t13.5 169v934h198v-929q0 -155 -31.5 -266t-110.5 -188q-40 -38 -85.5 -65.5t-104.5 -43.5q-5 -20 -9.5 -48t-4.5 -56q0 -81 33 -121t121 -40 q33 0 65.5 9.5t51.5 20.5h9v-158q-36 -10 -76.5 -15.5t-74.5 -5.5q-124 0 -206.5 75t-82.5 225q0 24 2.5 43.5t7.5 44.5q-9 0 -20 -0.5t-23 -0.5q-131 0 -229 34t-167 102q-78 78 -110 186.5t-32 267.5z" />
<glyph unicode="&#x173;" horiz-adv-x="1142" d="M128 392v725h188v-636q0 -89 6.5 -147.5t29.5 -102.5q23 -43 62.5 -63t113.5 -20q69 0 147 39t143 96v834h188v-1117h-36q-6 -23 -9.5 -52.5t-3.5 -54.5q0 -81 33 -121t121 -40q33 0 65.5 9.5t51.5 20.5h9v-158q-36 -10 -76.5 -15.5t-74.5 -5.5q-123 0 -206 74t-83 226 q0 35 6 64t15 63v114q-87 -76 -165 -115.5t-174 -39.5q-73 0 -137.5 24t-112.5 76t-74.5 131t-26.5 192z" />
<glyph unicode="&#x174;" horiz-adv-x="1847" d="M26 1489h203l300 -1238l298 1238h201l301 -1250l298 1250h194l-374 -1489h-223l-303 1236l-296 -1236h-218zM589 1670l228 379h227l228 -379h-159l-185 256l-184 -256h-155z" />
<glyph unicode="&#x175;" horiz-adv-x="1520" d="M30 1117h196l197 -865l265 865h155l272 -865l186 865h189l-283 -1117h-174l-273 861l-271 -861h-173zM426 1297l228 379h227l228 -379h-159l-185 256l-184 -256h-155z" />
<glyph unicode="&#x176;" horiz-adv-x="1180" d="M-11 1489h220l384 -657l390 657h210l-503 -830v-659h-198v638zM252 1670l228 379h227l228 -379h-159l-185 256l-184 -256h-155z" />
<glyph unicode="&#x177;" horiz-adv-x="1020" d="M6 1117h203l305 -827l304 827h196l-601 -1529h-201l200 466zM175 1297l228 379h227l228 -379h-159l-185 256l-184 -256h-155z" />
<glyph unicode="&#x178;" horiz-adv-x="1180" d="M-11 1489h220l384 -657l390 657h210l-503 -830v-659h-198v638zM286 1677v195h201v-195h-201zM699 1677v195h201v-195h-201z" />
<glyph unicode="&#x179;" horiz-adv-x="1145" d="M60 0v184l797 1129h-761v176h984v-179l-806 -1134h826v-176h-1040zM449 1675l179 374h243l-273 -374h-149z" />
<glyph unicode="&#x17a;" horiz-adv-x="910" d="M49 0v139l584 823h-560v155h786v-134l-587 -826h598v-157h-821zM313 1302l179 374h243l-273 -374h-149z" />
<glyph unicode="&#x17b;" horiz-adv-x="1145" d="M60 0v184l797 1129h-761v176h984v-179l-806 -1134h826v-176h-1040zM472 1677v195h214v-195h-214z" />
<glyph unicode="&#x17c;" horiz-adv-x="910" d="M49 0v139l584 823h-560v155h786v-134l-587 -826h598v-157h-821zM342 1304v195h214v-195h-214z" />
<glyph unicode="&#x17d;" horiz-adv-x="1145" d="M60 0v184l797 1129h-761v176h984v-179l-806 -1134h826v-176h-1040zM227 2049h159l185 -256l184 256h155l-228 -379h-227z" />
<glyph unicode="&#x17e;" horiz-adv-x="910" d="M49 0v139l584 823h-560v155h786v-134l-587 -826h598v-157h-821zM117 1676h159l185 -256l184 256h155l-228 -379h-227z" />
<glyph unicode="&#x17f;" horiz-adv-x="520" d="M140 0v1152q0 209 101 311.5t274 102.5q52 0 102 -5.5t91 -12.5v-172h-10q-25 9 -72 17.5t-84 8.5q-117 0 -165.5 -55.5t-48.5 -184.5v-1162h-188z" />
<glyph unicode="&#x192;" horiz-adv-x="1118" d="M-49 -3h10q28 -10 77.5 -23.5t90.5 -13.5q112 0 163 61t71 213l72 512h-178v138h196l27 198q17 123 54 206.5t92 136.5q52 49 125.5 71.5t151.5 22.5q50 0 91 -4.5t93 -13.5v-181h-10q-27 10 -78.5 23.5t-89.5 13.5q-112 0 -162 -60.5t-72 -213.5l-29 -199h292v-138h-310 l-70 -511q-32 -231 -137 -334t-286 -103q-39 0 -86.5 4.5t-97.5 13.5v181z" />
<glyph unicode="&#x1a0;" horiz-adv-x="1539" d="M66 744q0 188 46.5 330t132.5 244q86 99 207.5 150.5t271.5 51.5q152 0 274 -53t206 -149q18 -21 34.5 -44.5t30.5 -48.5q79 4 112.5 36t33.5 100q0 36 -11 81.5t-23 68.5v9h160q13 -47 18.5 -82t5.5 -85q0 -108 -60 -173t-177 -83q27 -78 41 -165.5t14 -187.5 q0 -181 -46 -327t-133 -245q-91 -104 -212.5 -153.5t-267.5 -49.5q-151 0 -272 51t-208 152q-86 99 -132 244t-46 328zM272 744q0 -293 123 -448.5t330 -155.5t329.5 155.5t122.5 448.5q0 148 -32 262t-90 189q-59 77 -142.5 115.5t-187.5 38.5q-108 0 -188.5 -37.5 t-142.5 -116.5q-59 -76 -90.5 -191t-31.5 -260z" />
</font>
</defs>
</svg>
